<svg viewBox="0 0 48.84334724 16.79951932" xmlns="http://www.w3.org/2000/svg" xmlns:xlink="http://www.w3.org/1999/xlink"><clipPath id="a"><path d="m-11.14606636-3.97776358h10.74606636v12.16211572h-10.74606636z"/></clipPath><clipPath id="b"><path d="m-11.14606636-3.97776358h10.74606636v12.16211572h-10.74606636z"/></clipPath><linearGradient id="c" x1="0" x2="1" y1="0" y2="1"><stop offset="0" stop-color="#4e835e"/><stop offset="1" stop-color="#447352"/></linearGradient><linearGradient id="d" x1="0" x2="1" y1="0" y2="1"><stop offset="0" stop-color="#63a376"/><stop offset="1" stop-color="#4c7f5c"/></linearGradient><linearGradient id="e" x1="0" x2="1" y1="0" y2="1"><stop offset="0" stop-color="#467655"/><stop offset="1" stop-color="#30533a"/></linearGradient><linearGradient id="f" x1="0" x2="1" y1="0" y2="1"><stop offset="0" stop-color="#4e835e"/><stop offset="1" stop-color="#386044"/></linearGradient><linearGradient id="g" x1="0" x2="1" y1="0" y2="1"><stop offset="0" stop-color="#5a956c"/><stop offset="1" stop-color="#447252"/></linearGradient><linearGradient id="h" x1="0" x2="1" y1="0" y2="1"><stop offset="0" stop-color="#568f67"/><stop offset="1" stop-color="#447252"/></linearGradient><linearGradient id="i" x1="0" x2="1" y1="0" y2="1"><stop offset="0" stop-color="#4a7c5a"/><stop offset="1" stop-color="#406c4d"/></linearGradient><linearGradient id="j" x1="0" x2="1" y1="0" y2="1"><stop offset="0" stop-color="#426f50"/><stop offset="1" stop-color="#2c4d36"/></linearGradient><linearGradient id="k" x1="0" x2="1" y1="0" y2="1"><stop offset="0" stop-color="#3e6a4b"/><stop offset="1" stop-color="#284631"/></linearGradient><linearGradient id="l" x1="0" x2="1" y1="0" y2="1"><stop offset="0" stop-color="#4a7c5a"/><stop offset="1" stop-color="#34593f"/></linearGradient><linearGradient id="m" x1="0" x2="1" y1="0" y2="1"><stop offset="0" stop-color="#365d42"/><stop offset="1" stop-color="#203a28"/></linearGradient><linearGradient id="n" x1="0" x2="1" y1="0" y2="1"><stop offset="0" stop-color="#3a6447"/><stop offset="1" stop-color="#30533a"/></linearGradient><linearGradient id="o" x1="0" x2="1" y1="0" y2="1"><stop offset="0" stop-color="#3e6a4b"/><stop offset="1" stop-color="#2c4d36"/></linearGradient><linearGradient id="p" x1="0" x2="1" y1="0" y2="1"><stop offset="0" stop-color="#4a7d5a"/><stop offset="1" stop-color="#386044"/></linearGradient><linearGradient id="q" x1="0" x2="1" y1="0" y2="1"><stop offset="0" stop-color="#579068"/><stop offset="1" stop-color="#406d4e"/></linearGradient><g transform="translate(13.464768 6.296465)"><g clip-path="url(#a)"><g clip-path="url(#b)"><path d="m-5.77303318.24078972c-.13744268 0-.27293306-.03631298-.39202402-.10503432-.24169608-.13978546-.39202402-.39983327-.39202402-.67901372s.15032794-.53922826.39202402-.67901372c.11909096-.06872134.25458134-.10503432.39202402-.10503432.13744269 0 .27293306.03631298.39202402.10503432.24169609.13978546.39202402.39983327.39202402.67901372s-.15032793.53922826-.39202402.67901372c-.1187005.06872134-.25458133.10503432-.39202402.10503432z" fill="url(#c)"/></g><g clip-path="url(#b)"><path d="m-10.35901138.24898943c-.34751134 0-.65011952-.2260776-.753592-.56265599-.08629214-.2807423-.00234277-.59155019.21319235-.79107636.14876609-.13783315.33970209-.21397327.53688549-.21397327.08394936 0 .16672734.01327571.24677209.03982714.07418781.02459912.15306117.03709391.23466776.03709391.15891811 0 .32291222-.04607454.474802-.13392853l.14329962-.08277798c.23232499-.13392852.39202402-.34048301.43848902-.56617015.05856933-.28347553.26160966-.50447712.54235196-.59155019.07184504-.02225634.14720424-.03357974.22373482-.03357974.21631604 0 .42365146.08902537.56812246.24442931.16711781.1796126.24286747.41896591.20694495.65714784-.03553206.23779146-.17531751.4427841-.38343385.56304645-.1187005.06833088-.25340995.10464386-.38929079.10464386-.06872134 0-.13705222-.00898063-.20382125-.02694189-.09839647-.02655142-.19679293-.03982714-.2920657-.03982714-.16282273 0-.31197928.03826529-.44317457.11401496l-.17726982.10230108c-.20733542.11948143-.36078705.33267378-.43185117.5997499-.05388378.20186894-.18312676.3705486-.36391074.474802-.1187005.06911181-.25419087.10542479-.39085263.10542479z" fill="url(#d)"/></g><g clip-path="url(#b)"><path d="m-3.4544688 4.21998971c-.07653059 0-.15188979-.0113234-.22373483-.03357974-.28113276-.08707307-.48378263-.30807466-.54235195-.59155019-.04685546-.22568714-.20655449-.43224163-.43887948-.56617015l-.14329962-.08277798c-.15188979-.08746353-.3158839-.13392853-.474802-.13392853-.0816066 0-.16087042.01249479-.23466777.03709391-.08004474.02655143-.16282272.03982714-.24677209.03982714-.1971834 0-.3881194-.07614012-.53688549-.21397327-.21592558-.19952617-.29948448-.51033406-.21319234-.79107636.10347247-.33657839.40608066-.56265599.75359199-.56265599.13666176 0 .27215213.03631298.3912431.10503433.18078398.1042534.31002696.27293305.36391074.474802.07145458.26707612.22490621.48026847.43224162.59974989l.17726983.10230109c.13119529.07574966.28035184.11401496.44317456.11401496.09566324 0 .19366924-.01327572.29206571-.03982715.06637857-.01796126.13509991-.02694189.20382125-.02694189.1362713 0 .27098075.03631299.38929079.10464387.20811634.12026234.34790179.32525498.38343385.56304645.03553206.23779146-.03982714.47714477-.20694495.65714783-.14486147.15540395-.35180642.24481978-.56851292.24481978z" fill="url(#e)"/></g><g clip-path="url(#b)"><path d="m-3.47125868 1.5714848c-.07653058 0-.15188978-.0113234-.22373482-.03357974-.28113276-.08707307-.48378263-.30807466-.54235196-.59155019-.046465-.22568714-.20655449-.43224163-.43848902-.56617015l-.14329961-.08277798c-.15188979-.08746353-.3158839-.13392853-.474802-.13392853-.0816066 0-.16087042.01249479-.23466777.03709391-.08004474.02655143-.16282272.03982714-.24677209.03982714-.1971834 0-.3881194-.07614012-.53688549-.21397327-.21592558-.19952617-.29948448-.51033406-.21319234-.79107636.10347247-.33657839.40608066-.56226553.75359199-.56226553.13666176 0 .27215213.03631298.39124309.10503433.18078399.10464386.31002697.27293306.36391075.474802.07145458.26707612.22451575.48026847.43185116.59974989l.17726983.10230109c.13119529.07574966.28035184.11401496.44317456.11401496.09566323 0 .19366924-.01327572.29206571-.03982714.06637856-.01796126.13509991-.02694189.20382125-.02694189.1362713 0 .27098075.03631298.38929078.10464386.20811634.12026235.3479018.32525499.38343386.56304645.03553205.23779146-.03982714.47714477-.20694495.65714783-.14486147.15501349-.35180642.24442932-.56851293.24442932z" fill="url(#f)"/></g><g clip-path="url(#b)"><path d="m-10.35784 2.88851371c-.34712087 0-.65011951-.2260776-.75359199-.56226553-.08629214-.28113276-.00234277-.59155019.21319235-.79107636.14876608-.13783315.33970209-.21397327.53688548-.21397327.08394937 0 .16672735.01327572.24677209.03982714.07418782.02459912.15306118.03709391.23466777.03709391.1589181 0 .32291222-.04607454.474802-.13392853l.14329962-.08277798c.23232499-.13392852.39202402-.34048301.43887948-.56617015.05856932-.28347553.26121919-.50447712.54235196-.59155019.07184503-.02225634.14720423-.03357974.22373482-.03357974.21631604 0 .42326099.08902537.56812246.24442932.16711781.18000306.24286747.41935637.20694495.65714783-.03553206.23779147-.17531751.44278411-.38343385.56304645-.1187005.06833088-.25340995.10464387-.38929079.10464387-.06872134 0-.13705222-.00898063-.20382125-.02694189-.09839647-.02655143-.19679294-.03982715-.29206571-.03982715-.16282272 0-.31197927.0382653-.44317456.11401496l-.17726983.10230109c-.20733541.11948142-.36078704.33267377-.43224162.59974989-.05349332.20186895-.1827363.3705486-.36391074.474802-.1187005.06872135-.25419088.10503433-.39085264.10503433z" fill="url(#g)"/></g><g clip-path="url(#b)"><path d="m-10.35784 5.52842845c-.06130256 0-.12338604-.00702832-.18468861-.02108496-.28659923-.06559764-.51345775-.29362755-.57866493-.58022678-.06520719-.2869897.02498958-.57319847.24130562-.76569632.17219382-.15345164.27098075-.39514772.27098075-.66300477v-.16555596c0-.26785705-.09878693-.50955313-.27098075-.66300477-.21592558-.19249785-.30612234-.47870662-.24130562-.76569632.06520718-.28659923.2920657-.51462914.57866493-.58022678.06130257-.01405664.12338605-.02108496.18468861-.02108496.43224163 0 .78404804.35180642.78404804.78404804 0 .20889726-.08160659.40490927-.22920129.55250397-.19562155.19523109-.30338911.4345844-.30338911.67393771v.20460218c0 .23935331.10776756.47870662.30338911.67393771.14798516.1475947.22920129.34360671.22920129.55250397 0 .20928772-.08160659.40608066-.22959175.55445628-.14798517.14798517-.34516856.22959176-.55445629.22959176z" fill="url(#h)"/></g><g clip-path="url(#b)"><path d="m-8.05801781 4.21413278c-.13744268 0-.27293305-.03631298-.39202402-.10503432-.24169608-.13978546-.39202402-.39983327-.39202402-.67901372s.15032794-.53922826.39202402-.67901372c.11909097-.06872134.25458134-.10503432.39202402-.10503432.13744269 0 .27293306.03631298.39202402.10503432.24169609.13978546.39202402.39983327.39202402.67901372s-.15032793.53922826-.39202402.67901372c-.11909096.06872134-.25458133.10503432-.39202402.10503432z" fill="url(#i)"/></g><g clip-path="url(#b)"><path d="m-5.75741469 8.18435214c-.07653059 0-.15188979-.0113234-.22373483-.03357974-.28113276-.08707307-.48378263-.30807466-.54235195-.59155019-.04685546-.22568714-.20655449-.43224163-.43848902-.56617015l-.14329962-.08277798c-.15188978-.08746353-.31588389-.13392853-.474802-.13392853-.08160659 0-.16087041.01249479-.23505823.03709391-.07965428.02655143-.16282272.03982714-.24638163.03982714-.19757386 0-.3881194-.07574966-.53727594-.21397327-.21553512-.19991663-.29948449-.51033406-.21319235-.79107636.10347248-.33657839.40608066-.56265599.75359199-.56265599.13666176 0 .27215213.03631298.3912431.10503432.18078398.10464387.31002696.27293306.36391074.47480201.07106412.26707612.22451575.479878.43185116.59974989l.17726983.10230109c.13119529.07574966.28035184.11401495.44317456.11401495.09566324 0 .19366924-.01327571.29206571-.03982714.06637857-.01796126.13509991-.02694189.20382125-.02694189.1362713 0 .27098075.03631299.38929079.10464387.20811633.12026234.34790179.32525498.38343385.56304645.03553206.23779146-.03982714.47714477-.20694495.65714783-.14486147.15540395-.35180642.24481978-.56812246.24481978z" fill="url(#j)"/></g><g clip-path="url(#b)"><path d="m-3.4720396 6.86341862c-.07653059 0-.15188979-.01132341-.22373482-.03357975-.28113277-.08707306-.48378264-.30807465-.54235196-.59155019-.04685546-.22568714-.20655449-.43224162-.43887948-.56617015l-.14329962-.08277798c-.15188978-.08746353-.3158839-.13392852-.474802-.13392852-.08160659 0-.16087041.01249478-.23505823.0370939-.08004474.02655143-.16282272.03982714-.24638163.03982714-.19718339 0-.3881194-.07574966-.53688548-.21397327-.21592558-.19991663-.29948449-.51033406-.21319235-.79107636.10347248-.33657839.40608066-.56265599.75359199-.56265599.13666176 0 .27215214.03631299.3912431.10503433.18078398.10464386.31002696.27293306.36391074.474802.07106412.26707612.22451575.47987801.43185116.59974989l.17726983.10230109c.13119529.07574966.28035184.11401496.44317456.11401496.09566324 0 .1940597-.01327572.29245617-.03982714.06637857-.01796126.13509991-.02694189.20382125-.02694189.1362713 0 .27098075.03631298.38929079.10464386.20811634.12026235.3479018.32525499.38343385.56304645.03553206.23779146-.03982714.47714477-.20694495.65714783-.14525193.15579441-.35219688.24481979-.56851292.24481979z" fill="url(#k)"/></g><g clip-path="url(#b)"><path d="m-5.7562433 5.5444374c-.07653059 0-.15188979-.0113234-.22373483-.03357975-.28113276-.08707306-.48378263-.30807465-.54235196-.59155019-.04685546-.22568713-.20655448-.43224162-.43887948-.56617015l-.14329961-.08277798c-.15149933-.08746352-.3158839-.13392852-.474802-.13392852-.0816066 0-.16087042.01249479-.23505823.03709391-.08004475.02655142-.16282273.03982714-.24638163.03982714-.1971834 0-.3881194-.07574966-.53688549-.21397327-.21592558-.19991663-.29948448-.51033406-.21319234-.79107636.10347247-.33657839.40608065-.56265599.75359199-.56265599.13666176 0 .27215213.03631298.39124309.10503432.18078399.1042534.31002697.27293306.36391075.474802.07145457.26707613.22490621.47987801.43224162.5997499l.17726983.10230109c.13119529.07574966.28035184.11401495.44317456.11401495.09566323 0 .19366924-.01327571.29206571-.03982714.06637857-.01796126.13509991-.02694189.20382125-.02694189.13588084 0 .27059029.03631298.38929079.10464386.20811633.12026235.34790179.32525499.38343385.56304645.03553206.23779147-.03982714.47714478-.20694495.65714784-.14525193.15579441-.35219688.24481978-.56851292.24481978z" fill="url(#l)"/></g><g clip-path="url(#b)"><path d="m-3.48804855 6.87161832c-.21631604 0-.42326099-.08902537-.56812246-.24442932-.16711781-.18000306-.24286747-.41935637-.20694495-.65714783.03553206-.23779146.17531751-.44278411.38343385-.56304645.1187005-.06833088.25340995-.10464387.38929079-.10464387.06872134 0 .13705222.00898063.20382125.02694189.09839647.02655143.19679294.03982715.29206571.03982715.16282272 0 .31197927-.0382653.44317456-.11401496l.17726983-.10230109c.20733541-.11948142.36078704-.33267377.43185116-.59974989.05388378-.20186895.18312676-.3705486.36391074-.474802.11909096-.06872135.25458134-.10503433.3912431-.10503433.34712087 0 .65011951.2260776.75359199.56226553.08629214.28113276.00234277.59155019-.21319235.79107636-.14876608.13783315-.33970209.21397327-.53688548.21397327-.08394937 0-.16672735-.01327572-.24677209-.03982714-.07418782-.02459912-.15306118-.03709391-.23466777-.03709391-.1589181 0-.32330268.04607454-.474802.13392853l-.14329962.08277798c-.23232499.13392852-.39202402.34048301-.43887948.56617015-.05856932.28347553-.26121919.50447712-.54235195.59155019-.07184504.02225634-.14720424.03357974-.22373483.03357974z" fill="url(#m)"/></g><g clip-path="url(#b)"><path d="m-3.47438237 4.20632354c-.13744269 0-.27293306-.03631298-.39202402-.10503433-.24169609-.13978545-.39202402-.39983326-.39202402-.67901371 0-.27918046.15032793-.53922826.39202402-.67901372.11909096-.06872134.25458133-.10503432.39202402-.10503432.13744268 0 .27293305.03631298.39202402.10503432.24169608.13978546.39202402.39983326.39202402.67901372 0 .27918045-.15032794.53922826-.39202402.67901371-.11909097.06872135-.25458134.10503433-.39202402.10503433z" fill="url(#n)"/></g><g clip-path="url(#b)"><path d="m-1.18822636 2.88773278c-.43224162 0-.78365758-.35180641-.78365758-.78365757 0-.20889727.08121614-.40490928.2292013-.55250398.19562155-.19523108.30338911-.43458439.30338911-.67393771v-.20460217c0-.23935331-.10776756-.47870663-.30338911-.67393771-.14798516-.1475947-.2292013-.34360671-.2292013-.55250397 0-.43224163.35180642-.78365758.78365758-.78365758.06130256 0 .12338605.00702832.18468861.02108495.28659923.06559765.51345775.29362756.57866494.58022679.06520718.2869897-.02498958.57319847-.24130562.76569632-.17219382.15345163-.27098075.39514772-.27098075.66300477v.16555596c0 .26785705.09878693.50955313.27098075.66300477.21592558.19249785.30612234.47870662.24130562.76569631-.06520719.28659924-.29206571.51462915-.57866494.58022679-.06130256.01327572-.12338605.02030403-.18468861.02030403z" fill="url(#o)"/></g><g clip-path="url(#b)"><path d="m-3.47477284 1.56914203c-.43224162 0-.78404804-.35180642-.78404804-.78404804 0-.20889726.0816066-.40490927.2292013-.55250397.19562155-.19523109.30338911-.4345844.30338911-.67393771v-.20460218c0-.23935331-.10776756-.47870662-.30338911-.67393771-.14798516-.1475947-.2292013-.34399717-.2292013-.55250397 0-.43224163.35180642-.78404804.78404804-.78404804.06130257 0 .12338605.00702832.18468861.02108496.28659924.0659881.51345776.29362755.57866494.58022678.06520718.2869897-.02498958.57319847-.24130562.76569632-.17219382.15345163-.27098075.39514772-.27098075.66300477v.16555596c0 .26785705.09878693.50955313.27098075.66300477.21592558.19249785.30612234.47870662.24130562.76569632-.06520718.28659923-.2920657.51462914-.57866494.58022678-.06130256.01366618-.12338604.02108496-.18468861.02108496z" fill="url(#p)"/></g><g clip-path="url(#b)"><path d="m-3.46032574-1.07936288c-.13705222 0-.27215213-.03631298-.39124309-.10503432-.18078399-.1042534-.31002697-.27293306-.36391075-.47480201-.07145457-.26707612-.22490621-.479878-.43224162-.59974989l-.17726983-.10230109c-.13119528-.07574966-.28035183-.11401495-.44317456-.11401495-.09566323 0-.19366924.01327571-.2920657.03982714-.06637857.01796126-.13509992.02694189-.20382126.02694189-.1362713 0-.27059028-.03631298-.38929078-.10464386-.20811634-.12026235-.3479018-.32525499-.38343386-.56304646-.03553205-.23779146.03982715-.47714477.20694496-.65714783.144471-.15540395.35180641-.24442932.56812245-.24442932.07653059 0 .15188979.0113234.22373483.03357975.28113276.08707306.48378263.30807465.54235196.59155019.04685546.22607759.20655448.43224162.43887948.56617015l.14329961.08277798c.15149933.08746352.3158839.13392852.474802.13392852.0816066 0 .16087042-.01249479.23505823-.03709391.07965428-.02655142.16282273-.03982714.24638163-.03982714.1971834 0 .3881194.07614013.53688549.21397327.21592558.19991663.29948448.51033406.21319234.79107636-.10308201.33657839-.40608065.56226553-.75320153.56226553z" fill="url(#q)"/></g></g><path d="m5.9841734 4.6044315h-1.5172453l-.3474609-1.1890879h-1.9033127l-.3744856 1.1890879h-1.22383407l1.91875567-5.9377184h1.6099016zm-2.1928635-2.3164051-.6061261-2.03457577-.6215686 2.03457577zm4.2621863 2.3164051h-1.4014252v-5.9377184h1.4014252zm3.1116988-1.7952139h-2.2507745v-1.0539643h2.2507745zm5.397223 1.7952139h-1.416869v-2.424504h-1.826099v2.424504h-1.397564l.0039-5.9377184h1.409146v2.3704546h1.818382v-2.3704546h1.409147zm5.177164 0h-4.22744v-5.9377184h4.22744v1.18908803h-2.837596v1.18136657h2.216028v1.1427598h-2.239192v1.2354161h2.86076zm5.61729-2.922531q0 1.2701621-.775997 2.0963466-.772135.8261844-1.99597.8261844h-2.100206v-5.9377184h1.992108q1.393703 0 2.161978.86479133.718087.81074174.718087 2.15039607zm-1.405287-.054049q0-.72580698-.351322-1.22383406-.386067-.54821591-1.03466-.54821591h-.660176v3.55954207h.671758q.637011 0 1.023078-.5559372.351322-.5057485.351322-1.2315553z" stroke-width="2.79283"/></g></svg>