<?xml version="1.0" encoding="UTF-8" standalone="no"?>
<svg
   version="1.1"
   viewBox="0 0 48.84334723751565 16.79951931789921"
   id="svg49"
   sodipodi:docname="ai-hed-logo-shorthand-default-black.svg"
   inkscape:version="1.3.2 (091e20e, 2023-11-25)"
   xmlns:inkscape="http://www.inkscape.org/namespaces/inkscape"
   xmlns:sodipodi="http://sodipodi.sourceforge.net/DTD/sodipodi-0.dtd"
   xmlns="http://www.w3.org/2000/svg"
   xmlns:svg="http://www.w3.org/2000/svg">
  <sodipodi:namedview
     id="namedview49"
     pagecolor="#ffffff"
     bordercolor="#000000"
     borderopacity="0.25"
     inkscape:showpageshadow="2"
     inkscape:pageopacity="0.0"
     inkscape:pagecheckerboard="0"
     inkscape:deskcolor="#d1d1d1"
     inkscape:zoom="11.450332"
     inkscape:cx="18.602081"
     inkscape:cy="13.274724"
     inkscape:window-width="1472"
     inkscape:window-height="863"
     inkscape:window-x="0"
     inkscape:window-y="37"
     inkscape:window-maximized="0"
     inkscape:current-layer="g19"
     showguides="true">
    <sodipodi:guide
       position="40.43551,12.869502"
       orientation="0,-1"
       id="guide1"
       inkscape:locked="false" />
    <sodipodi:guide
       position="35.195487,3.6994619"
       orientation="0,-1"
       id="guide2"
       inkscape:locked="false" />
    <sodipodi:guide
       position="33.972815,7.7168128"
       orientation="0,-1"
       id="guide3"
       inkscape:locked="false" />
    <sodipodi:guide
       position="18.602081,14.441509"
       orientation="0,-1"
       id="guide4"
       inkscape:locked="false" />
    <sodipodi:guide
       position="13.012724,-13.679948"
       orientation="1,0"
       id="guide5"
       inkscape:locked="false" />
    <sodipodi:guide
       position="22.008096,2.3894562"
       orientation="0,-1"
       id="guide33"
       inkscape:locked="false" />
    <sodipodi:guide
       position="2.2706766,20.81687"
       orientation="1,0"
       id="guide34"
       inkscape:locked="false" />
  </sodipodi:namedview>
  <g
     transform="matrix(1,0,0,1,13.464768153151956,6.296465377699606)"
     id="g19">
    <g
       clip-path="url(#SvgjsClipPath1002)"
       id="g16"
       inkscape:label="icon"
       style="fill:#000000">
      <g
         clip-path="url(#SvgjsClipPath1000dff91d8c-420c-44a7-a374-d2999ab675af)"
         id="g1"
         style="fill:#000000">
        <path
           d=" M -5.773033178131925 0.2407897222392572 C -5.910475862570453 0.2407897222392572 -6.0459662361504805 0.20447674027112228 -6.165057198519091 0.13575539805185866 C -6.406753282801617 -0.004030059416872511 -6.557081218906259 -0.2640778657693157 -6.557081218906259 -0.5432583185350763 C -6.557081218906259 -0.8224387713008374 -6.406753282801617 -1.082486577653281 -6.165057198519091 -1.2222720351220109 C -6.045966236150479 -1.290993377341275 -5.910475862570453 -1.3273063593094099 -5.773033178131925 -1.3273063593094099 C -5.635590493693395 -1.3273063593094099 -5.500100120113369 -1.290993377341275 -5.381009157744757 -1.2222720351220109 C -5.1393130734622305 -1.0824865776532797 -4.98898513735759 -0.8224387713008365 -4.98898513735759 -0.5432583185350763 C -4.98898513735759 -0.2640778657693148 -5.1393130734622305 -0.004030059416871623 -5.381009157744757 0.13575539805185866 C -5.499709657941669 0.20447674027112228 -5.635590493693395 0.2407897222392572 -5.773033178131925 0.2407897222392572 Z"
           fill="url(#gradient-92c3a873-f982-4296-86bc-740686b5c2e0_0)"
           transform="matrix(1,0,0,1,0,0)"
           fill-rule="nonzero"
           id="path1"
           style="fill:#000000" />
      </g>
      <g
         clip-path="url(#SvgjsClipPath1000dff91d8c-420c-44a7-a374-d2999ab675af)"
         id="g2"
         style="fill:#000000">
        <path
           d=" M -10.359011384752716 0.2489894278449638 C -10.706522717566042 0.2489894278449638 -11.009130900633824 0.022911830430452085 -11.112603376134421 -0.31366656157526274 C -11.198895516080201 -0.5944088630278253 -11.114946149164624 -0.905216751701317 -10.899411030386021 -1.1047429214402031 C -10.750644942968183 -1.242576068050432 -10.559708941006704 -1.318716191532003 -10.36252554429802 -1.318716191532003 C -10.27857617738244 -1.318716191532003 -10.195798196981963 -1.3054404776941904 -10.11575345178339 -1.2788890500185648 C -10.04156563916032 -1.2542899332014423 -9.962692280476846 -1.241795143707031 -9.881085686591469 -1.241795143707031 C -9.722167582709421 -1.241795143707031 -9.558173470595266 -1.2878696799676734 -9.406283685803825 -1.3757236686002567 L -9.262984068789791 -1.458501649000734 C -9.030659076628075 -1.5924301738939595 -8.870960048402624 -1.7989846627234525 -8.824495049970281 -2.0246717979662634 C -8.765925724215228 -2.3081473346207293 -8.562885394931037 -2.5291489238031355 -8.282143093478474 -2.616221988092317 C -8.210298053885607 -2.6384783318792384 -8.134938854747435 -2.6498017348585496 -8.058408269094166 -2.6498017348585496 C -7.842092225972163 -2.6498017348585496 -7.634756812799269 -2.5607763597108666 -7.490285809270134 -2.4053724153741207 C -7.3231679997823775 -2.2257598163919536 -7.247418338472507 -1.9864065051396294 -7.283340858268939 -1.748224580402407 C -7.318872915893673 -1.5104331178368842 -7.458658373362404 -1.3054404776941921 -7.666774710878698 -1.1851781288104801 C -7.7854752110756085 -1.1168472487629164 -7.920184660312236 -1.0805342667947824 -8.056065496063962 -1.0805342667947824 L -8.056065496063962 -1.0805342667947824 C -8.124786838283226 -1.0805342667947824 -8.19311771833079 -1.0895148967438906 -8.259886749691553 -1.1074761566421074 C -8.358283216960047 -1.134027584317732 -8.456679684228536 -1.147303298155545 -8.551952454123425 -1.147303298155545 C -8.714775179722478 -1.147303298155545 -8.863931729312018 -1.1090380053289093 -8.995127019003341 -1.0332883440190388 L -9.172396844955307 -0.9309872550335423 C -9.3797322581282 -0.811505830493231 -9.533183891606445 -0.5983134847448306 -9.60424800685591 -0.33123735930178233 C -9.65813178655056 -0.12936841653269404 -9.787374765383381 0.03931124164186528 -9.96815875088065 0.14356464148586223 C -10.086859251077561 0.21267644587683066 -10.222349624657587 0.2489894278449638 -10.359011384752716 0.2489894278449638 Z"
           fill="url(#gradient-92c3a873-f982-4296-86bc-740686b5c2e0_1)"
           transform="matrix(1,0,0,1,0,0)"
           fill-rule="nonzero"
           id="path2"
           style="fill:#000000" />
      </g>
      <g
         clip-path="url(#SvgjsClipPath1000dff91d8c-420c-44a7-a374-d2999ab675af)"
         id="g3"
         style="fill:#000000">
        <path
           d=" M -3.454468802575154 4.2199897140376805 C -3.530999388228426 4.2199897140376805 -3.6063585873665955 4.208666311058369 -3.6782036269594647 4.186409967271448 C -3.9593363905837267 4.099336902982266 -4.161986257696218 3.8783353137998615 -4.220555583451271 3.5948597771453947 C -4.267411044055314 3.369172641902586 -4.427110072280766 3.1626181530730912 -4.659435064442482 3.0286896281798654 L -4.802734681456519 2.945911647779389 C -4.95462446624796 2.8584481213185065 -5.1186185783621125 2.8119831228861614 -5.277536682244163 2.8119831228861614 C -5.359143276129539 2.8119831228861614 -5.4384070969847125 2.8244779123805746 -5.5122044474360825 2.849077029197697 C -5.592249192634658 2.875628456873322 -5.675027173035135 2.8889041707111334 -5.758976539950713 2.8889041707111334 L -5.758976539950713 2.8889041707111334 C -5.956159936659398 2.8889041707111334 -6.147095938620876 2.812764047229562 -6.295862026038716 2.674930900619332 C -6.511787606989017 2.475404730880445 -6.595346511732896 2.164596842206956 -6.509054371787116 1.8838545407543918 C -6.4055818962865185 1.5472761487486775 -6.102973713218734 1.3211985513341666 -5.755462380405409 1.3211985513341666 C -5.618800620310281 1.3211985513341666 -5.483310246730255 1.3575115333022998 -5.364219284361643 1.4262328755215634 C -5.1834352988643735 1.5304862753655613 -5.054192320031552 1.6991659335401206 -5.000308540336903 1.9010348763092093 C -4.9288539629157375 2.1681110017522585 -4.775402329437492 2.3813033475006575 -4.568066916264598 2.50078477204097 L -4.39079709031263 2.603085861026466 C -4.259601800621308 2.6788355223363363 -4.110445251031768 2.717100815162974 -3.947622525432716 2.717100815162974 C -3.851959293366126 2.717100815162974 -3.7539532882693365 2.7038251013251626 -3.6555568210008422 2.6772736736495375 C -3.58917825181178 2.65931241375132 -3.5204569095925162 2.650331783802211 -3.45173556737325 2.650331783802211 C -3.315464269449822 2.650331783802211 -3.1807548202131963 2.686644765770347 -3.0624447821879848 2.7549756458179093 C -2.8543284446716903 2.875237994701622 -2.714542987202959 3.0802306348443143 -2.679010929578226 3.3180220974098367 C -2.6434788719534925 3.555813559975359 -2.718838071091664 3.7951668712276847 -2.88595588057942 3.9751699323815517 C -3.030817346280257 4.130573876718298 -3.237762297281452 4.2199897140376805 -3.454468802575154 4.2199897140376805 Z"
           fill="url(#gradient-92c3a873-f982-4296-86bc-740686b5c2e0_2)"
           transform="matrix(1,0,0,1,0,0)"
           fill-rule="nonzero"
           id="path3"
           style="fill:#000000" />
      </g>
      <g
         clip-path="url(#SvgjsClipPath1000dff91d8c-420c-44a7-a374-d2999ab675af)"
         id="g4"
         style="fill:#000000">
        <path
           d=" M -3.4712586759582713 1.5714848033941013 C -3.547789261611541 1.5714848033941013 -3.6231484607497126 1.5601614004147928 -3.69499350034258 1.5379050566278707 C -3.976126263966843 1.4508319923386894 -4.178776131079333 1.2298304031562832 -4.237345456834388 0.9463548665018164 C -4.283810455266732 0.7206677312590051 -4.443899945663882 0.514113242429513 -4.675834475653899 0.38018471753628535 L -4.819134092667934 0.297406737135808 C -4.971023877459375 0.20994321067492638 -5.135017989573528 0.1634782122425822 -5.293936093455578 0.1634782122425822 C -5.375542687340954 0.1634782122425822 -5.45480650819613 0.1759730017369936 -5.528603858647498 0.20057211855411694 C -5.608648603846074 0.22712354622974207 -5.691426584246551 0.2403992600675542 -5.775375951162129 0.2403992600675542 L -5.775375951162129 0.2403992600675542 C -5.9725593478708126 0.2403992600675542 -6.163495349832292 0.1642591365859838 -6.312261437250132 0.026425989975754405 C -6.528187018200433 -0.17310017976313263 -6.611745922944312 -0.48390806843662215 -6.525453782998531 -0.7646503698891856 C -6.421981307497934 -1.1012287618949008 -6.119373124430152 -1.3269158971377117 -5.771861791616825 -1.3269158971377117 C -5.635200031521697 -1.3269158971377117 -5.499709657941671 -1.2906029151695777 -5.380618695573059 -1.221881572950314 C -5.19983471007579 -1.1172377109346154 -5.07059173124297 -0.9489485149317574 -5.016707951548318 -0.7470795721626686 C -4.9452533741271525 -0.4800034467196186 -4.792192202820609 -0.2668111009712191 -4.584856789647715 -0.1473296764309091 L -4.407586963695748 -0.045028587445412604 C -4.276391674004425 0.030721073864458326 -4.127235124414884 0.06898636669109415 -3.9644123988158313 0.06898636669109415 C -3.868749166749244 0.06898636669109415 -3.770743161652452 0.05571065285328114 -3.6723466943839576 0.029159225177656012 C -3.605968125194895 0.01119796527943917 -3.5372467829756324 0.002217335330331416 -3.4685254407563653 0.002217335330331416 C -3.3322541428329373 0.002217335330331416 -3.1975446935963117 0.03853031729846457 -3.079234655571099 0.10686119734602872 C -2.8711183180548066 0.22712354622974207 -2.7313328605860754 0.43211618637243454 -2.6958008029613403 0.6699076489379561 C -2.660268745336607 0.9076991115034785 -2.7356279444747784 1.1470524227558032 -2.9027457539625363 1.327055483909671 C -3.047607219663373 1.4820689660747188 -3.2545521706645673 1.5714848033941013 -3.4712586759582713 1.5714848033941013 Z"
           fill="url(#gradient-92c3a873-f982-4296-86bc-740686b5c2e0_3)"
           transform="matrix(1,0,0,1,0,0)"
           fill-rule="nonzero"
           id="path4"
           style="fill:#000000" />
      </g>
      <g
         clip-path="url(#SvgjsClipPath1000dff91d8c-420c-44a7-a374-d2999ab675af)"
         id="g5"
         style="fill:#000000">
        <path
           d=" M -10.357839998237615 2.888513708539435 C -10.70496086887924 2.888513708539435 -11.007959514118724 2.662436111124922 -11.11143198961932 2.326248181290908 C -11.1977241295651 2.0451154176666453 -11.113774762649522 1.734697991164854 -10.898239643870921 1.53517182142597 C -10.749473556453081 1.3973386748157397 -10.558537554491602 1.3211985513341684 -10.361354157782918 1.3211985513341684 C -10.27740479086734 1.3211985513341684 -10.194626810466861 1.3344742651719814 -10.114582065268287 1.3610256928476065 C -10.040394252645218 1.385624809664729 -9.961520893961744 1.3981195991591422 -9.879914300076369 1.3981195991591422 C -9.72099619619432 1.3981195991591422 -9.557002084080166 1.3520450628984975 -9.405112299288724 1.2641910742659164 L -9.261812682274691 1.1814130938654381 C -9.029487690112974 1.0474845689722123 -8.869788661887524 0.8409300801427193 -8.82293320128348 0.615242944899907 C -8.764363875528424 0.33176740824544204 -8.561714008415935 0.11076581906303584 -8.280581244791673 0.023692754773853686 C -8.208736205198804 0.0014364109869329234 -8.133377006060634 -0.009886991992377858 -8.056846420407364 -0.009886991992377858 C -7.840530377285361 -0.009886991992377858 -7.633585426284167 0.07913838315530519 -7.4887239605833305 0.23454232749204973 C -7.321606151095574 0.4145453886459185 -7.245856489785704 0.6538986998982423 -7.281779009582136 0.8916901624637648 C -7.31731106720687 1.1294816250292872 -7.457096524675602 1.3344742651719796 -7.665212862191895 1.454736614055692 C -7.783913362388807 1.5230674941032545 -7.918622811625433 1.5593804760713903 -8.05450364737716 1.5593804760713903 L -8.05450364737716 1.5593804760713903 C -8.123224989596423 1.5593804760713903 -8.191555869643988 1.5503998461222812 -8.258324901004752 1.532438586224064 C -8.356721368273243 1.5058871585484388 -8.455117835541735 1.4926114447106276 -8.550390605436624 1.4926114447106276 C -8.713213331035675 1.4926114447106276 -8.862369880625216 1.5308767375372616 -8.993565170316538 1.6066263988471334 L -9.170834996268503 1.7089274878326295 C -9.378170409441399 1.8284089123729421 -9.531622042919642 2.041601258121341 -9.603076620340808 2.3086773835643903 C -9.65656993786376 2.510546326333479 -9.78581291669658 2.6792259845080357 -9.966987364365547 2.7834793843520345 C -10.08568786456246 2.8522007265713016 -10.221178238142487 2.888513708539435 -10.357839998237615 2.888513708539435 Z"
           fill="url(#gradient-92c3a873-f982-4296-86bc-740686b5c2e0_4)"
           transform="matrix(1,0,0,1,0,0)"
           fill-rule="nonzero"
           id="path5"
           style="fill:#000000" />
      </g>
      <g
         clip-path="url(#SvgjsClipPath1000dff91d8c-420c-44a7-a374-d2999ab675af)"
         id="g6"
         style="fill:#000000">
        <path
           d=" M -10.357839998237615 5.528428451405606 C -10.419142559194572 5.528428451405606 -10.48122604449493 5.521400132315 -10.542528605451889 5.507343494133787 C -10.829127839479955 5.441745849288123 -11.055986361237869 5.2137159410151135 -11.12119354391183 4.927116706987041 C -11.186400726585791 4.640127010787273 -11.096203964923006 4.3539182389309055 -10.879887921801004 4.161420388282627 C -10.707694104081144 4.007968754804381 -10.608907174640951 3.7662726705218565 -10.608907174640951 3.498415620735405 L -10.608907174640951 3.3328596599344484 C -10.608907174640951 3.0650026101479977 -10.707694104081144 2.823306525865471 -10.879887921801004 2.669854892387227 C -11.095813502751305 2.477357041738948 -11.18601026441409 2.1911482698825804 -11.12119354391183 1.9041585736828113 C -11.055986361237869 1.6175593396547425 -10.829127839479955 1.389529431381729 -10.542528605451889 1.3239317865360665 C -10.481226044494932 1.3098751483548536 -10.419142559194572 1.3028468292642463 -10.357839998237615 1.3028468292642463 C -9.925598374165311 1.3028468292642463 -9.573791957463284 1.6546532459662764 -9.573791957463284 2.0868948700385817 C -9.573791957463284 2.2957921318982777 -9.655398551348659 2.491804142091861 -9.802993252251397 2.6393988429945985 C -9.99861480027328 2.8346299288447803 -10.106382359662582 3.073983240097104 -10.106382359662582 3.313336551349429 L -10.106382359662582 3.517938729320421 C -10.106382359662582 3.757292040572744 -9.99861480027328 3.9966453518250677 -9.802993252251397 4.191876437675251 C -9.65500808917696 4.339471138577988 -9.573791957463284 4.535483148771572 -9.573791957463284 4.744380410631267 C -9.573791957463284 4.953668134662664 -9.655398551348659 5.150461069199647 -9.803383714423097 5.298836694445786 C -9.951368877497535 5.446821857520229 -10.148552274206219 5.528428451405606 -10.357839998237615 5.528428451405606 L -10.357839998237615 5.528428451405606 Z"
           fill="url(#gradient-92c3a873-f982-4296-86bc-740686b5c2e0_5)"
           transform="matrix(1,0,0,1,0,0)"
           fill-rule="nonzero"
           id="path6"
           style="fill:#000000" />
      </g>
      <g
         clip-path="url(#SvgjsClipPath1000dff91d8c-420c-44a7-a374-d2999ab675af)"
         id="g7"
         style="fill:#000000">
        <path
           d=" M -8.058017806922464 4.214132781462176 C -8.195460491360993 4.214132781462176 -8.33095086494102 4.177819799494042 -8.45004182730963 4.1090984572747775 C -8.691737911592156 3.9693129998060463 -8.842065847696798 3.7092651934536027 -8.842065847696798 3.4300847406878425 C -8.842065847696798 3.1509042879220814 -8.691737911592156 2.890856481569638 -8.45004182730963 2.7510710241009075 C -8.330950864941018 2.682349681881644 -8.195460491360992 2.646036699913509 -8.058017806922464 2.646036699913509 C -7.9205751224839345 2.646036699913509 -7.785084748903907 2.682349681881644 -7.665993786535297 2.7510710241009075 C -7.424297702252771 2.890856481569638 -7.27396976614813 3.1509042879220814 -7.27396976614813 3.4300847406878425 C -7.27396976614813 3.7092651934536027 -7.424297702252771 3.9693129998060463 -7.665993786535297 4.1090984572747775 C -7.785084748903907 4.177819799494042 -7.9205751224839345 4.214132781462176 -8.058017806922464 4.214132781462176 Z"
           fill="url(#gradient-92c3a873-f982-4296-86bc-740686b5c2e0_6)"
           transform="matrix(1,0,0,1,0,0)"
           fill-rule="nonzero"
           id="path7"
           style="fill:#000000" />
      </g>
      <g
         clip-path="url(#SvgjsClipPath1000dff91d8c-420c-44a7-a374-d2999ab675af)"
         id="g8"
         style="fill:#000000">
        <path
           d=" M -5.757414691263909 8.184352143311491 C -5.833945276917181 8.184352143311491 -5.90930447605535 8.173028740332182 -5.981149515648218 8.15077239654526 C -6.262282279272481 8.063699332256078 -6.464932146384971 7.842697743073671 -6.523501472140025 7.559222206419207 C -6.57035693274407 7.333535071176398 -6.730055960969518 7.126980582346903 -6.961990490959535 6.993052057453678 L -7.105290107973569 6.910274077053199 C -7.257179892765011 6.822810550592317 -7.421174004879164 6.776345552159974 -7.580092108761213 6.776345552159974 C -7.661698702646591 6.776345552159974 -7.740962523501764 6.788840341654385 -7.815150336124834 6.813439458471509 C -7.894804619151708 6.839990886147135 -7.977973061723885 6.853266599984945 -8.061531966467765 6.853266599984945 C -8.25910582534815 6.853266599984945 -8.449651365137928 6.777516938675074 -8.598807914727468 6.639293329893144 C -8.81434303350607 6.439376697982556 -8.898292400421646 6.128959271480765 -8.812000260475866 5.8482169700282025 C -8.708527784975269 5.51163857802249 -8.405919601907486 5.2855609806079755 -8.05840826909416 5.2855609806079755 C -7.921746508999033 5.2855609806079755 -7.786256135419006 5.32187396257611 -7.667165173050395 5.390595304795374 C -7.486381187553126 5.495239166811073 -7.357138208720304 5.663528362813931 -7.303254429025654 5.865397305583018 C -7.232190313776188 6.132473431026067 -7.078738680297945 6.34527531460277 -6.87140326712505 6.465147201314782 L -6.694133441173085 6.567448290300279 C -6.562938151481761 6.643197951610148 -6.413781601892222 6.681463244436786 -6.250958876293169 6.681463244436786 C -6.155295644226582 6.681463244436786 -6.057289639129788 6.668187530598974 -5.958893171861297 6.641636102923348 C -5.892514602672235 6.623674843025132 -5.82379326045297 6.614694213076023 -5.755071918233707 6.614694213076023 C -5.618800620310277 6.614694213076023 -5.4840911710736515 6.651007195044157 -5.365781133048442 6.719338075091722 C -5.157664795532146 6.839600423975433 -5.017879338063414 7.044593064118125 -4.982347280438683 7.282384526683648 C -4.946815222813948 7.5201759892491715 -5.022174421952119 7.759529300501496 -5.189292231439876 7.939532361655363 C -5.334153697140713 8.094936305992107 -5.541098648141907 8.184352143311491 -5.757414691263909 8.184352143311491 Z"
           fill="url(#gradient-92c3a873-f982-4296-86bc-740686b5c2e0_7)"
           transform="matrix(1,0,0,1,0,0)"
           fill-rule="nonzero"
           id="path8"
           style="fill:#000000" />
      </g>
      <g
         clip-path="url(#SvgjsClipPath1000dff91d8c-420c-44a7-a374-d2999ab675af)"
         id="g9"
         style="fill:#000000">
        <path
           d=" M -3.4720396003016694 6.863418616449156 C -3.548570185954941 6.863418616449156 -3.6239293850931134 6.852095213469845 -3.69577442468598 6.829838869682925 C -3.9769071883102427 6.742765805393741 -4.179557055422733 6.521764216211336 -4.238126381177787 6.23828867955687 C -4.284981841781832 6.012601544314062 -4.444680870007282 5.806047055484568 -4.677005862169 5.672118530591341 L -4.820305479183034 5.5893405501908635 C -4.972195263974475 5.501877023729982 -5.136189376088629 5.455412025297637 -5.295107479970678 5.455412025297637 C -5.376714073856054 5.455412025297637 -5.45597789471123 5.46790681479205 -5.530165707334298 5.492505931609173 C -5.610210452532875 5.519057359284798 -5.692988432933351 5.53233307312261 -5.776547337677229 5.53233307312261 C -5.973730734385913 5.53233307312261 -6.164666736347392 5.456583411812737 -6.313432823765232 5.318359803030807 C -6.529358404715533 5.118443171120221 -6.612917309459412 4.80802574461843 -6.526625169513631 4.527283443165867 C -6.423152694013035 4.190705051160153 -6.12054451094525 3.9646274537456403 -5.773033178131925 3.9646274537456403 C -5.636371418036797 3.9646274537456403 -5.500881044456771 4.000940435713774 -5.381790082088159 4.069661777933039 C -5.20100609659089 4.174305639948738 -5.07176311775807 4.342594835951594 -5.017879338063418 4.544463778720685 C -4.946815222813953 4.811539904163732 -4.793363589335708 5.024341787740434 -4.586028176162815 5.1442136744524465 L -4.4087583502108485 5.246514763437942 C -4.277563060519525 5.322264424747813 -4.128406510929985 5.360529717574449 -3.9655837853309315 5.360529717574449 C -3.8699205532643424 5.360529717574449 -3.77152408599585 5.347254003736639 -3.6731276187273583 5.320702576061011 C -3.606749049538295 5.3027413161627965 -3.5380277073190323 5.2937606862136874 -3.469306365099765 5.2937606862136874 C -3.333035067176338 5.2937606862136874 -3.1983256179397124 5.330073668181823 -3.0800155799145 5.398404548229385 C -2.8718992423982073 5.518666897113098 -2.7321137849294743 5.723659537255788 -2.696581727304741 5.961450999821313 C -2.6610496696800077 6.1992424623868345 -2.736408868818179 6.438595773639161 -2.9035266783059352 6.618598834793028 C -3.048778606178475 6.774393241301471 -3.2557235571796674 6.863418616449156 -3.4720396003016694 6.863418616449156 Z"
           fill="url(#gradient-92c3a873-f982-4296-86bc-740686b5c2e0_8)"
           transform="matrix(1,0,0,1,0,0)"
           fill-rule="nonzero"
           id="path9"
           style="fill:#000000" />
      </g>
      <g
         clip-path="url(#SvgjsClipPath1000dff91d8c-420c-44a7-a374-d2999ab675af)"
         id="g10"
         style="fill:#000000">
        <path
           d=" M -5.756243304748809 5.54443740044532 C -5.8327738904020805 5.54443740044532 -5.90813308954025 5.533113997466009 -5.9799781291331175 5.510857653679089 C -6.26111089275738 5.423784589389907 -6.463760759869871 5.2027830002075 -6.522330085624925 4.919307463553036 C -6.56918554622897 4.693620328310226 -6.728884574454418 4.4870658394807315 -6.961209566616136 4.3531373145875065 L -7.10450918363017 4.270359334187029 C -7.256008506249913 4.182895807726146 -7.420393080535765 4.1364308092938025 -7.579311184417815 4.1364308092938025 C -7.660917778303191 4.1364308092938025 -7.740181599158365 4.148925598788216 -7.814369411781435 4.173524715605337 C -7.89441415698001 4.2000761432809615 -7.977192137380488 4.213351857118774 -8.060751042124366 4.213351857118774 C -8.25793443883305 4.213351857118774 -8.44887044079453 4.137602195808903 -8.597636528212368 3.999378587026972 C -8.813562109162671 3.799461955116386 -8.897121013906547 3.4890445286145964 -8.810828873960768 3.208302227162032 C -8.70735639846017 2.8717238351563177 -8.404748215392388 2.645646237741805 -8.057236882579062 2.645646237741805 C -7.9205751224839345 2.645646237741805 -7.785084748903907 2.6819592197099382 -7.665993786535296 2.7506805619292036 C -7.485209801038026 2.8549339617732015 -7.355966822205206 3.023613619947759 -7.302083042510555 3.2254825627168495 C -7.230628465089388 3.492558688159897 -7.077176831611145 3.7053605717365983 -6.86984141843825 3.8252324584486104 L -6.692571592486286 3.9275335474341064 C -6.5613763027949625 4.0032832087439765 -6.412219753205424 4.041548501570615 -6.2493970276063715 4.041548501570615 C -6.1537337955397815 4.041548501570615 -6.055727790442989 4.028272787732803 -5.957331323174498 4.001721360057176 C -5.890952753985436 3.9837601001589604 -5.822231411766172 3.9747794702098513 -5.753510069546907 3.9747794702098513 C -5.617629233795181 3.9747794702098513 -5.482919784558555 4.011092452177987 -5.364219284361643 4.07942333222555 C -5.1561029468453485 4.199685681109262 -5.0163174893766165 4.404678321251955 -4.980785431751884 4.642469783817477 C -4.945253374127151 4.880261246382998 -5.02061257326532 5.119614557635325 -5.187730382753079 5.299617618789192 C -5.3329823106256145 5.455412025297637 -5.539927261626807 5.54443740044532 -5.756243304748809 5.54443740044532 Z"
           fill="url(#gradient-92c3a873-f982-4296-86bc-740686b5c2e0_9)"
           transform="matrix(1,0,0,1,0,0)"
           fill-rule="nonzero"
           id="path10"
           style="fill:#000000" />
      </g>
      <g
         clip-path="url(#SvgjsClipPath1000dff91d8c-420c-44a7-a374-d2999ab675af)"
         id="g11"
         style="fill:#000000">
        <path
           d=" M -3.4880485493413875 6.871618322054863 C -3.7043645924633894 6.871618322054863 -3.911309543464582 6.7825929469071795 -4.056171009165419 6.627189002570434 C -4.223288818653174 6.447185941416565 -4.299038479963047 6.207832630164242 -4.263115960166614 5.970041167598719 C -4.227583902541878 5.732249705033199 -4.087798445073148 5.527257064890506 -3.879682107556855 5.406994716006793 C -3.760981607359943 5.338663835959229 -3.6262721581233173 5.3023508539910935 -3.4903913223715897 5.3023508539910935 C -3.4216699801523243 5.3023508539910935 -3.353339100104762 5.311331483940203 -3.2865700687439965 5.329292743838419 C -3.188173601475505 5.355844171514045 -3.0897771342070133 5.369119885351857 -2.9945043643121227 5.369119885351857 C -2.8316816387130714 5.369119885351857 -2.68252508912353 5.330854592525219 -2.5513297994322066 5.2551049312153495 L -2.3740599734802412 5.1528038422298525 C -2.166724560307344 5.03332241768954 -2.013272926829101 4.8201300719411435 -1.942208811579638 4.553053946498091 C -1.8883250318849836 4.351185003729002 -1.759082053052163 4.1825053455544445 -1.578298067554897 4.078251945710447 C -1.4592071051862838 4.009530603491181 -1.3237167316062592 3.9732176215230472 -1.1870549715111292 3.9732176215230472 C -0.839934100869506 3.9732176215230472 -0.5369354556300223 4.199295218937561 -0.4334629801294252 4.535483148771572 C -0.34717084018364375 4.816615912395834 -0.43112020709922483 5.1270333388976255 -0.6466553258778216 5.326559508636512 C -0.7954214132956618 5.464392655246741 -0.9863574152571406 5.5405327787283145 -1.183540811965825 5.5405327787283145 C -1.2674901788814044 5.5405327787283145 -1.3502681592818817 5.527257064890502 -1.4303129044804574 5.500705637214878 C -1.5045007171035252 5.476106520397753 -1.5833740757870007 5.463611730903342 -1.664980669672378 5.463611730903342 C -1.8238987735544256 5.463611730903342 -1.9882833478402784 5.509686267163987 -2.139782670460022 5.597540255796568 L -2.2830822874740555 5.680318236197046 C -2.515407279635772 5.814246761090272 -2.6751063078612223 6.020801249919767 -2.721961768465267 6.246488385162575 C -2.780531094220322 6.529963921817041 -2.9831809613328115 6.750965510999448 -3.2643137249570744 6.83803857528863 C -3.3361587645499418 6.860294919075551 -3.411517963688113 6.871618322054863 -3.4880485493413875 6.871618322054863 C -3.4880485493413875 6.871618322054863 -3.4880485493413875 6.871618322054863 -3.4880485493413875 6.871618322054863 Z"
           fill="url(#gradient-92c3a873-f982-4296-86bc-740686b5c2e0_10)"
           transform="matrix(1,0,0,1,0,0)"
           fill-rule="nonzero"
           id="path11"
           style="fill:#000000" />
      </g>
      <g
         clip-path="url(#SvgjsClipPath1000dff91d8c-420c-44a7-a374-d2999ab675af)"
         id="g12"
         style="fill:#000000">
        <path
           d=" M -3.4743823733318715 4.206323538028169 C -3.6118250577703996 4.206323538028169 -3.7473154313504295 4.170010556060035 -3.866406393719039 4.10128921384077 C -4.108102478001566 3.96150375637204 -4.258430414106208 3.7014559500195956 -4.258430414106208 3.4222754972538354 C -4.258430414106208 3.143095044488075 -4.108102478001566 2.8830472381356307 -3.866406393719039 2.7432617806669004 C -3.7473154313504295 2.6745404384476377 -3.611825057770404 2.638227456479502 -3.4743823733318715 2.638227456479502 C -3.336939688893346 2.638227456479502 -3.201449315313316 2.6745404384476377 -3.082358352944704 2.7432617806669004 C -2.8406622686621787 2.8830472381356307 -2.690334332557537 3.143095044488075 -2.690334332557537 3.4222754972538354 C -2.690334332557537 3.7014559500195956 -2.8406622686621787 3.96150375637204 -3.082358352944704 4.10128921384077 C -3.201449315313316 4.170010556060035 -3.336939688893346 4.206323538028169 -3.4743823733318715 4.206323538028169 Z"
           fill="url(#gradient-92c3a873-f982-4296-86bc-740686b5c2e0_11)"
           transform="matrix(1,0,0,1,0,0)"
           fill-rule="nonzero"
           id="path12"
           style="fill:#000000" />
      </g>
      <g
         clip-path="url(#SvgjsClipPath1000dff91d8c-420c-44a7-a374-d2999ab675af)"
         id="g13"
         style="fill:#000000">
        <path
           d=" M -1.1882263580262329 2.887732784196033 C -1.6204679820985373 2.887732784196033 -1.9718839366288652 2.535926367494003 -1.9718839366288652 2.1040752055934 C -1.9718839366288652 1.8951779437337049 -1.8906678049151928 1.6991659335401206 -1.7426826418407497 1.551571232637384 C -1.5470610938188702 1.3563401467871996 -1.4392935344295665 1.1169868355348758 -1.4392935344295665 0.877633524282551 L -1.4392935344295665 0.6730313463115607 C -1.4392935344295665 0.43367803505923685 -1.5470610938188702 0.194324723806913 -1.7426826418407497 -0.0009063620432701036 C -1.8906678049151928 -0.14850106294600796 -1.9718839366288652 -0.3445130731395918 -1.9718839366288652 -0.5534103349992869 C -1.9718839366288652 -0.9856519590715918 -1.620077519926836 -1.3370679136019206 -1.1882263580262329 -1.3370679136019206 C -1.1269237970692743 -1.3370679136019206 -1.0648403117689167 -1.3300395945113137 -1.003537750811958 -1.3159829563301013 C -0.7169385167838929 -1.2503853114844397 -0.49007999502597777 -1.0223554032114257 -0.4248728123520191 -0.7357561691833587 C -0.35966562967805693 -0.4487664729835905 -0.44986239134084194 -0.16255770112722256 -0.6661784344628447 0.029940149521057613 C -0.8383722521827064 0.18339178299930214 -0.9371591816228957 0.42508786728182724 -0.9371591816228957 0.6929449170682789 L -0.9371591816228957 0.8585008778692336 C -0.9371591816228957 1.1263579276556843 -0.8383722521827064 1.3680540119382112 -0.6661784344628447 1.5215056454164548 C -0.4502528535125432 1.7140034960647341 -0.3600560918497564 2.0002122679211016 -0.4248728123520191 2.2872019641208725 C -0.49007999502597777 2.5738011981489395 -0.7169385167838929 2.801831106421952 -1.003537750811958 2.8674287512676147 C -1.0648403117689167 2.8807044651054285 -1.1269237970692743 2.887732784196033 -1.1882263580262329 2.887732784196033 C -1.1882263580262329 2.887732784196033 -1.1882263580262329 2.887732784196033 -1.1882263580262329 2.887732784196033 Z"
           fill="url(#gradient-92c3a873-f982-4296-86bc-740686b5c2e0_12)"
           transform="matrix(1,0,0,1,0,0)"
           fill-rule="nonzero"
           id="path13"
           style="fill:#000000" />
      </g>
      <g
         clip-path="url(#SvgjsClipPath1000dff91d8c-420c-44a7-a374-d2999ab675af)"
         id="g14"
         style="fill:#000000">
        <path
           d=" M -3.474772835503572 1.5691420303638992 C -3.907014459575878 1.5691420303638992 -4.258820876277905 1.2173356136618718 -4.258820876277905 0.7850939895895657 C -4.258820876277905 0.5761967277298705 -4.177214282392531 0.38018471753628713 -4.029619581489792 0.23259001663354884 C -3.8339980334679087 0.03735893078336705 -3.7262304740786076 -0.20199438046895768 -3.7262304740786076 -0.44134769172128197 L -3.7262304740786076 -0.6459498696922736 C -3.7262304740786076 -0.885303180944597 -3.8339980334679087 -1.1246564921969209 -4.029619581489792 -1.319887578047104 C -4.177604744564231 -1.4674822789498418 -4.258820876277905 -1.6638847513151256 -4.258820876277905 -1.8723915510031208 C -4.258820876277905 -2.3046331750754256 -3.907014459575878 -2.6564395917774544 -3.474772835503572 -2.6564395917774544 C -3.413470274546616 -2.6564395917774544 -3.3513867892462557 -2.649411272686848 -3.290084228289299 -2.635354634505635 C -3.003484994261232 -2.5693665274882735 -2.7766264725033185 -2.3417270813869595 -2.711419289829358 -2.055127847358892 C -2.646212107155396 -1.7681381511591243 -2.736408868818181 -1.4819293793027555 -2.9527249119401855 -1.2894315286544749 C -3.124918729660047 -1.1359798951762312 -3.223705659100238 -0.8942838108937048 -3.223705659100238 -0.6264267611072545 L -3.223705659100238 -0.4608708003062998 C -3.223705659100238 -0.1930137505198486 -3.124918729660047 0.04868233376267739 -2.9527249119401855 0.20213396724092014 C -2.736799330989884 0.3946318178892003 -2.646602569327097 0.6808405897455678 -2.711419289829358 0.9678302859453387 C -2.7766264725033185 1.2544295199734057 -3.003484994261232 1.482459428246421 -3.290084228289299 1.5480570730920808 C -3.351386789246259 1.5617232491015924 -3.413470274546616 1.5691420303638992 -3.474772835503572 1.5691420303638992 L -3.474772835503572 1.5691420303638992 Z"
           fill="url(#gradient-92c3a873-f982-4296-86bc-740686b5c2e0_13)"
           transform="matrix(1,0,0,1,0,0)"
           fill-rule="nonzero"
           id="path14"
           style="fill:#000000" />
      </g>
      <g
         clip-path="url(#SvgjsClipPath1000dff91d8c-420c-44a7-a374-d2999ab675af)"
         id="g15"
         style="fill:#000000">
        <path
           d=" M -3.4603257351506587 -1.0793628802796786 C -3.5973779574174864 -1.0793628802796786 -3.7324778688258142 -1.1156758622478131 -3.851568831194424 -1.1843972044670772 C -4.032352816691694 -1.2886506043110737 -4.161595795524516 -1.457330262485633 -4.215479575219165 -1.6591992052547213 C -4.28693415264033 -1.9262753306977713 -4.440385786118576 -2.13907721427447 -4.647721199291469 -2.258949100986482 L -4.8249910252434365 -2.3612501899719778 C -4.95618631493476 -2.4369998512818483 -5.1053428645242995 -2.475265144108484 -5.268165590123352 -2.475265144108484 C -5.363828822189942 -2.475265144108484 -5.461834827286731 -2.4619894302706715 -5.5602312945552255 -2.435438002595046 C -5.626609863744286 -2.417476742696829 -5.695331205963551 -2.4084961127477214 -5.764052548182816 -2.4084961127477214 C -5.900323846106244 -2.4084961127477214 -6.034642833171169 -2.444809094715856 -6.153343333368079 -2.51313997476342 C -6.361459670884375 -2.633402323647132 -6.501245128353105 -2.838394963789824 -6.536777185977838 -3.076186426355347 C -6.572309243602572 -3.313977888920869 -6.4969500444644 -3.5533312001731927 -6.329832234976643 -3.7333342613270615 C -6.185361231447509 -3.888738205663807 -5.978025818274616 -3.9777635808114904 -5.761709775152612 -3.9777635808114904 C -5.68517918949934 -3.9777635808114904 -5.609819990361171 -3.9664401778321796 -5.537974950768303 -3.944183834045259 C -5.2568421871440405 -3.857110769756077 -5.05419232003155 -3.636109180573671 -4.995622994276496 -3.352633643919205 C -4.948767533672453 -3.1265560465046933 -4.789068505447001 -2.920392019846901 -4.556743513285285 -2.7864634949536757 L -4.413443896271249 -2.7036855145531975 C -4.261944573651507 -2.6162219880923154 -4.097559999365655 -2.5697569896599717 -3.938641895483605 -2.5697569896599717 C -3.857035301598229 -2.5697569896599717 -3.7777714807430547 -2.582251779154384 -3.703583668119985 -2.6068508959715064 C -3.623929385093109 -2.633402323647131 -3.540760942520933 -2.6466780374849446 -3.457202037777054 -2.6466780374849446 C -3.2600186410683705 -2.6466780374849446 -3.0690826391068917 -2.570537914003373 -2.9203165516890515 -2.432704767393144 C -2.7043909707387517 -2.2327881354825565 -2.620832065994872 -1.922370708980767 -2.7071242059406533 -1.6416284075282044 C -2.8102062192695527 -1.3050500155224904 -3.1132048645090347 -1.0793628802796786 -3.4603257351506587 -1.0793628802796786 L -3.4603257351506587 -1.0793628802796786 Z"
           fill="url(#gradient-92c3a873-f982-4296-86bc-740686b5c2e0_14)"
           transform="matrix(1,0,0,1,0,0)"
           fill-rule="nonzero"
           id="path15"
           style="fill:#000000" />
      </g>
    </g>
    <g
       id="g17"
       style="display:none">
      <path
         d="m 0.7873875,0 h 0.762891 l 0.790887,2.484645 H 1.6482645 L 1.497786,1.9982145 H 0.8363805 L 0.6894015,2.484645 H -0.006999 L 0.7873875,0 M 1.3893015,1.5432795 1.168833,0.6684045 0.937866,1.5432795 H 1.3893015 M 2.5581072,2.484645 V 0 H 3.2405097 V 2.484645 H 2.5581072 M 3.6395108,1.8162405 v -0.594915 h 1.0953435 v 0.594915 H 3.6395108 M 7.3315704,0 V 2.484645 H 6.6491679 V 1.511784 H 5.8162869 V 2.484645 H 5.1338844 V 0 h 0.6824025 v 0.916869 h 0.832881 V 0 H 7.3315704 M 9.5397549,1.88973 V 2.484645 H 7.7690079 V 0 h 1.7392515 v 0.594915 h -1.056849 v 0.34995 h 0.902871 V 1.497786 H 8.4514104 V 1.88973 h 1.0883445 m 0.3289,0.594915 V 0 h 0.9553631 q 0.412941,0 0.691152,0.16622625 0.27821,0.16622625 0.41994,0.447936 0.141729,0.28170975 0.141729,0.62466075 0,0.377946 -0.155727,0.657906 -0.155728,0.27996 -0.437438,0.433938 -0.28171,0.153978 -0.659656,0.153978 H 9.8686549 M 11.383938,1.238823 q 0,-0.1924725 -0.06649,-0.33770175 Q 11.250957,0.755892 11.124975,0.6754035 10.998993,0.594915 10.824018,0.594915 H 10.551057 V 1.88973 h 0.272961 q 0.178475,0 0.302707,-0.083988 0.124232,-0.083988 0.190723,-0.2327168 0.06649,-0.1487287 0.06649,-0.3342022"
         fill="#1c3423"
         fill-rule="nonzero"
         id="path16" />
    </g>
    <path
       style="font-weight:100;font-size:5px;font-family:'Franklin Gothic';-inkscape-font-specification:'Franklin Gothic Thin';stroke-width:2.79283"
       d="M 5.9841734,4.6044315 H 4.4669281 L 4.1194672,3.4153436 H 2.2161545 L 1.8416689,4.6044315 H 0.61783483 L 2.5365905,-1.3332869 H 4.1464921 Z M 3.7913099,2.2880264 3.1851838,0.25345063 2.5636152,2.2880264 Z M 8.0534962,4.6044315 H 6.652071 V -1.3332869 H 8.0534962 Z M 11.165195,2.8092176 H 8.9144205 V 1.7552533 h 2.2507745 z m 5.397223,1.7952139 H 15.145549 V 2.1799275 H 13.31945 v 2.424504 h -1.397564 l 0.0039,-5.9377184 h 1.409146 v 2.3704546 h 1.818382 v -2.3704546 h 1.409147 z m 5.177164,0 h -4.22744 v -5.9377184 h 4.22744 v 1.18908803 H 18.901986 V 1.0371677 h 2.216028 v 1.1427598 h -2.239192 v 1.2354161 h 2.86076 z m 5.61729,-2.922531 q 0,1.2701621 -0.775997,2.0963466 -0.772135,0.8261844 -1.99597,0.8261844 h -2.100206 v -5.9377184 h 1.992108 q 1.393703,0 2.161978,0.86479133 0.718087,0.81074174 0.718087,2.15039607 z m -1.405287,-0.054049 q 0,-0.72580698 -0.351322,-1.22383406 -0.386067,-0.54821591 -1.03466,-0.54821591 H 23.905427 V 3.4153436 h 0.671758 q 0.637011,0 1.023078,-0.5559372 0.351322,-0.5057485 0.351322,-1.2315553 z"
       id="text49"
       inkscape:label="AI-HED"
       aria-label="AI-HED " />
  </g>
  <defs
     id="defs49">
    <clipPath
       id="SvgjsClipPath1002">
      <path
         d=" M -11.146066356263843 -3.977763580811491 h 10.746066356263842 v 12.16211572412298 h -10.746066356263842 Z"
         id="path19" />
    </clipPath>
    <clipPath
       id="SvgjsClipPath1000dff91d8c-420c-44a7-a374-d2999ab675af">
      <path
         d=" M -11.146066356263844 -3.977763580811491 L -0.40000000000000036 -3.977763580811491 L -0.40000000000000036 8.18435214331149 L -11.146066356263844 8.18435214331149 Z"
         id="path20" />
    </clipPath>
    <linearGradient
       id="gradient-92c3a873-f982-4296-86bc-740686b5c2e0_0"
       x1="0"
       x2="1"
       y1="0"
       y2="1">
      <stop
         stop-color="#4e835e"
         offset="0"
         id="stop20" />
      <stop
         stop-color="#447352"
         offset="1"
         id="stop21" />
    </linearGradient>
    <linearGradient
       id="gradient-92c3a873-f982-4296-86bc-740686b5c2e0_1"
       x1="0"
       x2="1"
       y1="0"
       y2="1">
      <stop
         stop-color="#63a376"
         offset="0"
         id="stop22" />
      <stop
         stop-color="#4c7f5c"
         offset="1"
         id="stop23" />
    </linearGradient>
    <linearGradient
       id="gradient-92c3a873-f982-4296-86bc-740686b5c2e0_2"
       x1="0"
       x2="1"
       y1="0"
       y2="1">
      <stop
         stop-color="#467655"
         offset="0"
         id="stop24" />
      <stop
         stop-color="#30533a"
         offset="1"
         id="stop25" />
    </linearGradient>
    <linearGradient
       id="gradient-92c3a873-f982-4296-86bc-740686b5c2e0_3"
       x1="0"
       x2="1"
       y1="0"
       y2="1">
      <stop
         stop-color="#4e835e"
         offset="0"
         id="stop26" />
      <stop
         stop-color="#386044"
         offset="1"
         id="stop27" />
    </linearGradient>
    <linearGradient
       id="gradient-92c3a873-f982-4296-86bc-740686b5c2e0_4"
       x1="0"
       x2="1"
       y1="0"
       y2="1">
      <stop
         stop-color="#5a956c"
         offset="0"
         id="stop28" />
      <stop
         stop-color="#447252"
         offset="1"
         id="stop29" />
    </linearGradient>
    <linearGradient
       id="gradient-92c3a873-f982-4296-86bc-740686b5c2e0_5"
       x1="0"
       x2="1"
       y1="0"
       y2="1">
      <stop
         stop-color="#568f67"
         offset="0"
         id="stop30" />
      <stop
         stop-color="#447252"
         offset="1"
         id="stop31" />
    </linearGradient>
    <linearGradient
       id="gradient-92c3a873-f982-4296-86bc-740686b5c2e0_6"
       x1="0"
       x2="1"
       y1="0"
       y2="1">
      <stop
         stop-color="#4a7c5a"
         offset="0"
         id="stop32" />
      <stop
         stop-color="#406c4d"
         offset="1"
         id="stop33" />
    </linearGradient>
    <linearGradient
       id="gradient-92c3a873-f982-4296-86bc-740686b5c2e0_7"
       x1="0"
       x2="1"
       y1="0"
       y2="1">
      <stop
         stop-color="#426f50"
         offset="0"
         id="stop34" />
      <stop
         stop-color="#2c4d36"
         offset="1"
         id="stop35" />
    </linearGradient>
    <linearGradient
       id="gradient-92c3a873-f982-4296-86bc-740686b5c2e0_8"
       x1="0"
       x2="1"
       y1="0"
       y2="1">
      <stop
         stop-color="#3e6a4b"
         offset="0"
         id="stop36" />
      <stop
         stop-color="#284631"
         offset="1"
         id="stop37" />
    </linearGradient>
    <linearGradient
       id="gradient-92c3a873-f982-4296-86bc-740686b5c2e0_9"
       x1="0"
       x2="1"
       y1="0"
       y2="1">
      <stop
         stop-color="#4a7c5a"
         offset="0"
         id="stop38" />
      <stop
         stop-color="#34593f"
         offset="1"
         id="stop39" />
    </linearGradient>
    <linearGradient
       id="gradient-92c3a873-f982-4296-86bc-740686b5c2e0_10"
       x1="0"
       x2="1"
       y1="0"
       y2="1">
      <stop
         stop-color="#365d42"
         offset="0"
         id="stop40" />
      <stop
         stop-color="#203a28"
         offset="1"
         id="stop41" />
    </linearGradient>
    <linearGradient
       id="gradient-92c3a873-f982-4296-86bc-740686b5c2e0_11"
       x1="0"
       x2="1"
       y1="0"
       y2="1">
      <stop
         stop-color="#3a6447"
         offset="0"
         id="stop42" />
      <stop
         stop-color="#30533a"
         offset="1"
         id="stop43" />
    </linearGradient>
    <linearGradient
       id="gradient-92c3a873-f982-4296-86bc-740686b5c2e0_12"
       x1="0"
       x2="1"
       y1="0"
       y2="1">
      <stop
         stop-color="#3e6a4b"
         offset="0"
         id="stop44" />
      <stop
         stop-color="#2c4d36"
         offset="1"
         id="stop45" />
    </linearGradient>
    <linearGradient
       id="gradient-92c3a873-f982-4296-86bc-740686b5c2e0_13"
       x1="0"
       x2="1"
       y1="0"
       y2="1">
      <stop
         stop-color="#4a7d5a"
         offset="0"
         id="stop46" />
      <stop
         stop-color="#386044"
         offset="1"
         id="stop47" />
    </linearGradient>
    <linearGradient
       id="gradient-92c3a873-f982-4296-86bc-740686b5c2e0_14"
       x1="0"
       x2="1"
       y1="0"
       y2="1">
      <stop
         stop-color="#579068"
         offset="0"
         id="stop48" />
      <stop
         stop-color="#406d4e"
         offset="1"
         id="stop49" />
    </linearGradient>
  </defs>
</svg>
