<svg version="1.2" xmlns="http://www.w3.org/2000/svg" viewBox="0 0 644 103" width="500" height="80">
	<title>FOI_horiz_EN_color-ai</title>
	<style>
		.s0 { fill: #d21245 } 
		.s1 { fill: #000000 } 
	</style>
	<g id="Layer 1">
		<g id="&lt;Group&gt;">
			<g id="&lt;Group&gt;">
				<g id="&lt;Group&gt;">
					<path id="&lt;Path&gt;" class="s0" d="m36.8 0.1c-4.5 0.3-9 1.5-12.9 3.8-3.3 2-6.1 4.8-8 8.1-2.5 4.3-3.7 9.3-4 14.3-0.2 2.2-0.2 4.3-0.2 6.5h-11.4v15.4h11.4v54.6h19.6v-54.6h17.1v-15.4h-17.1c0-3-0.2-6.1 0.6-9 0.5-2.3 1.7-4.5 3.5-5.9 2-1.5 4.6-2.1 7.1-2.3 3.2-0.1 6.5 0.1 9.6 1l1.1-14.8c-3.5-1.3-7.2-1.7-10.9-1.9q-2.8-0.1-5.5 0.2z"/>
					<path id="&lt;Compound Path&gt;" fill-rule="evenodd" class="s0" d="m110.2 68.1c0 15.2-12.3 27.4-27.4 27.4-15.2 0-27.4-12.2-27.4-27.4 0-15.1 12.2-27.4 27.4-27.4 15.1 0 27.4 12.3 27.4 27.4zm-16.1 0c0-6.2-5.1-11.3-11.3-11.3-6.3 0-11.3 5.1-11.3 11.3 0 6.3 5 11.3 11.3 11.3 6.2 0 11.3-5 11.3-11.3z"/>
					<path id="&lt;Path&gt;" class="s0" d="m125.7 102.8h19.6v-69.4h-19.6z"/>
					<path id="&lt;Path&gt;" class="s0" d="m135.6 24.1c6.3 0 11.3-5 11.3-11.3 0-6.2-5-11.3-11.3-11.3-6.2 0-11.3 5.1-11.3 11.3 0 6.3 5.1 11.3 11.3 11.3z"/>
				</g>
			</g>
			<g id="&lt;Group&gt;">
				<path id="&lt;Path&gt;" class="s1" d="m164.7 40.6v6.3c0 3.5 1.6 5 4.1 5 2.7 0 4.4-1.6 4.4-5v-6.3h-1.9v6.4c0 2.2-1 3.2-2.5 3.2-1.2 0-2.2-1-2.2-3.2v-6.4z"/>
				<path id="&lt;Path&gt;" class="s1" d="m179.1 51.7v-4c0-1.8-0.1-3.3-0.2-4.8h0.1c0.5 1.3 1.2 2.7 2 3.9l2.8 4.9h2.2v-11.1h-1.9v3.8c0 1.7 0 3.2 0.2 4.6-0.7-1.2-1.3-2.5-2-3.6l-2.8-4.8h-2.4v11.1z"/>
				<path id="&lt;Path&gt;" class="s1" d="m189.9 40.6v11.1h1.9v-11.1z"/>
				<path id="&lt;Path&gt;" class="s1" d="m200.7 51.7l3.8-11.1h-2.1l-1.6 5.1c-0.5 1.3-0.9 2.7-1.2 3.9-0.3-1.4-0.6-2.6-1.2-4l-1.5-5h-2.1l3.5 11.1z"/>
				<path id="&lt;Path&gt;" class="s1" d="m213.4 45.2h-4.1v-2.9h4.5v-1.7h-6.4v11.1h6.6v-1.8h-4.7v-3.3h4.1z"/>
				<path id="&lt;Compound Path&gt;" fill-rule="evenodd" class="s1" d="m217.4 40.7c0.7-0.1 1.9-0.2 3.1-0.2 1.5 0 2.5 0.3 3.4 0.9 0.5 0.6 0.8 1.3 0.8 2.2 0 1.6-0.8 2.4-1.9 2.7v0.1c0.8 0.2 1.3 1.1 1.5 2.2 0.3 1.2 0.6 2.7 0.9 3.1h-2.1c-0.2-0.4-0.4-1.3-0.7-2.7-0.3-1.4-0.9-1.9-2-1.9h-1v4.6h-2zm2 4.9h1.2c1.3 0 2.2-0.7 2.2-1.8 0-1.2-0.9-1.7-2.1-1.7-0.8 0-1.1 0-1.3 0.1z"/>
				<path id="&lt;Path&gt;" class="s1" d="m227.8 51.2c0.6 0.3 1.8 0.7 3.1 0.7 2.8 0 4.1-1.6 4.1-3.4 0-1.6-0.9-2.6-2.8-3.2-1.5-0.7-2.2-1.1-2.2-2 0-0.6 0.7-1.2 1.9-1.2 1 0 1.8 0.3 2.2 0.5l0.4-1.6c-0.5-0.3-1.4-0.6-2.5-0.6-2.5 0-4 1.5-4 3.2 0 1.6 1.2 2.5 3 3.2 1.4 0.5 1.9 1 1.9 1.9 0 0.8-0.6 1.5-1.9 1.5-1.1 0-2-0.5-2.8-0.8z"/>
				<path id="&lt;Path&gt;" class="s1" d="m238.5 40.6v11.1h2v-11.1z"/>
				<path id="&lt;Path&gt;" class="s1" d="m246.5 51.7h2.1v-9.4h3.1v-1.7h-8.3v1.7h3.1z"/>
				<path id="&lt;Path&gt;" class="s1" d="m259.4 51.7v-4.7l3.7-6.4h-2.3l-1.4 2.7c-0.3 0.9-0.6 1.6-0.8 2.3h-0.1c-0.3-0.8-0.6-1.4-1-2.3l-1.3-2.7h-2.2l3.4 6.4v4.7z"/>
				<path id="&lt;Compound Path&gt;" fill-rule="evenodd" class="s1" d="m281 46c0 3.6-2.2 5.9-5.3 5.9-3.1 0-5-2.5-5-5.7 0-3.4 2.1-5.8 5.2-5.8 3.2 0 5.1 2.4 5.1 5.6zm-8.3 0.1c0 2.4 1.2 4.1 3.1 4.1 2 0 3.1-1.7 3.1-4.2 0-2-1.1-3.9-3.1-3.9-2 0-3.1 1.8-3.1 4z"/>
				<path id="&lt;Path&gt;" class="s1" d="m284.4 51.7h2v-4.7h4.1v-1.7h-4.1v-3h4.4v-1.7h-6.4z"/>
				<path id="&lt;Path&gt;" class="s1" d="m298.9 51.7h8.3v-1.8h-5.6v-0.1l5.5-7.9v-1.3h-7.8v1.7h5.3l-5.7 8.2z"/>
				<path id="&lt;Compound Path&gt;" fill-rule="evenodd" class="s1" d="m312.8 48.6l-0.9 3.1h-2.1l3.5-11.1h2.5l3.7 11.1h-2.2l-1-3.1zm3.1-1.6l-0.8-2.8c-0.2-0.6-0.3-1.4-0.5-2-0.2 0.6-0.4 1.4-0.6 2l-0.9 2.8z"/>
				<path id="&lt;Path&gt;" class="s1" d="m331.2 45.6h-3.9v1.5h1.9v2.7c-0.3 0.1-0.8 0.3-1.5 0.3-2.3 0-3.8-1.4-3.8-4 0-2.5 1.6-3.9 4-3.9 1.1 0 1.8 0.2 2.5 0.4l0.5-1.6c-0.6-0.3-1.7-0.5-3-0.5-3.6 0-6.1 2.2-6.1 5.7 0 1.7 0.5 3.1 1.4 4.1 1.2 1 2.5 1.5 4.5 1.5 1.3 0 2.8-0.4 3.5-0.6z"/>
				<path id="&lt;Compound Path&gt;" fill-rule="evenodd" class="s1" d="m334.9 40.7c0.7-0.1 1.9-0.2 3-0.2 1.5 0 2.7 0.3 3.4 0.9 0.6 0.6 0.9 1.3 0.9 2.2 0 1.6-0.9 2.4-1.9 2.7v0.1c0.8 0.2 1.2 1.1 1.5 2.2 0.3 1.2 0.6 2.7 0.8 3.1h-2c-0.1-0.4-0.4-1.3-0.8-2.7-0.3-1.4-0.8-1.9-1.9-1.9h-1v4.6h-2zm2 4.9h1.2c1.2 0 2.2-0.7 2.2-1.8 0-1.2-1-1.7-2.2-1.7q-0.9 0-1.2 0.1z"/>
				<path id="&lt;Path&gt;" class="s1" d="m351.9 45.2h-4v-2.9h4.3v-1.7h-6.5v11.1h6.7v-1.8h-4.5v-3.3h4z"/>
				<path id="&lt;Compound Path&gt;" fill-rule="evenodd" class="s1" d="m355.8 40.7c0.7-0.1 1.9-0.2 3-0.2 1.6 0 2.5 0.2 3.1 0.7 0.7 0.4 1.2 1.2 1.2 2 0 1.1-0.7 2.1-1.8 2.5 1.1 0.3 2.3 1.3 2.3 2.8 0 0.9-0.5 1.7-1.2 2.2-0.8 0.7-1.9 1.1-4.1 1.1-1 0-2 0-2.5-0.2zm2.1 4.5h0.9c1.6 0 2.3-0.8 2.3-1.7 0-1-0.7-1.5-2.2-1.5-0.5 0-0.8 0.1-1 0.1zm0 5c0.2 0 0.5 0 1 0 1.4 0 2.5-0.5 2.5-1.7 0-1.4-1.1-2-2.6-2h-0.9z"/>
				<path id="&lt;Path&gt;" class="s1" d="m164.9 77.7h3.3v-6h5.3v-2.8h-5.3v-3.3h5.7v-2.8h-9z"/>
				<path id="&lt;Compound Path&gt;" fill-rule="evenodd" class="s1" d="m178.7 73.6l-0.9 4.1h-3.5l4.4-14.9h4.4l4.6 14.9h-3.6l-1.1-4.1zm3.8-2.2l-1-3.2q-0.3-1.7-0.7-2.9c-0.3 0.8-0.5 1.8-0.8 2.9l-0.8 3.2z"/>
				<path id="&lt;Path&gt;" class="s1" d="m199.7 74.6c-0.6 0.3-1.7 0.4-2.8 0.4-2.8 0-4.6-2-4.6-4.9 0-3.3 2.1-4.7 4.6-4.7 1.2 0 2.2 0.2 2.8 0.5l0.7-2.8c-0.6-0.2-1.9-0.5-3.6-0.5-4.4 0-8 2.8-8 7.6 0 4.5 2.6 7.7 7.7 7.7 1.7 0 3.1-0.3 3.7-0.9z"/>
				<path id="&lt;Path&gt;" class="s1" d="m202.8 62.8v8.4c0 4.5 2.1 6.7 5.9 6.7 3.8 0 6.1-2.3 6.1-6.7v-8.4h-3.4v8.6c0 2.3-0.8 3.7-2.6 3.7-1.7 0-2.7-1.5-2.7-3.7v-8.6z"/>
				<path id="&lt;Path&gt;" class="s1" d="m218.1 77.7h9.2v-2.9h-5.9v-12h-3.3z"/>
				<path id="&lt;Path&gt;" class="s1" d="m230.2 77.7h3.3v-12.1h4v-2.8h-11.3v2.8h4z"/>
				<path id="&lt;Path&gt;" class="s1" d="m246.5 77.7v-6.2l4.8-8.7h-3.7l-1.5 3.5c-0.4 1.3-0.7 2-1.1 2.8-0.4-0.8-0.7-1.5-1.1-2.8l-1.5-3.5h-3.8l4.6 8.8v6.1z"/>
				<path id="&lt;Compound Path&gt;" fill-rule="evenodd" class="s1" d="m272.4 69.9c0 5-2.9 8-7.1 8-4.4 0-7-3.3-7-7.8 0-4.3 2.8-7.6 7.2-7.6 4.5 0 6.9 3.4 6.9 7.4zm-10.5 0.2c0 2.9 1.3 5.1 3.5 5.1 2.2 0 3.5-2.3 3.5-5.2 0-2.4-1.3-4.8-3.5-4.8-2.3 0-3.5 2.4-3.5 4.9z"/>
				<path id="&lt;Path&gt;" class="s1" d="m275.1 77.7h3.3v-6h5.2v-2.8h-5.2v-3.3h5.6v-2.8h-8.9z"/>
				<path id="&lt;Compound Path&gt;" fill-rule="evenodd" class="s1" d="m305.9 69.9c0 5-2.8 8-7.1 8-4.4 0-6.9-3.3-6.9-7.8 0-4.3 2.8-7.6 7.1-7.6 4.5 0 6.9 3.4 6.9 7.4zm-10.5 0.2c0 2.9 1.3 5.1 3.5 5.1 2.3 0 3.5-2.3 3.5-5.2 0-2.4-1.1-4.8-3.5-4.8-2.3 0-3.5 2.4-3.5 4.9z"/>
				<path id="&lt;Compound Path&gt;" fill-rule="evenodd" class="s1" d="m308.5 63c1.1-0.2 2.7-0.3 4.4-0.3 2.3 0 3.7 0.3 4.8 1 0.9 1 1.3 1.9 1.3 3.1 0 2-1.2 3.2-2.5 3.6 1 0.8 1.6 1.6 2 2.8 0.4 1.9 0.8 3.6 1.1 4.5h-3.4c-0.2-0.8-0.6-1.8-1-3.4-0.3-2.1-1-2.5-2.4-2.5h-1v5.9h-3.3zm3.3 6.3h1.3c1.7 0 2.6-0.7 2.6-2.2 0-1.2-0.8-1.8-2.4-1.8-0.8 0-1.2 0-1.5 0.1z"/>
				<path id="&lt;Path&gt;" class="s1" d="m334.1 69.1h-5.6v2.7h2.4v3.1c-0.3 0.1-1 0.1-1.7 0.1-2.8 0-4.6-1.9-4.6-5 0-3.2 2.1-4.6 4.8-4.6 1.7 0 2.6 0.3 3.4 0.6l0.8-2.8c-0.8-0.2-2.2-0.6-4.2-0.6-4.7 0-8.2 2.9-8.3 7.6 0 2.3 0.7 4.3 2 5.5 1.5 1.1 3.3 2.1 6 2.1 2 0 3.9-0.8 5-1.1z"/>
				<path id="&lt;Compound Path&gt;" fill-rule="evenodd" class="s1" d="m340.5 73.6l-1.2 4.1h-3.4l4.6-14.9h4.3l4.5 14.9h-3.6l-1-4.1zm3.7-2.2l-1-3.2q-0.5-1.7-0.8-2.9c-0.2 0.8-0.4 1.8-0.7 2.9l-0.8 3.2z"/>
				<path id="&lt;Path&gt;" class="s1" d="m354.8 77.7v-4.7c0-2.5-0.1-4.3-0.2-6.5h0.1c0.6 1.9 1.6 3.6 2.6 5.4l3.2 5.8h3.4v-14.9h-3v4.1c0 2.4 0 4.5 0.2 6.2-0.7-1.4-1.7-3.4-2.5-4.8l-3.1-5.5h-3.8v14.9z"/>
				<path id="&lt;Path&gt;" class="s1" d="m367.2 62.8v14.9h3.3v-14.9z"/>
				<path id="&lt;Path&gt;" class="s1" d="m372.7 77.7h11.5v-2.8h-6.9v-0.1l6.8-9.9v-2.1h-10.6v2.8h6.3v0.1l-7.1 10z"/>
				<path id="&lt;Compound Path&gt;" fill-rule="evenodd" class="s1" d="m390.4 73.6l-1.2 4.1h-3.5l4.7-14.9h4.2l4.5 14.9h-3.6l-1-4.1zm3.7-2.2l-0.9-3.2c-0.4-1.1-0.7-2.1-0.9-2.9-0.2 0.8-0.5 1.8-0.7 2.9l-0.8 3.2z"/>
				<path id="&lt;Path&gt;" class="s1" d="m402.5 77.7h3.3v-12.1h4.2v-2.8h-11.4v2.8h3.9z"/>
				<path id="&lt;Path&gt;" class="s1" d="m412 62.8v14.9h3.3v-14.9z"/>
				<path id="&lt;Compound Path&gt;" fill-rule="evenodd" class="s1" d="m432 69.9c0 5-2.8 8-7.2 8-4.2 0-6.8-3.3-6.8-7.8 0-4.3 2.8-7.6 7.1-7.6 4.6 0 6.9 3.4 6.9 7.4zm-10.6 0.2c0 2.9 1.5 5.1 3.6 5.1 2.3 0 3.5-2.3 3.5-5.2 0-2.4-1.1-4.8-3.5-4.8-2.1 0-3.6 2.4-3.6 4.9z"/>
				<path id="&lt;Path&gt;" class="s1" d="m437.7 77.7v-4.7c0-2.5 0-4.3-0.1-6.5 0.7 1.9 1.8 3.6 2.7 5.4l3.1 5.8h3.5v-14.9h-3.1v4.1c0 2.4 0.1 4.5 0.3 6.2h-0.1c-0.6-1.4-1.5-3.4-2.5-4.8l-3-5.5h-3.9v14.9z"/>
				<path id="&lt;Compound Path&gt;" fill-rule="evenodd" class="s1" d="m459.2 73.6l-1.1 4.1h-3.5l4.6-14.9h4.4l4.4 14.9h-3.5l-1.1-4.1zm3.8-2.2l-1.1-3.2q-0.4-1.7-0.7-2.9h-0.1c-0.2 0.8-0.4 1.8-0.6 2.9l-0.8 3.2z"/>
				<path id="&lt;Path&gt;" class="s1" d="m473.5 77.7v-4.7c0-2.5 0-4.3-0.1-6.5h0.1c0.6 1.9 1.5 3.6 2.5 5.4l3.2 5.8h3.5v-14.9h-3.1v4.1c0 2.4 0.1 4.5 0.3 6.2h-0.1c-0.6-1.4-1.6-3.4-2.5-4.8l-3-5.5h-3.9v14.9z"/>
				<path id="&lt;Compound Path&gt;" fill-rule="evenodd" class="s1" d="m485.9 63c1.2-0.2 2.8-0.3 4.4-0.3 2.9 0 4.6 0.4 6.1 1.8 1.4 0.9 2.5 2.6 2.5 5.2 0 2.9-1.1 5-2.4 6.1-1.7 1.1-3.9 2-6.8 2-1.9 0-3-0.1-3.8-0.2zm3.3 12.1c0.3 0.1 0.8 0.1 1.1 0.1 3.1 0 5.1-1.9 5.1-5.4 0-3-1.8-4.5-4.8-4.5-0.6 0-1.1 0.1-1.4 0.2z"/>
				<path id="&lt;Path&gt;" class="s1" d="m507.1 62.8v14.9h3.3v-14.9z"/>
				<path id="&lt;Path&gt;" class="s1" d="m516.7 77.7v-4.7c0-2.5 0-4.3-0.1-6.5h0.1c0.6 1.9 1.6 3.6 2.6 5.4l3.1 5.8h3.5v-14.9h-3.1v4.1c0 2.4 0.1 4.5 0.3 6.2h-0.1c-0.6-1.4-1.6-3.4-2.5-4.8l-3-5.5h-3.9v14.9z"/>
				<path id="&lt;Path&gt;" class="s1" d="m529.2 77.7h3.3v-6h5.1v-2.8h-5.1v-3.3h5.5v-2.8h-8.8z"/>
				<path id="&lt;Compound Path&gt;" fill-rule="evenodd" class="s1" d="m554.3 69.9c0 5-2.8 8-7.2 8-4.2 0-6.8-3.3-6.8-7.8 0-4.3 2.8-7.6 7.1-7.6 4.6 0 6.9 3.4 6.9 7.4zm-10.6 0.2c0 2.9 1.5 5.1 3.6 5.1 2.3 0 3.5-2.3 3.5-5.2 0-2.4-1.1-4.8-3.5-4.8-2.1 0-3.6 2.4-3.6 4.9z"/>
				<path id="&lt;Compound Path&gt;" fill-rule="evenodd" class="s1" d="m556.9 63c1.2-0.2 2.7-0.3 4.5-0.3 2.1 0 3.8 0.3 4.8 1 0.8 1 1.2 1.9 1.2 3.1 0 2-1.2 3.2-2.4 3.6 1 0.8 1.5 1.6 1.8 2.8 0.5 1.9 0.9 3.6 1.3 4.5h-3.4c-0.3-0.8-0.7-1.8-1.1-3.4-0.4-2.1-0.9-2.5-2.4-2.5h-1v5.9h-3.3zm3.3 6.3h1.4c1.6 0 2.5-0.7 2.5-2.2 0-1.2-0.8-1.8-2.3-1.8-0.9 0-1.4 0-1.6 0.1z"/>
				<path id="&lt;Path&gt;" class="s1" d="m582.9 77.7h3.3l-0.7-14.9h-4.5l-1.5 5.1c-0.5 1.4-0.9 3.5-1.3 5h-0.1c-0.5-1.5-0.9-3.5-1.4-5l-1.3-5.1h-4.6l-0.9 14.9h3.1l0.3-5.7c0.1-2 0.1-4 0.2-6.2 0.4 2.1 0.9 4 1.5 5.9l1.5 5.4h2.6l1.7-5.5c0.7-1.9 1.3-3.7 1.8-5.8 0 2.3 0.1 4.2 0.1 6.1z"/>
				<path id="&lt;Compound Path&gt;" fill-rule="evenodd" class="s1" d="m592.5 73.6l-1 4.1h-3.4l4.4-14.9h4.2l4.8 14.9h-3.6l-1.3-4.1zm3.7-2.2l-0.8-3.2c-0.3-1.1-0.6-2.1-0.8-2.9h-0.1c-0.3 0.8-0.5 1.8-0.8 2.9l-0.8 3.2z"/>
				<path id="&lt;Path&gt;" class="s1" d="m604.9 77.7h3.3v-12.1h3.9v-2.8h-11.4v2.8h4.2z"/>
				<path id="&lt;Path&gt;" class="s1" d="m614.3 62.8v14.9h3.3v-14.9z"/>
				<path id="&lt;Path&gt;" class="s1" d="m631.2 74.6c-0.8 0.3-1.9 0.4-2.8 0.4-2.9 0-4.8-2-4.8-4.9 0-3.3 2.1-4.7 4.8-4.7 1.1 0 2 0.2 2.8 0.5l0.7-2.8c-0.6-0.2-2.1-0.5-3.6-0.5-4.6 0-8.2 2.8-8.2 7.6 0 4.5 2.7 7.7 7.9 7.7 1.6 0 3.1-0.3 3.7-0.9z"/>
				<path id="&lt;Path&gt;" class="s1" d="m633.5 76.7c1.1 0.4 2.6 1.2 4.4 1.2 4 0 5.7-2.3 5.7-4.8 0-1.9-1.1-3.4-3.8-4.3-1.7-0.6-2.6-1-2.6-2.2 0-0.6 0.8-1.3 2.1-1.3 1.5 0 2.6 0.4 3.1 0.7l0.6-2.8c-0.7-0.3-1.9-0.6-3.7-0.6-3.4 0-5.6 2.1-5.6 4.3 0 2.2 1.8 3.4 4.3 4.6 1.6 0.5 2.2 1 2.2 1.8 0 1.2-0.7 1.8-2.1 1.8-1.6 0-2.9-0.4-3.7-0.8z"/>
				<path id="&lt;Path&gt;" class="s1" d="m169.5 98.1l3.8-11.3h-2.1l-1.6 5.2c-0.5 1.2-1 2.8-1.2 4h-0.1c-0.2-1.2-0.5-2.7-1.1-4l-1.4-5.2h-2.2l3.5 11.3z"/>
				<path id="&lt;Compound Path&gt;" fill-rule="evenodd" class="s1" d="m177.5 95l-1 3.1h-2.1l3.6-11.3h2.5l3.6 11.3h-2.3l-0.8-3.1zm3.1-1.8l-0.9-2.4c-0.2-0.9-0.3-1.6-0.5-2.2-0.2 0.6-0.5 1.3-0.7 2.2l-0.7 2.4z"/>
				<path id="&lt;Compound Path&gt;" fill-rule="evenodd" class="s1" d="m187.3 87.4c0.7-0.6 1.9-0.6 3-0.6 1.5 0 2.7 0.6 3.4 1.1 0.7 0.5 0.9 1.2 0.9 2 0 1.6-0.9 2.5-1.9 2.8v0.1c0.7 0.2 1.3 1.3 1.5 2.2 0.4 1.2 0.6 2.7 0.8 3.1h-2c-0.2-0.3-0.4-1.4-0.7-2.7-0.4-1.3-0.9-2-2.1-2.1h-0.9v4.8h-2zm2 4.7h1.1c1.3 0 2.3-0.7 2.3-2 0-1.1-1-1.6-2.2-1.6-0.7 0-1 0-1.2 0.1z"/>
				<path id="&lt;Compound Path&gt;" fill-rule="evenodd" class="s1" d="m200.6 95l-1 3.1h-2l3.5-11.3h2.5l3.6 11.3h-2.2l-0.9-3.1zm3.1-1.8l-0.9-2.4c-0.2-0.9-0.3-1.6-0.5-2.2-0.2 0.6-0.5 1.3-0.7 2.2l-0.7 2.4z"/>
				<path id="&lt;Compound Path&gt;" class="s1" d="m209.7 98.1h8.3v-1.8h-5.6v-0.1l5.5-8v-1.4h-7.8v1.9h5.2l-5.6 8.1zm5-11.8l1.7-1.8h-1.5l-0.8 1-1-1h-1.6l1.7 1.8z"/>
				<path id="&lt;Compound Path&gt;" fill-rule="evenodd" class="s1" d="m221.3 87.4c1-0.6 2-0.6 3.2-0.6 2.1 0 3.5 0.7 4.6 1.5 1 0.7 1.7 1.9 1.7 3.9 0 2.2-0.7 3.5-1.7 4.3-1.2 1.3-2.9 1.7-5 1.7-1.2 0-2.1-0.1-2.8-0.1zm2 9c0.4 0 0.8 0 1.2 0 2.6 0.1 4.2-1.2 4.2-4.1 0-2.5-1.4-3.8-4-3.8q-0.8 0-1.4 0.1z"/>
				<path id="&lt;Path&gt;" class="s1" d="m234.2 86.8v11.3h1.9v-11.3z"/>
				<path id="&lt;Path&gt;" class="s1" d="m242 98.1v-3.9c0-1.9 0-3.2-0.1-4.9h0.1c0.5 1.5 1.1 2.7 1.9 3.8l2.9 5h2.1v-11.3h-1.9v4.2c0 1.5 0.1 3.1 0.2 4.4-0.6-1-1.2-2.5-1.9-3.6l-2.9-5h-2.3v11.3z"/>
			</g>
		</g>
	</g>
</svg>