<svg version="1.2" xmlns="http://www.w3.org/2000/svg" viewBox="0 0 1170 356" width="263" height="80">
	<title>Logo_ESCS_vENG_color-ai</title>
	<style>
		.s0 { fill: #38aab2 } 
		.s1 { fill: #055c4d } 
		.s2 { fill: #ac2840 } 
		.s3 { fill: #f1a53b } 
		.s4 { fill: #476066 } 
	</style>
	<g id="Layer 1">
		<g id="&lt;Group&gt;">
		</g>
		<g id="&lt;Group&gt;">
			<g id="&lt;Group&gt;">
				<g id="&lt;Group&gt;">
					<path id="&lt;Path&gt;" class="s0" d="m167.6 168l44.7 33.5-167.6 55.9v-48.3z"/>
					<path id="&lt;Path&gt;" class="s1" d="m0 223.9l44.7 33.5v-217.5l-44.7-5.9z"/>
					<path id="&lt;Path&gt;" class="s2" d="m212.3 22.8v178.7l-44.7-33.5v-111.7z"/>
					<path id="&lt;Path&gt;" class="s3" d="m44.7 0.4l-44.7 33.6 167.6 22.3 44.7-33.5z"/>
				</g>
			</g>
			<g id="&lt;Group&gt;">
				<g id="&lt;Group&gt;">
					<path id="&lt;Compound Path&gt;" class="s4" d="m311 201.7v-178.8h120.8v39.2h-77.1v29.9h65.9v39.2h-65.9v31.4h77.1v39.1z"/>
					<path id="&lt;Compound Path&gt;" class="s4" d="m573.4 170.9q-5.3 10.5-14.7 17.7-9.5 7.1-22 10.9-12.5 3.8-26.7 3.8-22 0-38.3-5.2-16.4-5.1-29.1-18.5l27.9-28.1q6.5 6.5 17.1 9.6 10.6 3 22.6 3 25.5 0 25.5-16.1 0-6.8-3.5-10.6-3.8-3.7-11.7-4.7l-10.5-1.5-11-1.5q-23.7-3.6-35.7-15.9-12.2-12.8-12.2-35.9 0-24.8 17.6-40.7 17.6-15.8 47.3-15.8 19.4 0 34 5 14.6 5.1 25.9 16.4l-27.5 27.6q-6.7-6.8-14.7-8.7-8-1.9-19-1.9-10.5 0-16 5.1-5.5 5-5.5 11.5 0 4.8 3.5 8.3 4.3 4.3 12.3 5.3l9.7 1.2 11.7 1.8q23.5 3.3 35 14.8 13.2 13.1 13.2 39.2 0 13.3-5.2 23.9z"/>
					<path id="&lt;Compound Path&gt;" class="s4" d="m700.9 188.4q-18.2 14.9-44.4 14.9-15.2 0-27.3-5.1-12.1-5-22.1-15-11.8-11.8-14.9-27.4-3.1-15.6-3.1-43.5 0-27.8 3.1-43.4 3.1-15.6 14.9-27.4 10-10 22.1-15.1 12.1-5 27.3-5 26.2 0 44.4 14.8 18.3 14.8 23 43.5h-44.4q-2.5-8.8-7.6-14-5.2-5.1-15.1-5.1-11.5 0-17.3 7.5-1.7 2.3-2.8 4.9-1.2 2.7-2 7.2-0.9 4.5-1.4 12.4-0.5 7.9-0.5 19.7 0 11.8 0.5 19.6 0.5 7.8 1.4 12.5 0.8 4.6 2 7.2 1.1 2.7 2.8 4.9 5.8 7.6 17.3 7.6 9.9 0 15.1-5.2 5.1-5.1 7.6-13.9h44.4q-4.7 28.6-23 43.4z"/>
					<path id="&lt;Compound Path&gt;" class="s4" d="m858.6 170.9q-5.2 10.5-14.7 17.7-9.5 7.1-22 10.9-12.5 3.8-26.7 3.8-22 0-38.3-5.2-16.4-5.1-29.1-18.5l28-28.1q6.4 6.5 17.1 9.6 10.6 3 22.5 3 25.5 0 25.5-16.1 0-6.8-3.5-10.6-3.7-3.7-11.7-4.7l-10.5-1.5-11-1.5q-23.7-3.6-35.7-15.9-12.2-12.8-12.2-35.9 0-24.8 17.6-40.7 17.6-15.8 47.3-15.8 19.5 0 34.1 5 14.6 5.1 25.8 16.4l-27.5 27.6q-6.7-6.8-14.7-8.7-8-1.9-19-1.9-10.4 0-15.9 5.1-5.5 5-5.5 11.5 0 4.8 3.5 8.3 4.2 4.3 12.2 5.3l9.7 1.2 11.8 1.8q23.4 3.3 34.9 14.8 13.2 13.1 13.2 39.2 0 13.3-5.2 23.9z"/>
				</g>
			</g>
			<g id="&lt;Group&gt;">
				<path id="&lt;Compound Path&gt;" class="s4" d="m340.8 285.4q-4.3 3.6-11.7 3.6-5.2 0-8.9-1.5-3.6-1.5-6.9-4.8l2.5-2.5q3.2 3.1 6.2 4.3 2.9 1.3 7.3 1.3 5.6 0 8.9-2.6 3.3-2.6 3.3-7.2 0-4.4-2.6-6.7-1.4-1.1-2.7-1.6-1.3-0.5-4.2-0.9l-2.9-0.5-2.6-0.4q-5.4-0.8-8.5-3.5-3.7-3.1-3.7-8.7 0-6 4-9.5 4-3.6 10.7-3.6 4.3 0 7.4 1.3 3.1 1.2 6.3 3.9l-2.4 2.4q-2.4-2.2-5-3.3-2.6-1.1-6.5-1.1-5.1 0-8.1 2.6-2.9 2.6-2.9 7.2 0 4.1 2.5 6.2 1.2 1 3.1 1.8 1.9 0.8 3.9 1.1l2.3 0.3 2.9 0.5q3.3 0.5 5.1 1.2 1.8 0.7 3.3 1.9 2 1.6 3.1 4 1.1 2.4 1.1 5.2 0 6-4.3 9.6z"/>
				<path id="&lt;Compound Path&gt;" class="s4" d="m379.7 285.2q-4.4 3.8-10.6 3.8-3.4 0-6.5-1.3-3.1-1.3-5.4-3.6-1.6-1.6-2.5-3.3-0.9-1.8-1.3-3.8-0.4-2.1-0.5-4.7-0.1-2.7-0.1-7.5 0-4.8 0.1-7.4 0.1-2.6 0.5-4.7 0.4-2.1 1.3-3.8 0.9-1.7 2.5-3.3 2.3-2.4 5.4-3.6 3.1-1.3 6.5-1.3 6.3 0 10.6 3.7 4.4 3.7 5.5 10.2h-3.7q-1-5-4.3-7.8-3.3-2.9-8.1-2.9-5.4 0-9 3.7-1.3 1.2-2 2.7-0.8 1.4-1.1 3.3-0.4 1.8-0.5 4.3-0.1 2.5-0.1 6.9 0 4.4 0.1 6.9 0.1 2.5 0.5 4.4 0.3 1.9 1.1 3.3 0.7 1.4 2 2.7 3.6 3.7 9 3.7 4.8 0 8.1-2.9 3.4-2.9 4.5-7.8h3.5q-1.1 6.4-5.5 10.1z"/>
				<path id="&lt;Compound Path&gt;" class="s4" d="m424.3 288.6v-22.4h-24.7v22.4h-3.6v-47.5h3.6v21.9h24.7v-21.9h3.6v47.5z"/>
				<path id="&lt;Compound Path&gt;" fill-rule="evenodd" class="s4" d="m471.5 272.3q-0.1 2.6-0.5 4.7-0.4 2-1.3 3.8-0.9 1.7-2.5 3.3-2.4 2.3-5.5 3.6-3.1 1.3-6.4 1.3-3.3 0-6.4-1.3-3.1-1.3-5.5-3.6-1.6-1.6-2.5-3.3-0.9-1.8-1.3-3.8-0.4-2.1-0.5-4.7-0.1-2.7-0.1-7.5 0-4.8 0.1-7.4 0.1-2.6 0.5-4.7 0.4-2.1 1.3-3.8 0.9-1.7 2.5-3.3 2.4-2.4 5.5-3.6 3.1-1.3 6.4-1.3 3.3 0 6.4 1.3 3.1 1.2 5.5 3.6 1.6 1.6 2.5 3.3 0.9 1.7 1.3 3.8 0.4 2.1 0.5 4.7 0.1 2.6 0.1 7.4 0 4.8-0.1 7.5zm-3.6-14.4q-0.1-2.5-0.5-4.3-0.3-1.9-1.1-3.3-0.7-1.5-2-2.7-3.7-3.7-9-3.7-5.3 0-9 3.7-1.3 1.2-2 2.7-0.7 1.4-1.1 3.3-0.4 1.8-0.5 4.3-0.1 2.5-0.1 6.9 0 4.4 0.1 6.9 0.1 2.5 0.5 4.4 0.4 1.9 1.1 3.3 0.7 1.4 2 2.7 3.7 3.7 9 3.7 5.3 0 9-3.7 1.3-1.3 2-2.7 0.8-1.4 1.1-3.3 0.4-1.9 0.5-4.4 0.1-2.5 0.1-6.9 0-4.4-0.1-6.9z"/>
				<path id="&lt;Compound Path&gt;" fill-rule="evenodd" class="s4" d="m513.3 272.3q-0.1 2.6-0.5 4.7-0.4 2-1.3 3.8-0.9 1.7-2.5 3.3-2.3 2.3-5.4 3.6-3.1 1.3-6.5 1.3-3.3 0-6.4-1.3-3.1-1.3-5.4-3.6-1.6-1.6-2.5-3.3-0.9-1.8-1.3-3.8-0.4-2.1-0.5-4.7-0.1-2.7-0.1-7.5 0-4.8 0.1-7.4 0.1-2.6 0.5-4.7 0.4-2.1 1.3-3.8 0.9-1.7 2.5-3.3 2.3-2.4 5.4-3.6 3.1-1.3 6.4-1.3 3.4 0 6.5 1.3 3.1 1.2 5.4 3.6 1.6 1.6 2.5 3.3 0.9 1.7 1.3 3.8 0.4 2.1 0.5 4.7 0.1 2.6 0.1 7.4 0 4.8-0.1 7.5zm-3.6-14.4q-0.1-2.5-0.5-4.3-0.3-1.9-1.1-3.3-0.7-1.5-2-2.7-3.6-3.7-9-3.7-5.3 0-9 3.7-1.2 1.2-2 2.7-0.7 1.4-1.1 3.3-0.3 1.8-0.4 4.3-0.1 2.5-0.1 6.9 0 4.4 0.1 6.9 0.1 2.5 0.4 4.4 0.4 1.9 1.1 3.3 0.8 1.4 2 2.7 3.7 3.7 9 3.7 5.4 0 9-3.7 1.3-1.3 2-2.7 0.8-1.4 1.1-3.3 0.4-1.9 0.5-4.4 0.1-2.5 0.1-6.9 0-4.4-0.1-6.9z"/>
				<path id="&lt;Compound Path&gt;" class="s4" d="m524.5 288.6v-47.5h3.6v44.3h25.3v3.2z"/>
				<path id="&lt;Compound Path&gt;" fill-rule="evenodd" class="s4" d="m606.9 272.3q-0.1 2.6-0.5 4.7-0.4 2-1.3 3.8-0.9 1.7-2.5 3.3-2.3 2.3-5.4 3.6-3.1 1.3-6.4 1.3-3.4 0-6.5-1.3-3.1-1.3-5.4-3.6-1.6-1.6-2.5-3.3-0.9-1.8-1.3-3.8-0.4-2.1-0.5-4.7-0.1-2.7-0.1-7.5 0-4.8 0.1-7.4 0.1-2.6 0.5-4.7 0.4-2.1 1.3-3.8 0.9-1.7 2.5-3.3 2.3-2.4 5.4-3.6 3.1-1.3 6.5-1.3 3.3 0 6.4 1.3 3.1 1.2 5.4 3.6 1.6 1.6 2.5 3.3 0.9 1.7 1.3 3.8 0.4 2.1 0.5 4.7 0.1 2.6 0.1 7.4 0 4.8-0.1 7.5zm-3.6-14.4q-0.1-2.5-0.4-4.3-0.4-1.9-1.1-3.3-0.8-1.5-2-2.7-3.7-3.7-9-3.7-5.4 0-9 3.7-1.3 1.2-2 2.7-0.8 1.4-1.1 3.3-0.4 1.8-0.5 4.3-0.1 2.5-0.1 6.9 0 4.4 0.1 6.9 0.1 2.5 0.5 4.4 0.3 1.9 1.1 3.3 0.7 1.4 2 2.7 3.6 3.7 9 3.7 5.3 0 9-3.7 1.2-1.3 2-2.7 0.7-1.4 1.1-3.3 0.3-1.9 0.4-4.4 0.1-2.5 0.1-6.9 0-4.4-0.1-6.9z"/>
				<path id="&lt;Compound Path&gt;" class="s4" d="m621.8 244.3v19.5h21.5v3.2h-21.5v21.6h-3.6v-47.5h28.8v3.2z"/>
				<path id="&lt;Compound Path&gt;" class="s4" d="m695.6 285.1q-4.5 3.9-11.1 3.9-7.4 0-12.5-5.1-1.7-1.7-2.6-3.5-1-1.9-1.4-4.1-0.4-2.1-0.5-4.6-0.1-2.5-0.1-6.9 0-4.4 0.1-6.9 0.1-2.4 0.5-4.6 0.5-2.1 1.4-4 0.9-1.9 2.6-3.5 5.1-5.1 12.5-5.1 6.6 0 11.2 3.8 4.5 3.8 5.7 10.8h-7.3q-0.9-3.7-3.4-5.9-2.4-2.2-6.2-2.2-2.1 0-3.9 0.7-1.9 0.8-3.1 2.1-0.9 1-1.5 2.1-0.5 1.1-0.8 2.7-0.3 1.6-0.5 4-0.1 2.3-0.1 6 0 3.8 0.1 6.1 0.2 2.4 0.5 4 0.3 1.6 0.8 2.7 0.5 1 1.5 2 1.2 1.4 3.1 2.1 1.8 0.8 3.9 0.8 3.8 0 6.3-2.2 2.5-2.2 3.3-5.9h7.3q-1.2 6.9-5.8 10.7z"/>
				<path id="&lt;Compound Path&gt;" fill-rule="evenodd" class="s4" d="m741.7 271.8q-0.1 2.5-0.6 4.7-0.4 2.2-1.3 4-1 1.8-2.6 3.4-5 5.1-12.5 5.1-7.4 0-12.5-5.1-1.7-1.7-2.6-3.5-1-1.9-1.4-4.1-0.4-2.1-0.5-4.6-0.1-2.5-0.1-6.9 0-4.4 0.1-6.9 0.1-2.4 0.5-4.6 0.5-2.1 1.4-4 0.9-1.9 2.6-3.5 5.1-5.1 12.5-5.1 7.5 0 12.5 5.1 1.6 1.6 2.6 3.4 0.9 1.8 1.3 4 0.5 2.2 0.6 4.7 0.1 2.5 0.1 6.9 0 4.4-0.1 7zm-7.2-13q-0.1-2.4-0.4-4-0.3-1.6-0.9-2.6-0.5-1.1-1.4-2.1-1.3-1.4-3.2-2.2-1.9-0.7-3.9-0.7-2.1 0-4 0.7-1.8 0.8-3.1 2.2-0.8 0.9-1.4 2-0.6 1.1-0.8 2.7-0.3 1.6-0.4 4-0.2 2.4-0.2 6 0 3.7 0.2 6.1 0.1 2.3 0.4 3.9 0.3 1.6 0.8 2.7 0.5 1.1 1.4 2.1 1.3 1.3 3.1 2.1 1.9 0.8 4 0.8 2 0 3.9-0.8 1.9-0.8 3.2-2.1 0.8-1 1.4-2.1 0.6-1.1 0.9-2.6 0.3-1.6 0.4-4 0.1-2.4 0.1-6.1 0-3.6-0.1-6z"/>
				<path id="&lt;Compound Path&gt;" class="s4" d="m785.4 288.6v-31.8l-10.9 23.2h-5.3l-11.2-23.2v31.8h-7.2v-47.5h7.2l13.8 29.5 13.6-29.5h7.2v47.5z"/>
				<path id="&lt;Compound Path&gt;" class="s4" d="m838 288.6v-31.8l-10.9 23.2h-5.4l-11.2-23.2v31.8h-7.2v-47.5h7.2l13.9 29.5 13.6-29.5h7.2v47.5z"/>
				<path id="&lt;Compound Path&gt;" class="s4" d="m887.9 279.2q-1.3 3-3.6 5.2-2.3 2.2-5.4 3.4-3.2 1.2-6.8 1.2-3.6 0-6.7-1.2-3.1-1.2-5.4-3.4-2.3-2.2-3.6-5.2-1.3-3-1.3-6.6v-31.5h7.2v31.1q0 4.8 2.7 7.5 2.7 2.8 7.1 2.8 4.5 0 7.2-2.8 2.7-2.7 2.7-7.5v-31.1h7.2v31.5q0 3.6-1.3 6.6z"/>
				<path id="&lt;Compound Path&gt;" class="s4" d="m928.4 288.6l-14.4-22-7.6-11.4v33.4h-7.2v-47.5h6.6l13.6 20.5 8.4 12.8v-33.3h7.2v47.5z"/>
				<path id="&lt;Compound Path&gt;" class="s4" d="m945.7 288.6v-47.5h7.2v47.5z"/>
				<path id="&lt;Compound Path&gt;" class="s4" d="m990.2 285.1q-4.6 3.9-11.2 3.9-7.4 0-12.5-5.1-1.7-1.7-2.6-3.5-1-1.9-1.4-4.1-0.4-2.1-0.5-4.6-0.1-2.5-0.1-6.9 0-4.4 0.1-6.9 0.1-2.4 0.5-4.6 0.5-2.1 1.4-4 0.9-1.9 2.6-3.5 5.1-5.1 12.5-5.1 6.7 0 11.2 3.8 4.5 3.8 5.7 10.8h-7.3q-0.9-3.7-3.3-5.9-2.5-2.2-6.3-2.2-2.1 0-3.9 0.7-1.8 0.8-3.1 2.1-0.9 1-1.5 2.1-0.5 1.1-0.8 2.7-0.3 1.6-0.4 4-0.2 2.3-0.2 6 0 3.8 0.2 6.1 0.1 2.4 0.4 4 0.3 1.6 0.8 2.7 0.5 1 1.5 2 1.3 1.4 3.1 2.1 1.8 0.8 3.9 0.8 3.9 0 6.3-2.2 2.5-2.2 3.4-5.9h7.2q-1.2 6.9-5.7 10.7z"/>
				<path id="&lt;Compound Path&gt;" fill-rule="evenodd" class="s4" d="m1030.5 288.6l-3.3-9.6h-18.7l-3.3 9.6h-7.7l17.4-47.5h5.8l17.4 47.5zm-12.4-36.8l-7.4 21.1h14.6z"/>
				<path id="&lt;Compound Path&gt;" class="s4" d="m1055.3 247.6v41h-7.2v-41h-13.1v-6.5h33.4v6.5z"/>
				<path id="&lt;Compound Path&gt;" class="s4" d="m1074.9 288.6v-47.5h7.2v47.5z"/>
				<path id="&lt;Compound Path&gt;" fill-rule="evenodd" class="s4" d="m1125.1 271.8q-0.1 2.5-0.5 4.7-0.4 2.2-1.4 4-0.9 1.8-2.5 3.4-5.1 5.1-12.5 5.1-7.4 0-12.5-5.1-1.7-1.7-2.6-3.5-1-1.9-1.4-4.1-0.4-2.1-0.5-4.6-0.1-2.5-0.1-6.9 0-4.4 0.1-6.9 0.1-2.4 0.5-4.6 0.5-2.1 1.4-4 0.9-1.9 2.6-3.5 5.1-5.1 12.5-5.1 7.4 0 12.5 5.1 1.6 1.6 2.5 3.4 1 1.8 1.4 4 0.4 2.2 0.5 4.7 0.1 2.5 0.1 6.9 0 4.4-0.1 7zm-7.2-13q-0.1-2.4-0.4-4-0.3-1.6-0.8-2.6-0.5-1.1-1.5-2.1-1.2-1.4-3.1-2.2-1.9-0.7-3.9-0.7-2.1 0-4 0.7-1.8 0.8-3.1 2.2-0.9 0.9-1.4 2-0.6 1.1-0.9 2.7-0.2 1.6-0.4 4-0.1 2.4-0.1 6 0 3.7 0.1 6.1 0.2 2.3 0.5 3.9 0.3 1.6 0.8 2.7 0.5 1.1 1.4 2.1 1.3 1.3 3.1 2.1 1.9 0.8 4 0.8 2 0 3.9-0.8 1.9-0.8 3.1-2.1 0.9-1 1.5-2.1 0.5-1.1 0.8-2.6 0.3-1.6 0.4-4 0.1-2.4 0.1-6.1 0-3.6-0.1-6z"/>
				<path id="&lt;Compound Path&gt;" class="s4" d="m1163.4 288.6l-14.4-22-7.5-11.4v33.4h-7.2v-47.5h6.6l13.5 20.5 8.4 12.8v-33.3h7.2v47.5z"/>
				<path id="&lt;Compound Path&gt;" fill-rule="evenodd" class="s4" d="m345.1 355.3l-4.1-11.6h-22.1l-4.2 11.6h-3.8l17.4-47.5h3.2l17.5 47.5zm-15.2-42.7l-9.9 27.9h19.8z"/>
				<path id="&lt;Compound Path&gt;" class="s4" d="m386.7 355.3l-15.2-22.8-12.2-18.5v41.3h-3.6v-47.5h3.6l15 22.7 12.4 18.4v-41.1h3.6v47.5z"/>
				<path id="&lt;Compound Path&gt;" fill-rule="evenodd" class="s4" d="m435.6 337.1q-0.1 2.6-0.6 5.2-0.4 2.6-1.4 4.8-0.9 2.2-2.5 3.8-4.3 4.4-11.9 4.4h-15.9v-47.5h15.9q7.6 0 11.9 4.3 3 3 3.8 7.3 0.8 4.3 0.8 11.5 0 3.5-0.1 6.2zm-4.1-16.4q-0.7-3.8-2.9-6-2-2-4.6-2.9-2.6-0.8-5.6-0.8h-11.5v41.1h11.5q3 0 5.6-0.9 2.6-0.8 4.6-2.8 2.2-2.3 2.9-6.5 0.6-4.2 0.6-11 0-6.4-0.6-10.2z"/>
				<path id="&lt;Compound Path&gt;" class="s4" d="m495.7 355.3v-31.8l-10.9 23.2h-5.3l-11.3-23.2v31.8h-7.2v-47.5h7.2l13.9 29.5 13.6-29.5h7.2v47.5z"/>
				<path id="&lt;Compound Path&gt;" class="s4" d="m513.6 355.3v-47.5h30.3v6.5h-23.1v13.8h19.7v6.4h-19.7v14.3h23.1v6.5z"/>
				<path id="&lt;Compound Path&gt;" fill-rule="evenodd" class="s4" d="m585 343.3q-0.8 4.4-3.9 7.5-4.5 4.5-12.3 4.5h-16.6v-47.5h16.6q7.8 0 12.3 4.5 3.1 3 4 7.2 0.8 4.2 0.8 11.7 0 7.7-0.9 12.1zm-6.7-21q-0.5-3-2.1-4.8-3-3.2-8.1-3.2h-8.7v34.5h8.7q5.1 0 8.1-3.2 1.6-1.9 2.1-5.1 0.4-3.2 0.4-9.3 0-5.9-0.4-8.9z"/>
				<path id="&lt;Compound Path&gt;" class="s4" d="m594.9 355.3v-47.5h7.2v47.5z"/>
				<path id="&lt;Compound Path&gt;" fill-rule="evenodd" class="s4" d="m640.1 355.3l-3.2-9.6h-18.8l-3.3 9.6h-7.6l17.4-47.5h5.8l17.4 47.5zm-12.5-36.8l-7.4 21.1h14.6z"/>
				<path id="&lt;Compound Path&gt;" class="s4" d="m692.1 351.9q-4.7 3.8-12.3 3.8-5.5 0-9.5-1.5-4-1.4-7.3-4.8l4.8-4.7q2.5 2.4 5.4 3.5 2.9 1 6.7 1 4.7 0 7.3-1.9 2.5-1.9 2.5-5.4 0-3.2-1.8-4.9-0.9-0.9-2-1.3-1.2-0.4-3.2-0.7l-2.8-0.4-2.8-0.4q-5.8-0.8-9-3.8-3.5-3.3-3.5-9.1 0-6.2 4.3-10.1 4.2-3.8 11.6-3.8 4.7 0 8.2 1.3 3.4 1.2 6.5 4.1l-4.6 4.5q-2.1-2-4.6-2.8-2.5-0.8-5.7-0.8-4.1 0-6.4 2-2.3 2.1-2.3 5.4 0 2.8 1.8 4.4 1.9 1.6 5.3 2.2l2.8 0.4 2.6 0.4q3.3 0.4 5.3 1.3 2.1 0.8 3.6 2.2 3.9 3.4 3.9 9.7 0 6.5-4.8 10.2z"/>
				<path id="&lt;Compound Path&gt;" class="s4" d="m721 314.3v41h-7.3v-41h-13v-6.5h33.3v6.5z"/>
				<path id="&lt;Compound Path&gt;" class="s4" d="m772.6 345.9q-1.3 3-3.6 5.2-2.3 2.2-5.4 3.4-3.2 1.2-6.8 1.2-3.6 0-6.7-1.2-3.1-1.2-5.4-3.4-2.3-2.2-3.6-5.2-1.3-3-1.3-6.6v-31.5h7.2v31.1q0 4.8 2.7 7.5 2.7 2.8 7.1 2.8 4.5 0 7.2-2.8 2.7-2.7 2.7-7.5v-31.1h7.2v31.5q0 3.6-1.3 6.6z"/>
				<path id="&lt;Compound Path&gt;" fill-rule="evenodd" class="s4" d="m816.8 343.3q-0.9 4.4-3.9 7.5-4.5 4.5-12.3 4.5h-16.7v-47.5h16.7q7.8 0 12.3 4.5 3.1 3 3.9 7.2 0.9 4.2 0.9 11.7 0 7.7-0.9 12.1zm-6.8-21q-0.4-3-2.1-4.8-2.9-3.2-8.1-3.2h-8.7v34.5h8.7q5.2 0 8.1-3.2 1.7-1.9 2.1-5.1 0.5-3.2 0.5-9.3 0-5.9-0.5-8.9z"/>
				<path id="&lt;Compound Path&gt;" class="s4" d="m826.7 355.3v-47.5h7.2v47.5z"/>
				<path id="&lt;Compound Path&gt;" class="s4" d="m844.6 355.3v-47.5h30.3v6.5h-23.1v13.8h19.7v6.4h-19.7v14.3h23.1v6.5z"/>
				<path id="&lt;Compound Path&gt;" class="s4" d="m908.1 351.9q-4.7 3.8-12.3 3.8-5.5 0-9.5-1.5-4-1.4-7.4-4.8l4.9-4.7q2.5 2.4 5.4 3.5 2.8 1 6.7 1 4.7 0 7.2-1.9 2.6-1.9 2.6-5.4 0-3.2-1.9-4.9-0.8-0.9-2-1.3-1.1-0.4-3.2-0.7l-2.8-0.4-2.8-0.4q-5.8-0.8-9-3.8-3.5-3.3-3.5-9.1 0-6.2 4.3-10.1 4.3-3.8 11.6-3.8 4.8 0 8.2 1.3 3.5 1.2 6.6 4.1l-4.6 4.5q-2.1-2-4.6-2.8-2.6-0.8-5.8-0.8-4 0-6.3 2-2.3 2.1-2.3 5.4 0 2.8 1.8 4.4 1.8 1.6 5.3 2.2l2.8 0.4 2.6 0.4q3.3 0.4 5.3 1.3 2 0.8 3.6 2.2 3.8 3.4 3.8 9.7 0 6.5-4.7 10.2z"/>
			</g>
		</g>
	</g>
</svg>