<?xml version="1.0" encoding="UTF-8" standalone="no"?>
<svg
   version="1.1"
   id="Layer_1"
   x="0px"
   y="0px"
   viewBox="112.39299 94.26 275.21399 311.48"
   xml:space="preserve"
   enable-background="new 0 0 500 500"
   sodipodi:docname="ai-hed-logo-icon-green-gradient.svg"
   inkscape:version="1.4 (e7c3feb1, 2024-10-09)"
   width="275.21399"
   height="311.48001"
   xmlns:inkscape="http://www.inkscape.org/namespaces/inkscape"
   xmlns:sodipodi="http://sodipodi.sourceforge.net/DTD/sodipodi-0.dtd"
   xmlns:xlink="http://www.w3.org/1999/xlink"
   xmlns="http://www.w3.org/2000/svg"
   xmlns:svg="http://www.w3.org/2000/svg"><sodipodi:namedview
   id="namedview15"
   pagecolor="#ffffff"
   bordercolor="#000000"
   borderopacity="0.25"
   inkscape:showpageshadow="2"
   inkscape:pageopacity="0.0"
   inkscape:pagecheckerboard="0"
   inkscape:deskcolor="#d1d1d1"
   inkscape:zoom="1.0974766"
   inkscape:cx="150.80048"
   inkscape:cy="197.72631"
   inkscape:window-width="1472"
   inkscape:window-height="835"
   inkscape:window-x="0"
   inkscape:window-y="37"
   inkscape:window-maximized="0"
   inkscape:current-layer="Layer_1" />











<defs
   id="defs15"><linearGradient
     inkscape:collect="always"
     xlink:href="#gradient-92c3a873-f982-4296-86bc-740686b5c2e0_1"
     id="linearGradient1"
     x1="-9.3600836"
     y1="-1.8424461"
     x2="-1.2380484"
     y2="7.3275938"
     gradientUnits="userSpaceOnUse" /><linearGradient
     id="gradient-92c3a873-f982-4296-86bc-740686b5c2e0_1"
     x1="0"
     x2="1"
     y1="0"
     y2="1"><stop
       stop-color="#63a376"
       offset="0"
       id="stop22" /><stop
       stop-color="#4c7f5c"
       offset="1"
       id="stop23"
       style="stop-color:#396144;stop-opacity:1;" /></linearGradient><clipPath
     id="SvgjsClipPath1002"><path
       d="M -11.146066,-3.9777636 H -0.4 V 8.1843521 h -10.746066 z"
       id="path19" /></clipPath><clipPath
     id="SvgjsClipPath1000dff91d8c-420c-44a7-a374-d2999ab675af"><path
       d="M -11.146066,-3.9777636 H -0.4 V 8.1843521 h -10.746066 z"
       id="path20" /></clipPath><clipPath
     id="clipPath7"><path
       d="M -11.146066,-3.9777636 H -0.4 V 8.1843521 h -10.746066 z"
       id="path7-6" /></clipPath><clipPath
     id="clipPath11"><path
       d="M -11.146066,-3.9777636 H -0.4 V 8.1843521 h -10.746066 z"
       id="path11-4" /></clipPath><clipPath
     id="clipPath15"><path
       d="M -11.146066,-3.9777636 H -0.4 V 8.1843521 h -10.746066 z"
       id="path15-3" /></clipPath><clipPath
     id="clipPath21"><path
       d="M -11.146066,-3.9777636 H -0.4 V 8.1843521 h -10.746066 z"
       id="path21" /></clipPath><clipPath
     id="clipPath26"><path
       d="M -11.146066,-3.9777636 H -0.4 V 8.1843521 h -10.746066 z"
       id="path26" /></clipPath><clipPath
     id="clipPath30"><path
       d="M -11.146066,-3.9777636 H -0.4 V 8.1843521 h -10.746066 z"
       id="path30" /></clipPath><clipPath
     id="clipPath34"><path
       d="M -11.146066,-3.9777636 H -0.4 V 8.1843521 h -10.746066 z"
       id="path34" /></clipPath><clipPath
     id="clipPath38"><path
       d="M -11.146066,-3.9777636 H -0.4 V 8.1843521 h -10.746066 z"
       id="path38" /></clipPath><clipPath
     id="clipPath42"><path
       d="M -11.146066,-3.9777636 H -0.4 V 8.1843521 h -10.746066 z"
       id="path42" /></clipPath><clipPath
     id="clipPath46"><path
       d="M -11.146066,-3.9777636 H -0.4 V 8.1843521 h -10.746066 z"
       id="path46" /></clipPath><clipPath
     id="clipPath50"><path
       d="M -11.146066,-3.9777636 H -0.4 V 8.1843521 h -10.746066 z"
       id="path50" /></clipPath><clipPath
     id="clipPath54"><path
       d="M -11.146066,-3.9777636 H -0.4 V 8.1843521 h -10.746066 z"
       id="path54" /></clipPath><clipPath
     id="clipPath58"><path
       d="M -11.146066,-3.9777636 H -0.4 V 8.1843521 h -10.746066 z"
       id="path58" /></clipPath><clipPath
     id="clipPath62"><path
       d="M -11.146066,-3.9777636 H -0.4 V 8.1843521 h -10.746066 z"
       id="path62" /></clipPath><linearGradient
     inkscape:collect="always"
     xlink:href="#gradient-92c3a873-f982-4296-86bc-740686b5c2e0_1"
     id="linearGradient2"
     gradientUnits="userSpaceOnUse"
     x1="-9.3600836"
     y1="-1.8424461"
     x2="-1.2380484"
     y2="7.3275938" /><linearGradient
     inkscape:collect="always"
     xlink:href="#gradient-92c3a873-f982-4296-86bc-740686b5c2e0_1"
     id="linearGradient3"
     gradientUnits="userSpaceOnUse"
     x1="-9.3600836"
     y1="-1.8424461"
     x2="-1.2380484"
     y2="7.3275938" /><linearGradient
     inkscape:collect="always"
     xlink:href="#gradient-92c3a873-f982-4296-86bc-740686b5c2e0_1"
     id="linearGradient4"
     gradientUnits="userSpaceOnUse"
     x1="-9.3600836"
     y1="-1.8424461"
     x2="-1.2380484"
     y2="7.3275938" /><linearGradient
     inkscape:collect="always"
     xlink:href="#gradient-92c3a873-f982-4296-86bc-740686b5c2e0_1"
     id="linearGradient5"
     gradientUnits="userSpaceOnUse"
     x1="-9.3600836"
     y1="-1.8424461"
     x2="-1.2380484"
     y2="7.3275938" /><linearGradient
     inkscape:collect="always"
     xlink:href="#gradient-92c3a873-f982-4296-86bc-740686b5c2e0_1"
     id="linearGradient6"
     gradientUnits="userSpaceOnUse"
     x1="-9.3600836"
     y1="-1.8424461"
     x2="-1.2380484"
     y2="7.3275938" /><linearGradient
     inkscape:collect="always"
     xlink:href="#gradient-92c3a873-f982-4296-86bc-740686b5c2e0_1"
     id="linearGradient7"
     gradientUnits="userSpaceOnUse"
     x1="-9.3600836"
     y1="-1.8424461"
     x2="-1.2380484"
     y2="7.3275938" /><linearGradient
     inkscape:collect="always"
     xlink:href="#gradient-92c3a873-f982-4296-86bc-740686b5c2e0_1"
     id="linearGradient8"
     gradientUnits="userSpaceOnUse"
     x1="-9.3600836"
     y1="-1.8424461"
     x2="-1.2380484"
     y2="7.3275938" /><linearGradient
     inkscape:collect="always"
     xlink:href="#gradient-92c3a873-f982-4296-86bc-740686b5c2e0_1"
     id="linearGradient9"
     gradientUnits="userSpaceOnUse"
     x1="-9.3600836"
     y1="-1.8424461"
     x2="-1.2380484"
     y2="7.3275938" /><linearGradient
     inkscape:collect="always"
     xlink:href="#gradient-92c3a873-f982-4296-86bc-740686b5c2e0_1"
     id="linearGradient10"
     gradientUnits="userSpaceOnUse"
     x1="-9.3600836"
     y1="-1.8424461"
     x2="-1.2380484"
     y2="7.3275938" /><linearGradient
     inkscape:collect="always"
     xlink:href="#gradient-92c3a873-f982-4296-86bc-740686b5c2e0_1"
     id="linearGradient11"
     gradientUnits="userSpaceOnUse"
     x1="-9.3600836"
     y1="-1.8424461"
     x2="-1.2380484"
     y2="7.3275938" /><linearGradient
     inkscape:collect="always"
     xlink:href="#gradient-92c3a873-f982-4296-86bc-740686b5c2e0_1"
     id="linearGradient12"
     gradientUnits="userSpaceOnUse"
     x1="-9.3600836"
     y1="-1.8424461"
     x2="-1.2380484"
     y2="7.3275938" /><linearGradient
     inkscape:collect="always"
     xlink:href="#gradient-92c3a873-f982-4296-86bc-740686b5c2e0_1"
     id="linearGradient13"
     gradientUnits="userSpaceOnUse"
     x1="-9.3600836"
     y1="-1.8424461"
     x2="-1.2380484"
     y2="7.3275938" /><linearGradient
     inkscape:collect="always"
     xlink:href="#gradient-92c3a873-f982-4296-86bc-740686b5c2e0_1"
     id="linearGradient14"
     gradientUnits="userSpaceOnUse"
     x1="-9.3600836"
     y1="-1.8424461"
     x2="-1.2380484"
     y2="7.3275938" /><linearGradient
     inkscape:collect="always"
     xlink:href="#gradient-92c3a873-f982-4296-86bc-740686b5c2e0_1"
     id="linearGradient15"
     gradientUnits="userSpaceOnUse"
     x1="-9.3600836"
     y1="-1.8424461"
     x2="-1.2380484"
     y2="7.3275938" /><linearGradient
     inkscape:collect="always"
     xlink:href="#gradient-92c3a873-f982-4296-86bc-740686b5c2e0_1"
     id="linearGradient16"
     gradientUnits="userSpaceOnUse"
     x1="-9.3600836"
     y1="-1.8424461"
     x2="-1.2380484"
     y2="7.3275938" /><linearGradient
     inkscape:collect="always"
     xlink:href="#gradient-92c3a873-f982-4296-86bc-740686b5c2e0_1"
     id="linearGradient17"
     gradientUnits="userSpaceOnUse"
     x1="-9.3600836"
     y1="-1.8424461"
     x2="-1.2380484"
     y2="7.3275938" /><linearGradient
     inkscape:collect="always"
     xlink:href="#gradient-92c3a873-f982-4296-86bc-740686b5c2e0_1"
     id="linearGradient18"
     gradientUnits="userSpaceOnUse"
     x1="-9.3600836"
     y1="-1.8424461"
     x2="-1.2380484"
     y2="7.3275938" /><linearGradient
     inkscape:collect="always"
     xlink:href="#gradient-92c3a873-f982-4296-86bc-740686b5c2e0_1"
     id="linearGradient19"
     gradientUnits="userSpaceOnUse"
     x1="-9.3600836"
     y1="-1.8424461"
     x2="-1.2380484"
     y2="7.3275938" /><linearGradient
     inkscape:collect="always"
     xlink:href="#gradient-92c3a873-f982-4296-86bc-740686b5c2e0_1"
     id="linearGradient20"
     gradientUnits="userSpaceOnUse"
     x1="-9.3600836"
     y1="-1.8424461"
     x2="-1.2380484"
     y2="7.3275938" /><linearGradient
     inkscape:collect="always"
     xlink:href="#gradient-92c3a873-f982-4296-86bc-740686b5c2e0_1"
     id="linearGradient21"
     gradientUnits="userSpaceOnUse"
     x1="-9.3600836"
     y1="-1.8424461"
     x2="-1.2380484"
     y2="7.3275938" /><linearGradient
     inkscape:collect="always"
     xlink:href="#gradient-92c3a873-f982-4296-86bc-740686b5c2e0_1"
     id="linearGradient22"
     gradientUnits="userSpaceOnUse"
     x1="-9.3600836"
     y1="-1.8424461"
     x2="-1.2380484"
     y2="7.3275938" /><linearGradient
     inkscape:collect="always"
     xlink:href="#gradient-92c3a873-f982-4296-86bc-740686b5c2e0_1"
     id="linearGradient23"
     gradientUnits="userSpaceOnUse"
     x1="-9.3600836"
     y1="-1.8424461"
     x2="-1.2380484"
     y2="7.3275938" /><linearGradient
     inkscape:collect="always"
     xlink:href="#gradient-92c3a873-f982-4296-86bc-740686b5c2e0_1"
     id="linearGradient24"
     gradientUnits="userSpaceOnUse"
     x1="-9.3600836"
     y1="-1.8424461"
     x2="-1.2380484"
     y2="7.3275938" /><linearGradient
     inkscape:collect="always"
     xlink:href="#gradient-92c3a873-f982-4296-86bc-740686b5c2e0_1"
     id="linearGradient25"
     gradientUnits="userSpaceOnUse"
     x1="-9.3600836"
     y1="-1.8424461"
     x2="-1.2380484"
     y2="7.3275938" /><linearGradient
     inkscape:collect="always"
     xlink:href="#gradient-92c3a873-f982-4296-86bc-740686b5c2e0_1"
     id="linearGradient26"
     gradientUnits="userSpaceOnUse"
     x1="-9.3600836"
     y1="-1.8424461"
     x2="-1.2380484"
     y2="7.3275938" /><linearGradient
     inkscape:collect="always"
     xlink:href="#gradient-92c3a873-f982-4296-86bc-740686b5c2e0_1"
     id="linearGradient27"
     gradientUnits="userSpaceOnUse"
     x1="-9.3600836"
     y1="-1.8424461"
     x2="-1.2380484"
     y2="7.3275938" /><linearGradient
     inkscape:collect="always"
     xlink:href="#gradient-92c3a873-f982-4296-86bc-740686b5c2e0_1"
     id="linearGradient28"
     gradientUnits="userSpaceOnUse"
     x1="-9.3600836"
     y1="-1.8424461"
     x2="-1.2380484"
     y2="7.3275938" /><linearGradient
     inkscape:collect="always"
     xlink:href="#gradient-92c3a873-f982-4296-86bc-740686b5c2e0_1"
     id="linearGradient29"
     gradientUnits="userSpaceOnUse"
     x1="-9.3600836"
     y1="-1.8424461"
     x2="-1.2380484"
     y2="7.3275938" /><linearGradient
     inkscape:collect="always"
     xlink:href="#gradient-92c3a873-f982-4296-86bc-740686b5c2e0_1"
     id="linearGradient30"
     gradientUnits="userSpaceOnUse"
     x1="-9.3600836"
     y1="-1.8424461"
     x2="-1.2380484"
     y2="7.3275938" /><linearGradient
     inkscape:collect="always"
     xlink:href="#gradient-92c3a873-f982-4296-86bc-740686b5c2e0_1"
     id="linearGradient31"
     gradientUnits="userSpaceOnUse"
     x1="-9.3600836"
     y1="-1.8424461"
     x2="-1.2380484"
     y2="7.3275938" /><clipPath
     id="SvgjsClipPath1002-1"><path
       d="M -11.146066,-3.9777636 H -0.4 V 8.1843521 h -10.746066 z"
       id="path19-4" /></clipPath><linearGradient
     id="linearGradient2-5"
     x1="-6.5570812"
     x2="-4.9889851"
     y1="-1.3273064"
     y2="0.24078973"
     gradientUnits="userSpaceOnUse"><stop
       stop-color="#63a376"
       offset="0"
       id="stop1" /><stop
       stop-color="#4c7f5c"
       offset="1"
       id="stop2"
       style="stop-color:#396144;stop-opacity:1;" /></linearGradient><clipPath
     id="SvgjsClipPath1000dff91d8c-420c-44a7-a374-d2999ab675af-9"><path
       d="M -11.146066,-3.9777636 H -0.4 V 8.1843521 h -10.746066 z"
       id="path20-0" /></clipPath><linearGradient
     id="linearGradient5-3"
     x1="-9.6447687"
     x2="-6.2947559"
     y1="-3.0622663"
     y2="0.28774673"
     gradientTransform="scale(1.1556584,0.86530758)"
     gradientUnits="userSpaceOnUse"><stop
       stop-color="#63a376"
       offset="0"
       id="stop4" /><stop
       stop-color="#4c7f5c"
       offset="1"
       id="stop5"
       style="stop-color:#396144;stop-opacity:1;" /></linearGradient><linearGradient
     id="linearGradient7-0"
     x1="-5.6608186"
     x2="-2.3104968"
     y1="1.5269951"
     y2="4.877317"
     gradientTransform="scale(1.1557651,0.86522772)"
     gradientUnits="userSpaceOnUse"><stop
       stop-color="#63a376"
       offset="0"
       id="stop6" /><stop
       stop-color="#4c7f5c"
       offset="1"
       id="stop7"
       style="stop-color:#396144;stop-opacity:1;" /></linearGradient><clipPath
     id="clipPath7-7"><path
       d="M -11.146066,-3.9777636 H -0.4 V 8.1843521 h -10.746066 z"
       id="path7" /></clipPath><linearGradient
     id="linearGradient9-7"
     x1="-5.6749115"
     x2="-2.3249846"
     y1="-1.5336291"
     y2="1.816298"
     gradientTransform="scale(1.1557846,0.86521308)"
     gradientUnits="userSpaceOnUse"><stop
       stop-color="#63a376"
       offset="0"
       id="stop8" /><stop
       stop-color="#4c7f5c"
       offset="1"
       id="stop9"
       style="stop-color:#396144;stop-opacity:1;" /></linearGradient><linearGradient
     id="linearGradient11-0"
     x1="-9.6426191"
     x2="-6.2926626"
     y1="-0.011427331"
     y2="3.3385289"
     gradientTransform="scale(1.1557947,0.86520556)"
     gradientUnits="userSpaceOnUse"><stop
       stop-color="#63a376"
       offset="0"
       id="stop10" /><stop
       stop-color="#4c7f5c"
       offset="1"
       id="stop11"
       style="stop-color:#396144;stop-opacity:1;" /></linearGradient><clipPath
     id="clipPath11-6"><path
       d="M -11.146066,-3.9777636 H -0.4 V 8.1843521 h -10.746066 z"
       id="path11" /></clipPath><linearGradient
     id="linearGradient13-7"
     x1="-18.289639"
     x2="-15.715427"
     y1="0.79369044"
     y2="3.3679025"
     gradientTransform="scale(0.60919708,1.6415049)"
     gradientUnits="userSpaceOnUse"><stop
       stop-color="#63a376"
       offset="0"
       id="stop12" /><stop
       stop-color="#4c7f5c"
       offset="1"
       id="stop13"
       style="stop-color:#396144;stop-opacity:1;" /></linearGradient><linearGradient
     id="linearGradient15-4"
     x1="-8.8420658"
     x2="-7.2739701"
     y1="2.6460366"
     y2="4.2141328"
     gradientUnits="userSpaceOnUse"><stop
       stop-color="#63a376"
       offset="0"
       id="stop14" /><stop
       stop-color="#4c7f5c"
       offset="1"
       id="stop15"
       style="stop-color:#396144;stop-opacity:1;" /></linearGradient><clipPath
     id="clipPath15-0"><path
       d="M -11.146066,-3.9777636 H -0.4 V 8.1843521 h -10.746066 z"
       id="path15" /></clipPath><linearGradient
     id="linearGradient17-6"
     x1="-7.6537843"
     x2="-4.3036571"
     y1="6.1085124"
     y2="9.4586391"
     gradientTransform="scale(1.155698,0.86527794)"
     gradientUnits="userSpaceOnUse"><stop
       stop-color="#63a376"
       offset="0"
       id="stop16" /><stop
       stop-color="#4c7f5c"
       offset="1"
       id="stop17"
       style="stop-color:#396144;stop-opacity:1;" /></linearGradient><linearGradient
     id="linearGradient19-4"
     x1="-5.6760211"
     x2="-2.3256996"
     y1="4.5821781"
     y2="7.9324999"
     gradientTransform="scale(1.1557651,0.86522772)"
     gradientUnits="userSpaceOnUse"><stop
       stop-color="#63a376"
       offset="0"
       id="stop18" /><stop
       stop-color="#4c7f5c"
       offset="1"
       id="stop19"
       style="stop-color:#396144;stop-opacity:1;" /></linearGradient><clipPath
     id="clipPath21-7"><path
       d="M -11.146066,-3.9777636 H -0.4 V 8.1843521 h -10.746066 z"
       id="path21-4" /></clipPath><linearGradient
     id="linearGradient24-8"
     x1="-4.2584305"
     x2="-2.6903341"
     y1="2.6382277"
     y2="4.2063236"
     gradientUnits="userSpaceOnUse"><stop
       stop-color="#63a376"
       offset="0"
       id="stop21" /><stop
       stop-color="#4c7f5c"
       offset="1"
       id="stop24"
       style="stop-color:#396144;stop-opacity:1;" /></linearGradient><linearGradient
     id="linearGradient26-8"
     x1="-3.2369626"
     x2="-0.66331011"
     y1="-0.81451136"
     y2="1.7591411"
     gradientTransform="scale(0.60917724,1.6415584)"
     gradientUnits="userSpaceOnUse"><stop
       stop-color="#63a376"
       offset="0"
       id="stop25" /><stop
       stop-color="#4c7f5c"
       offset="1"
       id="stop26"
       style="stop-color:#396144;stop-opacity:1;" /></linearGradient><clipPath
     id="clipPath26-9"><path
       d="M -11.146066,-3.9777636 H -0.4 V 8.1843521 h -10.746066 z"
       id="path26-9" /></clipPath><linearGradient
     id="linearGradient28-3"
     x1="-6.9908791"
     x2="-4.4166684"
     y1="-1.6182944"
     y2="0.95591623"
     gradientTransform="scale(0.60919678,1.6415057)"
     gradientUnits="userSpaceOnUse"><stop
       stop-color="#63a376"
       offset="0"
       id="stop27" /><stop
       stop-color="#4c7f5c"
       offset="1"
       id="stop28"
       style="stop-color:#396144;stop-opacity:1;" /></linearGradient><linearGradient
     id="linearGradient30-7"
     x1="-5.6631627"
     x2="-2.3132355"
     y1="-4.5974383"
     y2="-1.2475111"
     gradientTransform="scale(1.1557847,0.86521307)"
     gradientUnits="userSpaceOnUse"><stop
       stop-color="#63a376"
       offset="0"
       id="stop29" /><stop
       stop-color="#4c7f5c"
       offset="1"
       id="stop30"
       style="stop-color:#396144;stop-opacity:1;" /></linearGradient><clipPath
     id="clipPath30-7"><path
       d="M -11.146066,-3.9777636 H -0.4 V 8.1843521 h -10.746066 z"
       id="path30-3" /></clipPath><clipPath
     id="clipPath34-5"><path
       d="M -11.146066,-3.9777636 H -0.4 V 8.1843521 h -10.746066 z"
       id="path34-6" /></clipPath><clipPath
     id="clipPath38-3"><path
       d="M -11.146066,-3.9777636 H -0.4 V 8.1843521 h -10.746066 z"
       id="path38-4" /></clipPath><clipPath
     id="clipPath42-0"><path
       d="M -11.146066,-3.9777636 H -0.4 V 8.1843521 h -10.746066 z"
       id="path42-6" /></clipPath><clipPath
     id="clipPath46-0"><path
       d="M -11.146066,-3.9777636 H -0.4 V 8.1843521 h -10.746066 z"
       id="path46-5" /></clipPath><clipPath
     id="clipPath50-8"><path
       d="M -11.146066,-3.9777636 H -0.4 V 8.1843521 h -10.746066 z"
       id="path50-5" /></clipPath><clipPath
     id="clipPath54-3"><path
       d="M -11.146066,-3.9777636 H -0.4 V 8.1843521 h -10.746066 z"
       id="path54-7" /></clipPath><clipPath
     id="clipPath58-6"><path
       d="M -11.146066,-3.9777636 H -0.4 V 8.1843521 h -10.746066 z"
       id="path58-8" /></clipPath><clipPath
     id="clipPath62-6"><path
       d="M -11.146066,-3.9777636 H -0.4 V 8.1843521 h -10.746066 z"
       id="path62-7" /></clipPath><clipPath
     id="SvgjsClipPath1002-2"><path
       d="M -11.146066,-3.9777636 H -0.4 V 8.1843521 h -10.746066 z"
       id="path19-7" /></clipPath><linearGradient
     id="linearGradient2-9"
     x1="-6.5570812"
     x2="-4.9889851"
     y1="-1.3273064"
     y2="0.24078972"
     gradientUnits="userSpaceOnUse"><stop
       stop-color="#63a376"
       offset="0"
       id="stop1-7" /><stop
       stop-color="#4c7f5c"
       offset="1"
       id="stop2-7"
       style="stop-color:#396144;stop-opacity:1;" /></linearGradient><clipPath
     id="SvgjsClipPath1000dff91d8c-420c-44a7-a374-d2999ab675af-95"><path
       d="M -11.146066,-3.9777636 H -0.4 V 8.1843521 h -10.746066 z"
       id="path20-3" /></clipPath><clipPath
     id="clipPath7-2"><path
       d="M -11.146066,-3.9777636 H -0.4 V 8.1843521 h -10.746066 z"
       id="path7-3" /></clipPath><clipPath
     id="clipPath11-3"><path
       d="M -11.146066,-3.9777636 H -0.4 V 8.1843521 h -10.746066 z"
       id="path11-8" /></clipPath><linearGradient
     id="linearGradient15-9"
     x1="-8.8420661"
     x2="-7.27397"
     y1="2.6460366"
     y2="4.2141327"
     gradientUnits="userSpaceOnUse"><stop
       stop-color="#63a376"
       offset="0"
       id="stop14-2" /><stop
       stop-color="#4c7f5c"
       offset="1"
       id="stop15-4"
       style="stop-color:#396144;stop-opacity:1;" /></linearGradient><clipPath
     id="clipPath15-9"><path
       d="M -11.146066,-3.9777636 H -0.4 V 8.1843521 h -10.746066 z"
       id="path15-2" /></clipPath><clipPath
     id="clipPath21-0"><path
       d="M -11.146066,-3.9777636 H -0.4 V 8.1843521 h -10.746066 z"
       id="path21-1" /></clipPath><linearGradient
     id="linearGradient24-86"
     x1="-4.2584303"
     x2="-2.6903342"
     y1="2.6382276"
     y2="4.2063236"
     gradientUnits="userSpaceOnUse"><stop
       stop-color="#63a376"
       offset="0"
       id="stop21-9" /><stop
       stop-color="#4c7f5c"
       offset="1"
       id="stop24-0"
       style="stop-color:#396144;stop-opacity:1;" /></linearGradient><clipPath
     id="clipPath26-8"><path
       d="M -11.146066,-3.9777636 H -0.4 V 8.1843521 h -10.746066 z"
       id="path26-6" /></clipPath><clipPath
     id="clipPath30-1"><path
       d="M -11.146066,-3.9777636 H -0.4 V 8.1843521 h -10.746066 z"
       id="path30-5" /></clipPath><clipPath
     id="clipPath34-8"><path
       d="M -11.146066,-3.9777636 H -0.4 V 8.1843521 h -10.746066 z"
       id="path34-4" /></clipPath><clipPath
     id="clipPath38-9"><path
       d="M -11.146066,-3.9777636 H -0.4 V 8.1843521 h -10.746066 z"
       id="path38-3" /></clipPath><clipPath
     id="clipPath42-05"><path
       d="M -11.146066,-3.9777636 H -0.4 V 8.1843521 h -10.746066 z"
       id="path42-2" /></clipPath><clipPath
     id="clipPath46-7"><path
       d="M -11.146066,-3.9777636 H -0.4 V 8.1843521 h -10.746066 z"
       id="path46-8" /></clipPath><clipPath
     id="clipPath50-4"><path
       d="M -11.146066,-3.9777636 H -0.4 V 8.1843521 h -10.746066 z"
       id="path50-57" /></clipPath><clipPath
     id="clipPath54-1"><path
       d="M -11.146066,-3.9777636 H -0.4 V 8.1843521 h -10.746066 z"
       id="path54-0" /></clipPath><clipPath
     id="clipPath58-60"><path
       d="M -11.146066,-3.9777636 H -0.4 V 8.1843521 h -10.746066 z"
       id="path58-3" /></clipPath><clipPath
     id="clipPath62-3"><path
       d="M -11.146066,-3.9777636 H -0.4 V 8.1843521 h -10.746066 z"
       id="path62-5" /></clipPath></defs><g
   clip-path="url(#SvgjsClipPath1002)"
   id="g16"
   inkscape:label="icon"
   style="display:inline;fill:url(#linearGradient1);fill-opacity:1"
   transform="matrix(23.809503,0,0,25.610676,387.45294,196.13322)"><g
     clip-path="url(#SvgjsClipPath1000dff91d8c-420c-44a7-a374-d2999ab675af)"
     id="g1"
     style="fill:url(#linearGradient3);fill-opacity:1"><path
       d="m -5.7730332,0.24078972 c -0.1374427,0 -0.272933,-0.036313 -0.392024,-0.10503432 -0.2416961,-0.13978546 -0.392024,-0.39983327 -0.392024,-0.67901372 0,-0.27918045 0.1503279,-0.53922828 0.392024,-0.67901368 0.119091,-0.068721 0.2545813,-0.1050344 0.392024,-0.1050344 0.1374427,0 0.2729331,0.036313 0.392024,0.1050344 0.2416961,0.1397854 0.3920241,0.39983323 0.3920241,0.67901368 0,0.27918045 -0.150328,0.53922826 -0.3920241,0.67901372 -0.1187005,0.0687213 -0.2545813,0.10503432 -0.392024,0.10503432 z"
       fill="url(#gradient-92c3a873-f982-4296-86bc-740686b5c2e0_0)"
       fill-rule="nonzero"
       id="path1-8"
       style="fill:url(#linearGradient2);fill-opacity:1" /></g><g
     clip-path="url(#SvgjsClipPath1000dff91d8c-420c-44a7-a374-d2999ab675af)"
     id="g2"
     style="fill:url(#linearGradient5);fill-opacity:1"><path
       d="m -10.359011,0.24898943 c -0.347512,0 -0.65012,-0.2260776 -0.753592,-0.56265599 -0.08629,-0.2807423 -0.0023,-0.59155019 0.213192,-0.79107634 0.148766,-0.1378332 0.339702,-0.2139733 0.536885,-0.2139733 0.08395,0 0.166728,0.013276 0.246773,0.039827 0.07419,0.024599 0.1530607,0.037094 0.2346673,0.037094 0.1589181,0 0.3229122,-0.046075 0.474802,-0.1339286 l 0.1432996,-0.082778 c 0.232325,-0.1339286 0.3920241,-0.3404831 0.4384891,-0.5661702 0.058569,-0.2834755 0.2616096,-0.5044771 0.5423519,-0.5915502 0.071845,-0.022256 0.1472042,-0.03358 0.2237348,-0.03358 0.2163161,0 0.4236515,0.089025 0.5681225,0.2444293 0.1671178,0.1796126 0.2428675,0.4189659 0.2069449,0.6571478 -0.035532,0.2377915 -0.1753175,0.4427841 -0.3834338,0.5630465 -0.1187005,0.068331 -0.25341,0.1046438 -0.3892908,0.1046438 v 0 c -0.068721,0 -0.1370522,-0.00898 -0.2038212,-0.026942 -0.098397,-0.026551 -0.196793,-0.039827 -0.2920658,-0.039827 -0.1628227,0 -0.3119792,0.038265 -0.4431745,0.114015 l -0.1772698,0.10230104 c -0.2073355,0.11948143 -0.3607871,0.33267378 -0.4318512,0.5997499 -0.053884,0.20186894 -0.1831268,0.3705486 -0.3639108,0.474802 -0.1187002,0.0691118 -0.2541912,0.10542479 -0.3908522,0.10542529 z"
       fill="url(#gradient-92c3a873-f982-4296-86bc-740686b5c2e0_1)"
       fill-rule="nonzero"
       id="path2-4"
       style="fill:url(#linearGradient4);fill-opacity:1" /></g><g
     clip-path="url(#SvgjsClipPath1000dff91d8c-420c-44a7-a374-d2999ab675af)"
     id="g3"
     style="fill:url(#linearGradient7);fill-opacity:1"><path
       d="m -3.4544688,4.2199897 c -0.076531,0 -0.1518898,-0.011323 -0.2237348,-0.03358 C -3.9593364,4.0993369 -4.1619863,3.8783353 -4.2205556,3.5948598 -4.267411,3.3691726 -4.4271101,3.1626182 -4.6594351,3.0286896 l -0.1432996,-0.082778 c -0.1518898,-0.087464 -0.3158839,-0.1339285 -0.474802,-0.1339285 -0.081607,0 -0.1608704,0.012495 -0.2346677,0.037094 -0.080045,0.026552 -0.1628228,0.039827 -0.2467721,0.039827 v 0 c -0.1971834,0 -0.3881194,-0.07614 -0.5368855,-0.2139733 -0.2159256,-0.1995262 -0.2994845,-0.5103341 -0.2131924,-0.7910764 0.1034725,-0.3365784 0.4060807,-0.5626559 0.753592,-0.5626559 0.1366618,0 0.2721522,0.036313 0.3912431,0.1050343 0.180784,0.1042534 0.310027,0.272933 0.3639108,0.474802 0.071454,0.2670761 0.2249062,0.4802684 0.4322416,0.5997499 l 0.1772698,0.1023011 c 0.1311953,0.07575 0.2803518,0.1140149 0.4431746,0.1140149 0.095663,0 0.1936692,-0.013276 0.2920657,-0.039827 0.066378,-0.017961 0.1350999,-0.026942 0.2038212,-0.026942 0.1362713,0 0.2709808,0.036313 0.3892908,0.1046438 0.2081164,0.1202624 0.3479018,0.325255 0.3834339,0.5630465 0.035532,0.2377915 -0.039827,0.4771448 -0.206945,0.6571478 -0.1448614,0.155404 -0.3518064,0.2448198 -0.5685129,0.2448199 z"
       fill="url(#gradient-92c3a873-f982-4296-86bc-740686b5c2e0_2)"
       fill-rule="nonzero"
       id="path3-0"
       style="fill:url(#linearGradient6);fill-opacity:1" /></g><g
     clip-path="url(#SvgjsClipPath1000dff91d8c-420c-44a7-a374-d2999ab675af)"
     id="g4"
     style="fill:url(#linearGradient9);fill-opacity:1"><path
       d="m -3.4712587,1.5714848 c -0.076531,0 -0.1518898,-0.011323 -0.2237348,-0.03358 C -3.9761263,1.450832 -4.1787761,1.2298304 -4.2373455,0.94635487 -4.2838105,0.72066773 -4.4438999,0.51411324 -4.6758345,0.38018472 l -0.1432996,-0.082778 c -0.1518898,-0.0874635 -0.3158839,-0.13392853 -0.474802,-0.13392853 -0.081607,0 -0.1608704,0.0124948 -0.2346678,0.0370939 -0.080045,0.0265514 -0.1628227,0.0398271 -0.2467721,0.0398271 v 0 c -0.1971833,0 -0.3881193,-0.0761401 -0.5368854,-0.21397327 -0.2159256,-0.19952617 -0.2994845,-0.51033406 -0.2131924,-0.79107636 0.1034725,-0.33657846 0.4060807,-0.56226556 0.753592,-0.56226556 0.1366618,0 0.2721521,0.036313 0.3912431,0.1050343 0.180784,0.1046439 0.310027,0.27293312 0.3639107,0.47480206 0.071455,0.26707612 0.2245158,0.48026847 0.4318512,0.59974989 l 0.1772698,0.10230109 c 0.1311953,0.07574966 0.2803519,0.11401496 0.4431746,0.11401496 0.095663,0 0.1936692,-0.01327572 0.2920657,-0.03982714 0.066379,-0.01796126 0.1350999,-0.02694189 0.2038213,-0.02694189 0.1362713,0 0.2709807,0.03631298 0.3892907,0.10464386 0.2081164,0.12026235 0.3479018,0.32525499 0.3834339,0.56304645 0.035532,0.23779146 -0.039827,0.47714472 -0.206945,0.65714782 -0.1448614,0.1550135 -0.3518064,0.2444293 -0.5685129,0.2444294 z"
       fill="url(#gradient-92c3a873-f982-4296-86bc-740686b5c2e0_3)"
       fill-rule="nonzero"
       id="path4-0"
       style="fill:url(#linearGradient8);fill-opacity:1" /></g><g
     clip-path="url(#SvgjsClipPath1000dff91d8c-420c-44a7-a374-d2999ab675af)"
     id="g5"
     style="fill:url(#linearGradient11);fill-opacity:1"><path
       d="m -10.35784,2.8885137 c -0.347121,0 -0.65012,-0.2260776 -0.753592,-0.5622655 -0.08629,-0.2811328 -0.0023,-0.5915502 0.213192,-0.7910764 0.148766,-0.1378331 0.339702,-0.2139732 0.536886,-0.2139732 0.08395,0 0.166727,0.013276 0.246772,0.039827 0.07419,0.024599 0.1530611,0.037094 0.2346677,0.037094 0.1589181,0 0.3229122,-0.046075 0.474802,-0.1339285 l 0.1432996,-0.082778 c 0.232325,-0.1339285 0.392024,-0.34048302 0.4388795,-0.56617016 0.058569,-0.28347553 0.2612192,-0.50447712 0.542352,-0.59155019 0.071845,-0.02225634 0.1472042,-0.03357974 0.2237348,-0.03357974 0.216316,0 0.423261,0.08902537 0.5681224,0.24442932 0.1671178,0.18000306 0.2428675,0.41935637 0.206945,0.65714783 -0.035532,0.23779144 -0.1753175,0.44278414 -0.3834339,0.56304644 -0.1187005,0.068331 -0.2534099,0.1046439 -0.3892907,0.1046439 v 0 c -0.068721,0 -0.1370523,-0.00898 -0.2038213,-0.026942 -0.098396,-0.026551 -0.1967929,-0.039827 -0.2920657,-0.039827 -0.1628227,0 -0.3119793,0.038265 -0.4431746,0.114015 l -0.1772698,0.102301 c -0.2073354,0.1194814 -0.360787,0.3326738 -0.4322416,0.5997499 -0.053493,0.2018689 -0.1827363,0.3705486 -0.3639108,0.474802 -0.1187006,0.068721 -0.2541906,0.1050343 -0.3908526,0.1050343 z"
       fill="url(#gradient-92c3a873-f982-4296-86bc-740686b5c2e0_4)"
       fill-rule="nonzero"
       id="path5-9"
       style="fill:url(#linearGradient10);fill-opacity:1" /></g><g
     clip-path="url(#SvgjsClipPath1000dff91d8c-420c-44a7-a374-d2999ab675af)"
     id="g6"
     style="fill:url(#linearGradient13);fill-opacity:1"><path
       d="m -10.35784,5.5284285 c -0.0613,0 -0.123386,-0.00703 -0.184689,-0.021085 -0.286599,-0.065598 -0.513457,-0.2936276 -0.578665,-0.5802268 -0.06521,-0.2869897 0.02499,-0.5731985 0.241306,-0.7656963 0.172194,-0.1534516 0.270981,-0.3951477 0.270981,-0.6630048 V 3.3328597 c 0,-0.2678571 -0.09879,-0.5095532 -0.270981,-0.6630048 -0.215926,-0.1924979 -0.306122,-0.4787066 -0.241306,-0.7656963 0.06521,-0.2865993 0.292066,-0.5146292 0.578665,-0.5802268 0.0613,-0.014057 0.123386,-0.021085 0.184689,-0.021085 0.4322416,0 0.784048,0.3518064 0.784048,0.7840481 0,0.2088972 -0.081607,0.4049092 -0.2292013,0.5525039 -0.1956215,0.1952311 -0.3033887,0.4345844 -0.3033887,0.6739378 v 0.2046021 c 0,0.2393533 0.1077672,0.4787067 0.3033887,0.6739377 0.1479852,0.1475947 0.2292013,0.3436067 0.2292013,0.552504 0,0.2092877 -0.081607,0.4060807 -0.2295917,0.5544563 -0.1479852,0.1479852 -0.3451683,0.2295918 -0.5544563,0.2295918 z"
       fill="url(#gradient-92c3a873-f982-4296-86bc-740686b5c2e0_5)"
       fill-rule="nonzero"
       id="path6-3"
       style="fill:url(#linearGradient12);fill-opacity:1" /></g><g
     clip-path="url(#SvgjsClipPath1000dff91d8c-420c-44a7-a374-d2999ab675af)"
     id="g7"
     style="fill:url(#linearGradient15);fill-opacity:1"><path
       d="m -8.0580178,4.2141328 c -0.1374427,0 -0.2729331,-0.036313 -0.392024,-0.1050343 -0.2416961,-0.1397855 -0.392024,-0.3998333 -0.392024,-0.6790138 0,-0.2791804 0.1503279,-0.5392282 0.392024,-0.6790137 0.1190909,-0.068721 0.2545813,-0.1050343 0.392024,-0.1050343 0.1374427,0 0.2729331,0.036313 0.392024,0.1050343 0.2416961,0.1397855 0.392024,0.3998333 0.392024,0.6790137 0,0.2791805 -0.1503279,0.5392283 -0.392024,0.6790138 -0.1190909,0.068721 -0.2545813,0.1050343 -0.392024,0.1050343 z"
       fill="url(#gradient-92c3a873-f982-4296-86bc-740686b5c2e0_6)"
       fill-rule="nonzero"
       id="path64"
       style="fill:url(#linearGradient14);fill-opacity:1" /></g><g
     clip-path="url(#SvgjsClipPath1000dff91d8c-420c-44a7-a374-d2999ab675af)"
     id="g8"
     style="fill:url(#linearGradient17);fill-opacity:1"><path
       d="m -5.7574147,8.1843521 c -0.076531,0 -0.1518898,-0.011323 -0.2237348,-0.03358 C -6.2622823,8.0636993 -6.4649321,7.8426977 -6.5235015,7.5592222 -6.5703569,7.3335351 -6.730056,7.1269806 -6.9619905,6.9930521 l -0.1432996,-0.082778 c -0.1518898,-0.087463 -0.3158839,-0.1339285 -0.474802,-0.1339285 -0.081607,0 -0.1608704,0.012495 -0.2350582,0.037094 -0.079654,0.026551 -0.1628228,0.039827 -0.2463817,0.039827 -0.1975738,0 -0.3881194,-0.07575 -0.5372759,-0.2139733 -0.2155351,-0.1999166 -0.2994845,-0.510334 -0.2131924,-0.7910763 0.1034725,-0.3365784 0.4060807,-0.562656 0.753592,-0.562656 0.1366618,0 0.2721522,0.036313 0.3912431,0.1050343 0.180784,0.1046439 0.310027,0.2729331 0.3639108,0.474802 0.071064,0.2670761 0.2245157,0.479878 0.4318511,0.5997499 l 0.1772699,0.1023011 c 0.1311952,0.07575 0.2803518,0.1140149 0.4431745,0.1140149 0.095663,0 0.1936693,-0.013276 0.2920657,-0.039827 0.066379,-0.017961 0.1350999,-0.026942 0.2038213,-0.026942 0.1362713,0 0.2709807,0.036313 0.3892908,0.1046439 0.2081163,0.1202623 0.3479018,0.325255 0.3834338,0.5630464 0.035532,0.2377915 -0.039827,0.4771448 -0.2069449,0.6571479 -0.1448615,0.1554039 -0.3518064,0.2448197 -0.5681225,0.2448197 z"
       fill="url(#gradient-92c3a873-f982-4296-86bc-740686b5c2e0_7)"
       fill-rule="nonzero"
       id="path8-7"
       style="fill:url(#linearGradient16);fill-opacity:1" /></g><g
     clip-path="url(#SvgjsClipPath1000dff91d8c-420c-44a7-a374-d2999ab675af)"
     id="g9"
     style="fill:url(#linearGradient19);fill-opacity:1"><path
       d="m -3.4720396,6.8634186 c -0.076531,0 -0.1518898,-0.011323 -0.2237348,-0.03358 C -3.9769072,6.7427658 -4.1795571,6.5217642 -4.2381264,6.2382887 -4.2849818,6.0126015 -4.4446809,5.8060471 -4.6770059,5.6721185 L -4.8203055,5.5893406 C -4.9721953,5.501877 -5.1361894,5.455412 -5.2951075,5.455412 c -0.081607,0 -0.1608704,0.012495 -0.2350582,0.037094 -0.080045,0.026552 -0.1628227,0.039827 -0.2463816,0.039827 -0.1971834,0 -0.3881194,-0.07575 -0.5368855,-0.2139733 -0.2159256,-0.1999166 -0.2994845,-0.5103341 -0.2131924,-0.7910764 0.1034725,-0.3365783 0.4060807,-0.5626559 0.753592,-0.5626559 0.1366618,0 0.2721522,0.036313 0.3912431,0.1050343 0.180784,0.1046438 0.310027,0.272933 0.3639108,0.474802 0.071064,0.2670761 0.2245157,0.479878 0.4318511,0.5997499 l 0.1772698,0.1023011 c 0.1311953,0.07575 0.2803519,0.1140149 0.4431746,0.1140149 0.095663,0 0.1940597,-0.013276 0.2924562,-0.039827 0.066379,-0.017961 0.1350999,-0.026942 0.2038212,-0.026942 0.1362713,0 0.2709808,0.036313 0.3892908,0.1046438 0.2081164,0.1202624 0.3479018,0.325255 0.3834339,0.5630465 0.035532,0.2377915 -0.039827,0.4771448 -0.206945,0.6571478 -0.1452519,0.1557944 -0.3521969,0.2448198 -0.5685129,0.2448199 z"
       fill="url(#gradient-92c3a873-f982-4296-86bc-740686b5c2e0_8)"
       fill-rule="nonzero"
       id="path9-5"
       style="fill:url(#linearGradient18);fill-opacity:1" /></g><g
     clip-path="url(#SvgjsClipPath1000dff91d8c-420c-44a7-a374-d2999ab675af)"
     id="g10"
     style="fill:url(#linearGradient21);fill-opacity:1"><path
       d="m -5.7562433,5.5444374 c -0.076531,0 -0.1518898,-0.011323 -0.2237348,-0.03358 C -6.2611109,5.4237846 -6.4637608,5.202783 -6.5223301,4.9193075 -6.5691855,4.6936203 -6.7288846,4.4870658 -6.9612096,4.3531373 l -0.1432996,-0.082778 c -0.1514993,-0.087464 -0.3158839,-0.1339285 -0.474802,-0.1339285 -0.081607,0 -0.1608704,0.012495 -0.2350582,0.037094 -0.080045,0.026551 -0.1628227,0.039827 -0.2463816,0.039827 -0.1971834,0 -0.3881194,-0.07575 -0.5368855,-0.2139733 -0.2159256,-0.1999165 -0.2994845,-0.510334 -0.2131924,-0.7910763 0.1034725,-0.3365784 0.4060807,-0.562656 0.753592,-0.562656 0.1366618,0 0.2721522,0.036313 0.3912431,0.1050344 0.180784,0.1042534 0.310027,0.272933 0.3639108,0.474802 0.071454,0.2670761 0.2249062,0.479878 0.4322416,0.5997499 l 0.1772698,0.102301 c 0.1311953,0.07575 0.2803518,0.114015 0.4431746,0.114015 0.095663,0 0.1936692,-0.013276 0.2920657,-0.039827 0.066378,-0.017961 0.1350999,-0.026942 0.2038212,-0.026942 0.1358809,0 0.2705903,0.036313 0.3892908,0.1046438 0.2081164,0.1202624 0.3479018,0.325255 0.3834339,0.5630465 0.035532,0.2377914 -0.039827,0.4771448 -0.206945,0.6571478 -0.1452519,0.1557944 -0.3521969,0.2448198 -0.5685129,0.2448198 z"
       fill="url(#gradient-92c3a873-f982-4296-86bc-740686b5c2e0_9)"
       fill-rule="nonzero"
       id="path10-7"
       style="fill:url(#linearGradient20);fill-opacity:1" /></g><g
     clip-path="url(#SvgjsClipPath1000dff91d8c-420c-44a7-a374-d2999ab675af)"
     id="g11"
     style="fill:url(#linearGradient23);fill-opacity:1"><path
       d="m -3.4880485,6.8716183 c -0.2163161,0 -0.423261,-0.089025 -0.5681225,-0.2444293 -0.1671178,-0.1800031 -0.2428675,-0.4193564 -0.206945,-0.6571478 0.035532,-0.2377915 0.1753176,-0.4427841 0.3834339,-0.5630465 0.1187005,-0.068331 0.2534099,-0.1046438 0.3892908,-0.1046438 0.068721,0 0.1370522,0.00898 0.2038212,0.026942 0.098397,0.026552 0.196793,0.039827 0.2920657,0.039827 0.1628228,0 0.3119793,-0.038265 0.4431746,-0.114015 L -2.37406,5.1528038 c 0.2073354,-0.1194814 0.3607871,-0.3326737 0.4318512,-0.5997499 0.053884,-0.2018689 0.1831267,-0.3705486 0.3639107,-0.474802 0.119091,-0.068721 0.2545814,-0.1050343 0.3912431,-0.1050343 0.3471209,0 0.65011954,0.2260776 0.75359202,0.5622655 0.0862921,0.2811328 0.002343,0.5915502 -0.21319235,0.7910764 -0.14876608,0.1378332 -0.33970209,0.2139733 -0.53688547,0.2139733 -0.083949,0 -0.1667274,-0.013276 -0.2467721,-0.039827 -0.074188,-0.024599 -0.1530612,-0.037094 -0.2346678,-0.037094 -0.1589181,0 -0.3233026,0.046075 -0.474802,0.1339286 l -0.1432996,0.082778 c -0.232325,0.1339286 -0.392024,0.340483 -0.4388795,0.5661702 -0.058569,0.2834755 -0.2612192,0.5044771 -0.5423519,0.5915502 -0.071845,0.022256 -0.1472043,0.03358 -0.2237348,0.03358 z"
       fill="url(#gradient-92c3a873-f982-4296-86bc-740686b5c2e0_10)"
       fill-rule="nonzero"
       id="path65"
       style="fill:url(#linearGradient22);fill-opacity:1" /></g><g
     clip-path="url(#SvgjsClipPath1000dff91d8c-420c-44a7-a374-d2999ab675af)"
     id="g12"
     style="fill:url(#linearGradient25);fill-opacity:1"><path
       d="m -3.4743824,4.2063235 c -0.1374427,0 -0.272933,-0.036313 -0.392024,-0.1050343 -0.2416961,-0.1397854 -0.392024,-0.3998332 -0.392024,-0.6790137 0,-0.2791805 0.1503279,-0.5392283 0.392024,-0.6790137 0.119091,-0.068721 0.2545813,-0.1050343 0.392024,-0.1050343 0.1374427,0 0.2729331,0.036313 0.392024,0.1050343 0.2416961,0.1397854 0.3920241,0.3998332 0.3920241,0.6790137 0,0.2791805 -0.150328,0.5392283 -0.3920241,0.6790137 -0.1190909,0.068721 -0.2545813,0.1050343 -0.392024,0.1050343 z"
       fill="url(#gradient-92c3a873-f982-4296-86bc-740686b5c2e0_11)"
       fill-rule="nonzero"
       id="path12-2"
       style="fill:url(#linearGradient24);fill-opacity:1" /></g><g
     clip-path="url(#SvgjsClipPath1000dff91d8c-420c-44a7-a374-d2999ab675af)"
     id="g13"
     style="fill:url(#linearGradient27);fill-opacity:1"><path
       d="m -1.1882264,2.8877328 c -0.4322416,0 -0.7836575,-0.3518064 -0.7836575,-0.7836576 0,-0.2088973 0.081216,-0.4049093 0.2292013,-0.552504 0.1956215,-0.1952311 0.3033891,-0.4345844 0.3033891,-0.67393768 V 0.67303135 c 0,-0.23935331 -0.1077676,-0.47870663 -0.3033891,-0.67393771204 C -1.8906678,-0.14850106 -1.9718839,-0.34451307 -1.9718839,-0.55341033 c 0,-0.43224163 0.3518064,-0.78365757 0.7836575,-0.78365757 0.061303,0 0.1233861,0.00703 0.1846886,0.021085 0.28659928,0.065598 0.5134578,0.2936276 0.57866499,0.58022683 0.0652072,0.2869897 -0.0249896,0.57319847 -0.24130562,0.76569632 -0.17219382,0.15345163 -0.27098075,0.39514772 -0.27098075,0.66300477 v 0.16555596 c 0,0.26785702 0.0987869,0.50955312 0.27098075,0.66300472 0.21592558,0.1924979 0.30612234,0.4787067 0.24130562,0.7656964 -0.0652072,0.2865992 -0.29206571,0.5146291 -0.57866499,0.5802268 -0.061303,0.013276 -0.123386,0.020304 -0.1846886,0.020304 z"
       fill="url(#gradient-92c3a873-f982-4296-86bc-740686b5c2e0_12)"
       fill-rule="nonzero"
       id="path13-9"
       style="fill:url(#linearGradient26);fill-opacity:1" /></g><g
     clip-path="url(#SvgjsClipPath1000dff91d8c-420c-44a7-a374-d2999ab675af)"
     id="g14"
     style="fill:url(#linearGradient29);fill-opacity:1"><path
       d="m -3.4747728,1.569142 c -0.4322417,0 -0.7840481,-0.3518064 -0.7840481,-0.78404801 0,-0.20889726 0.081607,-0.40490927 0.2292013,-0.55250397 0.1956216,-0.19523109 0.3033891,-0.4345844 0.3033891,-0.67393771 v -0.20460218 c 0,-0.23935331 -0.1077675,-0.47870663 -0.3033891,-0.67393773 -0.1479851,-0.1475947 -0.2292013,-0.3439972 -0.2292013,-0.552504 0,-0.4322416 0.3518064,-0.784048 0.7840481,-0.784048 0.061303,0 0.123386,0.00703 0.1846886,0.021085 0.2865992,0.065988 0.5134577,0.2936275 0.5786649,0.5802268 0.065207,0.2869896 -0.02499,0.5731984 -0.2413056,0.7656963 -0.1721938,0.1534516 -0.2709808,0.39514769 -0.2709808,0.66300474 v 0.16555596 c 0,0.26785705 0.098787,0.50955313 0.2709808,0.66300477 0.2159256,0.19249785 0.3061223,0.47870662 0.2413056,0.76569632 -0.065207,0.28659921 -0.2920657,0.51462911 -0.5786649,0.58022681 -0.061303,0.013666 -0.1233861,0.021085 -0.1846886,0.021085 z"
       fill="url(#gradient-92c3a873-f982-4296-86bc-740686b5c2e0_13)"
       fill-rule="nonzero"
       id="path14-7"
       style="fill:url(#linearGradient28);fill-opacity:1" /></g><g
     clip-path="url(#SvgjsClipPath1000dff91d8c-420c-44a7-a374-d2999ab675af)"
     id="g15-5"
     style="display:inline;fill:url(#linearGradient31);fill-opacity:1"><path
       d="m -3.4603257,-1.0793629 c -0.1370523,0 -0.2721522,-0.036313 -0.3912431,-0.1050343 -0.180784,-0.1042534 -0.310027,-0.2729331 -0.3639108,-0.474802 -0.071455,-0.2670761 -0.2249062,-0.479878 -0.4322416,-0.5997499 L -4.824991,-2.3612502 c -0.1311953,-0.07575 -0.2803519,-0.1140149 -0.4431746,-0.1140149 -0.095663,0 -0.1936692,0.013276 -0.2920657,0.039827 -0.066379,0.017961 -0.1350999,0.026942 -0.2038212,0.026942 -0.1362713,0 -0.2705903,-0.036313 -0.3892908,-0.1046439 -0.2081164,-0.1202623 -0.3479018,-0.325255 -0.3834339,-0.5630464 -0.035532,-0.2377915 0.039827,-0.4771448 0.206945,-0.6571479 0.144471,-0.1554039 0.3518064,-0.2444293 0.5681224,-0.2444293 0.076531,0 0.1518898,0.011323 0.2237348,0.03358 0.2811328,0.087073 0.4837827,0.3080746 0.542352,0.5915502 0.046856,0.2260776 0.2065545,0.4322416 0.4388795,0.5661701 l 0.1432996,0.082778 c 0.1514993,0.087464 0.3158839,0.1339285 0.474802,0.1339285 0.081607,0 0.1608704,-0.012495 0.2350582,-0.037094 0.079654,-0.026551 0.1628228,-0.039827 0.2463817,-0.039827 0.1971834,0 0.3881194,0.07614 0.5368854,0.2139732 0.2159256,0.1999167 0.2994845,0.5103341 0.2131924,0.7910764 -0.103082,0.3365784 -0.4060807,0.5622655 -0.7532015,0.5622653 z"
       fill="url(#gradient-92c3a873-f982-4296-86bc-740686b5c2e0_14)"
       fill-rule="nonzero"
       id="path66"
       style="fill:url(#linearGradient30);fill-opacity:1" /></g></g></svg>
