<?xml version="1.0" encoding="UTF-8" standalone="no"?>
<!-- Generator: Adobe Illustrator 16.0.3, SVG Export Plug-In . SVG Version: 6.00 Build 0)  -->

<svg
   enable-background="new 0 0 300 41"
   height="174.62978"
   id="Layer_1"
   version="1.1"
   viewBox="0 0 227.47528 39.998999"
   width="994.8252"
   x="0px"
   xml:space="preserve"
   y="0px"
   xmlns="http://www.w3.org/2000/svg"
   xmlns:svg="http://www.w3.org/2000/svg"><defs
   id="defs39" />
<g
   id="g39"
   transform="translate(-1.2569831,-0.5)">
	<g
   id="g1">
		<path
   d="m 22.434,10.046 c 5.601,0 10.84,1.5 15.353,4.14 L 42.6,5.956 C 36.682,2.483 29.789,0.5 22.435,0.5 15.081,0.5 8.197,2.484 2.27,5.956 l 4.821,8.229 c 4.504,-2.64 9.749,-4.139 15.343,-4.139 z"
   id="path1" />
	</g>
	<g
   id="g2">
		<path
   d="m 26.883,14.567 c -1.957,-0.018 -7.884,-0.132 -15.514,3.394 -0.974,0.45 -1.661,0.823 -1.82,0.585 -0.328,-0.516 2.096,-2.58 4.692,-4.091 0.937,-0.557 1.476,-1.041 1.265,-1.458 -0.307,-0.602 -2.17,-0.726 -7.373,1.934 C 5.47,16.415 3.066,18.314 1,20.528 l 0.853,0.81 c 0.831,-0.895 1.73,-1.712 2.647,-2.512 0.619,-0.532 3.467,-2.661 3.71,-2.014 0.099,0.254 -0.086,0.624 -1.092,2.007 -0.88,1.216 -1.455,2.353 -1.037,2.688 0.409,0.358 0.913,0.157 2.102,-0.496 0.868,-0.483 3.657,-1.958 8.06,-3.283 4.39,-1.313 5.462,-0.809 5.57,-0.497 0.132,0.435 -1.893,1.155 -3.089,1.746 -0.998,0.514 -4.519,2.59 -6.438,4.131 0,0 1.858,3.179 1.866,3.179 1.976,-1.158 9.5,-3.07 10.302,-1.697 0.881,1.513 -7.125,7.133 -7.125,7.133 l 5.105,8.776 c 0,0 11.599,-13.333 9.746,-16.254 -1.857,-2.906 -8.846,-2.375 -11.604,-2.119 -0.76,0.081 -1.647,0.233 -1.837,-0.129 -0.201,-0.416 0.038,-2.08 9.344,-4.289 2.076,-0.493 2.879,-0.744 2.767,-1.657 -0.097,-0.781 -2.016,-1.461 -3.967,-1.484 z"
   id="path2" />
	</g>
	<g
   id="g38">
		<path
   d="m 57.556,17.725 c 0.737,-0.017 1.222,-0.017 1.222,-0.495 0,-0.302 -0.258,-0.942 -0.555,-1.692 L 57.806,14.444 H 53.63 l -0.441,1.048 c -0.226,0.553 -0.426,1.138 -0.426,1.55 0,0.44 0.329,0.667 0.88,0.683 h 0.44 v 0.47 h -3.511 v -0.47 c 0.825,0 1.137,-0.427 1.677,-1.718 L 55.422,8.371 C 55.689,7.747 55.93,7.132 56.118,6.428 h 1.452 c 0.211,0.82 0.464,1.564 0.751,2.317 l 3.014,7.803 c 0.196,0.524 0.455,1.179 1.093,1.179 h 0.341 v 0.47 H 57.554 Z M 55.802,9.213 53.86,13.874 h 3.734 z"
   id="path3" />
		<path
   d="M 62.945,17.725 H 63.5 c 0.485,0 0.653,-0.213 0.653,-1.108 v -5.004 c 0,-0.896 -0.167,-1.108 -0.653,-1.108 h -0.555 v -0.472 h 1.708 c 0.608,0 1.193,-0.113 1.746,-0.266 v 1.45 h 0.029 c 0.655,-0.926 1.438,-1.45 2.645,-1.45 1.107,0 1.92,0.41 2.23,1.45 0.697,-1.009 1.366,-1.45 2.718,-1.45 1.604,0 2.384,0.963 2.384,2.316 v 4.534 c 0,0.895 0.16,1.108 0.654,1.108 h 0.355 v 0.47 h -4.365 v -0.47 h 0.356 c 0.487,0 0.654,-0.213 0.654,-1.108 V 12.51 c 0,-0.796 0,-1.731 -1.049,-1.731 -1.563,0 -1.563,1.799 -1.563,2.809 v 3.029 c 0,0.895 0.167,1.108 0.652,1.108 h 0.358 v 0.47 h -4.366 v -0.47 h 0.356 c 0.495,0 0.651,-0.213 0.651,-1.108 V 12.51 c 0,-0.796 0,-1.731 -1.04,-1.731 -1.561,0 -1.561,1.799 -1.561,2.809 v 3.029 c 0,0.895 0.156,1.108 0.643,1.108 h 0.365 v 0.47 h -4.563 v -0.47 z"
   id="path4" />
		<path
   d="m 78.389,15.525 h 0.514 c 0.327,1.379 1.094,2.359 2.627,2.359 0.829,0 1.622,-0.485 1.622,-1.321 0,-1.039 -0.81,-1.268 -2.373,-1.624 -1.207,-0.283 -2.39,-0.683 -2.39,-2.371 0,-1.936 1.41,-2.801 3.201,-2.801 0.737,0 1.261,0.266 1.792,0.266 0.439,0 0.693,-0.138 0.881,-0.266 h 0.099 v 2.628 h -0.515 c -0.167,-1.079 -1.048,-2.059 -2.186,-2.059 -0.797,0 -1.618,0.296 -1.618,1.292 0,0.826 0.427,0.94 2.316,1.382 1.448,0.326 2.558,0.781 2.558,2.671 0,1.96 -1.61,2.772 -3.328,2.772 -0.767,0 -1.593,-0.258 -2.292,-0.258 -0.325,0 -0.653,0.144 -0.821,0.258 h -0.087 z"
   id="path5" />
		<path
   d="m 91.146,10.505 h -1.708 v 5.247 c 0,0.978 0,1.691 0.753,1.691 0.612,0 0.713,-0.599 0.728,-1.17 v -0.521 h 0.623 v 0.356 c 0,1.632 -0.653,2.345 -2.134,2.345 -1.687,0 -2.316,-1.04 -2.316,-2.133 v -5.815 h -1.146 v -0.471 c 1.619,-0.098 2.644,-1.663 3,-3.126 h 0.493 v 3.126 h 1.708 v 0.471 z"
   id="path6" />
		<path
   d="m 95.109,14.143 v 0.399 c 0,1.633 0.146,3.341 2.004,3.341 1.422,0 2.248,-1.207 2.277,-2.491 h 0.722 c -0.212,2.006 -1.488,3.06 -3.523,3.06 -2.587,0 -4.022,-1.807 -4.022,-4.351 0,-2.518 1.436,-4.335 4.022,-4.335 2.727,0 3.683,1.846 3.683,4.376 h -5.163 z m 2.62,-0.481 c 0,-1.752 0,-3.326 -1.197,-3.326 -1.36,0 -1.422,1.732 -1.422,3.326 z"
   id="path7" />
		<path
   d="m 104.838,16.617 c 0,0.895 0.17,1.108 0.655,1.108 h 0.752 v 0.47 h -4.956 v -0.47 h 0.552 c 0.495,0 0.652,-0.213 0.652,-1.108 v -5.004 c 0,-0.896 -0.157,-1.108 -0.652,-1.108 h -0.552 v -0.472 h 1.716 c 0.598,0 1.184,-0.113 1.738,-0.266 v 1.846 h 0.067 c 0.356,-0.834 1.092,-1.731 2.187,-1.731 0.768,0 1.626,0.328 1.626,1.376 0,0.766 -0.504,1.167 -1.37,1.167 -0.39,0 -1.074,-0.198 -1.074,-1.039 0,-0.311 0,-0.396 -0.191,-0.396 -0.464,0 -1.149,1.063 -1.149,2.811 v 2.816 z"
   id="path8" />
		<path
   d="m 115.085,17.004 h -0.028 c -0.382,1.048 -1.308,1.45 -2.448,1.45 -2.288,0 -3.14,-2.346 -3.14,-4.311 0,-2.088 0.787,-4.375 3.171,-4.375 1.034,0 1.807,0.428 2.308,1.337 h 0.03 V 7.619 c 0,-0.796 -0.03,-1.094 -0.652,-1.094 h -0.503 V 6.057 h 3.511 v 10.546 c 0,0.971 0.227,1.124 0.653,1.124 h 0.512 v 0.469 h -3.415 z m -1.806,0.638 c 1.638,0 1.655,-2.628 1.655,-3.698 0,-1.108 -0.14,-3.354 -1.687,-3.354 -1.229,0 -1.229,2.504 -1.229,3.286 0.001,0.796 0.001,3.766 1.261,3.766 z"
   id="path9" />
		<path
   d="m 128.181,15.934 c 0,1.084 -0.032,2.519 -2.039,2.519 -0.651,0 -1.486,-0.342 -1.779,-1.085 -0.469,0.813 -1.469,1.085 -2.364,1.085 -1.414,0 -2.569,-0.782 -2.569,-2.277 0,-2.102 2.356,-2.815 4.132,-2.815 0.243,0 0.47,0 0.714,0.015 v -1.718 c 0,-0.714 -0.229,-1.322 -1.094,-1.322 -0.366,0 -1.109,0.069 -1.109,0.494 0,0.175 0.366,0.47 0.366,0.926 0,0.683 -0.593,1.092 -1.231,1.092 -0.729,0 -1.212,-0.467 -1.212,-1.207 0,-1.535 2.123,-1.874 3.295,-1.874 1.565,0 3.341,0.41 3.341,2.301 v 4.861 c 0,0.438 0.133,0.613 0.39,0.613 0.538,0 0.538,-0.864 0.538,-1.609 h 0.621 z m -3.902,-2.044 c -0.215,-0.042 -0.352,-0.06 -0.486,-0.06 -1.319,0 -1.912,0.88 -1.912,2.332 0,0.726 0.303,1.48 1.12,1.48 0.425,0 1.279,-0.274 1.279,-1.678 z"
   id="path10" />
		<path
   d="m 128.762,17.725 h 0.563 c 0.484,0 0.651,-0.213 0.651,-1.108 v -5.004 c 0,-0.896 -0.167,-1.108 -0.651,-1.108 h -0.563 v -0.472 h 1.717 c 0.609,0 1.183,-0.113 1.746,-0.266 v 1.45 h 0.027 c 0.655,-0.926 1.427,-1.45 2.643,-1.45 1.107,0 1.914,0.41 2.231,1.45 0.699,-1.009 1.369,-1.45 2.72,-1.45 1.592,0 2.385,0.963 2.385,2.316 v 4.534 c 0,0.895 0.147,1.108 0.652,1.108 h 0.346 v 0.47 h -4.353 v -0.47 h 0.347 c 0.485,0 0.653,-0.213 0.653,-1.108 V 12.51 c 0,-0.796 0,-1.731 -1.047,-1.731 -1.568,0 -1.568,1.799 -1.568,2.809 v 3.029 c 0,0.895 0.172,1.108 0.654,1.108 h 0.368 v 0.47 h -4.376 v -0.47 h 0.366 c 0.486,0 0.652,-0.213 0.652,-1.108 V 12.51 c 0,-0.796 0,-1.731 -1.048,-1.731 -1.563,0 -1.563,1.799 -1.563,2.809 v 3.029 c 0,0.895 0.169,1.108 0.653,1.108 h 0.364 v 0.47 h -4.568 v -0.47 z"
   id="path11" />
		<path
   d="m 160.092,7.067 h -0.424 c -0.805,0 -0.82,0.439 -0.82,2.527 v 4.89 c 0,2.389 -1.514,3.968 -4.129,3.968 -3.021,0 -4.603,-1.624 -4.603,-4.04 V 9.593 c 0,-2.088 -0.013,-2.527 -0.819,-2.527 H 148.89 V 6.595 h 5.009 v 0.471 h -0.426 c -0.789,0 -0.803,0.439 -0.803,2.527 v 5.161 c 0,2.203 1.199,2.985 2.547,2.985 1.553,0 2.918,-1.123 2.918,-3.509 V 9.594 c 0,-2.088 -0.018,-2.527 -0.82,-2.527 h -0.408 V 6.595 h 3.186 v 0.472 z"
   id="path12" />
		<path
   d="m 160.711,17.725 h 0.545 c 0.486,0 0.652,-0.213 0.652,-1.108 v -5.004 c 0,-0.896 -0.166,-1.108 -0.652,-1.108 h -0.545 v -0.472 h 1.697 c 0.609,0 1.205,-0.113 1.746,-0.266 v 1.45 h 0.031 c 0.652,-0.926 1.443,-1.45 2.643,-1.45 1.592,0 2.383,0.963 2.383,2.316 v 4.534 c 0,0.895 0.17,1.108 0.656,1.108 h 0.346 v 0.47 h -4.357 v -0.47 h 0.348 c 0.508,0 0.654,-0.213 0.654,-1.108 V 12.51 c 0,-0.796 0,-1.731 -1.029,-1.731 -1.564,0 -1.564,1.799 -1.564,2.809 v 3.029 c 0,0.895 0.15,1.108 0.652,1.108 h 0.35 v 0.47 h -4.555 v -0.47 z"
   id="path13" />
		<path
   d="m 170.855,17.725 h 0.563 c 0.486,0 0.652,-0.213 0.652,-1.108 v -5.004 c 0,-0.896 -0.166,-1.108 -0.652,-1.108 h -0.563 v -0.472 h 1.719 c 0.652,0 1.41,-0.083 1.93,-0.266 -0.123,1.291 -0.094,2.544 -0.094,3.796 v 3.053 c 0,0.895 0.166,1.108 0.652,1.108 h 0.563 v 0.47 h -4.77 z M 173.24,6.057 c 0.744,0 1.367,0.613 1.367,1.368 0,0.75 -0.623,1.375 -1.367,1.375 -0.744,0 -1.365,-0.625 -1.365,-1.375 0,-0.755 0.621,-1.368 1.365,-1.368 z"
   id="path14" />
		<path
   d="m 184.432,10.505 c -0.59,0 -0.771,0.501 -1.029,1.124 l -1.99,4.804 c -0.242,0.611 -0.469,1.224 -0.668,1.861 h -1.092 c -0.152,-0.425 -0.291,-0.88 -0.457,-1.291 l -2.172,-5.42 c -0.273,-0.709 -0.318,-1.08 -0.807,-1.08 h -0.271 v -0.471 h 4.465 v 0.471 h -0.545 c -0.271,0 -0.564,0.061 -0.564,0.357 0,0.083 0.063,0.282 0.154,0.553 l 1.592,4.153 h 0.029 l 1.625,-4.068 c 0.076,-0.228 0.123,-0.409 0.123,-0.557 0,-0.279 -0.273,-0.438 -0.561,-0.438 h -0.396 v -0.471 h 2.564 z"
   id="path15" />
		<path
   d="m 187.318,14.143 v 0.399 c 0,1.633 0.148,3.341 2.004,3.341 1.426,0 2.244,-1.207 2.295,-2.491 h 0.711 c -0.215,2.006 -1.49,3.06 -3.523,3.06 -2.598,0 -4.023,-1.807 -4.023,-4.351 0,-2.518 1.424,-4.335 4.023,-4.335 2.717,0 3.691,1.846 3.691,4.376 h -5.178 z m 2.625,-0.481 c 0,-1.752 0,-3.326 -1.199,-3.326 -1.352,0 -1.426,1.732 -1.426,3.326 z"
   id="path16" />
		<path
   d="m 196.92,16.617 c 0,0.895 0.166,1.108 0.65,1.108 h 0.764 v 0.47 h -4.953 v -0.47 h 0.549 c 0.484,0 0.65,-0.213 0.65,-1.108 v -5.004 c 0,-0.896 -0.166,-1.108 -0.65,-1.108 h -0.549 v -0.472 h 1.701 c 0.609,0 1.203,-0.113 1.748,-0.266 v 1.846 h 0.057 c 0.365,-0.834 1.096,-1.731 2.188,-1.731 0.777,0 1.623,0.328 1.623,1.376 0,0.766 -0.5,1.167 -1.367,1.167 -0.377,0 -1.08,-0.198 -1.08,-1.039 0,-0.311 0,-0.396 -0.176,-0.396 -0.459,0 -1.156,1.063 -1.156,2.811 v 2.816 z"
   id="path17" />
		<path
   d="m 201.551,15.525 h 0.535 c 0.318,1.379 1.094,2.359 2.607,2.359 0.838,0 1.645,-0.485 1.645,-1.321 0,-1.039 -0.82,-1.268 -2.387,-1.624 -1.197,-0.283 -2.398,-0.683 -2.398,-2.371 0,-1.936 1.43,-2.801 3.221,-2.801 0.727,0 1.244,0.266 1.791,0.266 0.439,0 0.682,-0.138 0.881,-0.266 h 0.09 v 2.628 h -0.516 c -0.166,-1.079 -1.049,-2.059 -2.186,-2.059 -0.807,0 -1.609,0.296 -1.609,1.292 0,0.826 0.426,0.94 2.307,1.382 1.459,0.326 2.568,0.781 2.568,2.671 0,1.96 -1.627,2.772 -3.326,2.772 -0.775,0 -1.594,-0.258 -2.311,-0.258 -0.318,0 -0.652,0.144 -0.799,0.258 h -0.111 v -2.929 h -0.002 z"
   id="path18" />
		<path
   d="m 208.938,17.725 h 0.559 c 0.488,0 0.656,-0.213 0.656,-1.108 v -5.004 c 0,-0.896 -0.168,-1.108 -0.656,-1.108 h -0.559 v -0.472 h 1.715 c 0.654,0 1.43,-0.083 1.934,-0.266 -0.127,1.291 -0.096,2.544 -0.096,3.796 v 3.053 c 0,0.895 0.166,1.108 0.654,1.108 h 0.559 v 0.47 h -4.766 z m 2.384,-11.668 c 0.758,0 1.365,0.613 1.365,1.368 0,0.75 -0.605,1.375 -1.365,1.375 -0.746,0 -1.369,-0.625 -1.369,-1.375 0.002,-0.755 0.625,-1.368 1.369,-1.368 z"
   id="path19" />
		<path
   d="m 219.479,10.505 h -1.717 v 5.247 c 0,0.978 0,1.691 0.742,1.691 0.625,0 0.732,-0.599 0.748,-1.17 v -0.521 h 0.623 v 0.356 c 0,1.632 -0.654,2.345 -2.143,2.345 -1.688,0 -2.307,-1.04 -2.307,-2.133 v -5.815 h -1.156 v -0.471 c 1.625,-0.098 2.641,-1.663 3.008,-3.126 h 0.484 v 3.126 h 1.717 v 0.471 z"
   id="path20" />
		<path
   d="m 228.865,10.505 c -0.611,0 -0.807,0.501 -1.049,1.124 l -3.205,8.102 c -0.594,1.464 -1.045,2.271 -2.504,2.271 -0.805,0 -1.609,-0.639 -1.609,-1.473 0,-0.713 0.422,-1.177 1.107,-1.177 0.715,0 1.045,0.478 1.045,0.963 0,0.394 -0.254,0.589 -0.254,0.818 0,0.153 0.137,0.29 0.285,0.29 0.457,0 0.928,-0.831 1.275,-1.792 l 0.395,-1.092 -2.656,-6.81 c -0.166,-0.41 -0.395,-1.223 -0.879,-1.223 h -0.365 v -0.472 h 4.463 v 0.471 h -0.289 c -0.35,0 -0.727,0.015 -0.727,0.41 0,0.061 0.029,0.188 0.09,0.387 l 1.578,4.175 h 0.029 l 1.461,-3.848 c 0.09,-0.272 0.15,-0.485 0.15,-0.598 0,-0.441 -0.262,-0.526 -0.551,-0.526 h -0.41 v -0.471 h 2.615 z"
   id="path21" />
		<path
   d="m 55.537,28.488 c 2.588,0 4.022,1.806 4.022,4.323 0,2.552 -1.434,4.359 -4.022,4.359 -2.589,0 -4.024,-1.808 -4.024,-4.359 0.001,-2.517 1.435,-4.323 4.024,-4.323 z m 0,8.106 c 1.163,0 1.578,-0.957 1.578,-3.782 0,-3.217 -0.713,-3.766 -1.578,-3.766 -0.865,0 -1.579,0.549 -1.579,3.766 0,2.825 0.426,3.782 1.579,3.782 z"
   id="path22" />
		<path
   d="m 61.736,29.212 h -1.205 v -0.467 h 1.205 v -0.743 c 0,-2.129 1.011,-3.494 3.229,-3.494 1.078,0 2.529,0.426 2.529,1.731 0,0.711 -0.427,1.168 -1.133,1.168 -0.628,0 -1.125,-0.351 -1.125,-1.019 0,-0.685 0.496,-0.744 0.496,-1.061 0,-0.262 -0.343,-0.351 -0.554,-0.351 -1.192,-0.059 -1.098,1.426 -1.098,2.278 v 1.488 h 1.552 v 0.469 H 64.08 v 6.104 c 0,0.914 0.162,1.11 0.655,1.11 h 0.896 v 0.486 H 60.53 v -0.486 h 0.552 c 0.488,0 0.653,-0.196 0.653,-1.11 z"
   id="path23" />
		<path
   d="m 77.777,36.426 c 0.734,-0.017 1.22,-0.017 1.22,-0.485 0,-0.304 -0.258,-0.941 -0.552,-1.685 L 78.019,33.164 H 73.85 l -0.438,1.03 c -0.229,0.563 -0.427,1.157 -0.427,1.55 0,0.438 0.326,0.667 0.88,0.682 h 0.441 v 0.488 h -3.522 v -0.488 c 0.838,0 1.138,-0.407 1.678,-1.697 l 3.181,-7.655 c 0.257,-0.607 0.5,-1.23 0.699,-1.927 h 1.45 c 0.213,0.802 0.455,1.565 0.751,2.307 l 3.013,7.803 c 0.198,0.534 0.455,1.17 1.094,1.17 h 0.342 v 0.486 h -5.215 z m -1.763,-8.504 -1.935,4.661 h 3.728 z"
   id="path24" />
		<path
   d="m 83.126,39.965 h 0.554 c 0.525,0 0.621,-0.517 0.621,-1.338 v -7.105 c 0,-1.715 0.062,-2.31 -0.735,-2.31 h -0.411 v -0.467 h 1.421 c 0.699,0 1.404,-0.122 1.975,-0.257 v 1.519 h 0.03 c 0.453,-1.081 1.39,-1.519 2.415,-1.519 2.374,0 3.156,2.272 3.156,4.354 0,1.975 -0.84,4.329 -3.127,4.329 -1.01,0 -1.975,-0.453 -2.345,-1.307 h -0.03 v 2.322 c 0,1.398 0,1.778 0.667,1.778 h 0.517 v 0.471 h -4.708 z m 5.229,-3.613 c 1.253,0 1.253,-2.961 1.253,-3.769 0,-0.771 0,-3.291 -1.237,-3.291 -1.55,0 -1.678,2.262 -1.678,3.354 0,1.078 0.015,3.706 1.662,3.706 z"
   id="path25" />
		<path
   d="m 93.092,39.965 h 0.556 c 0.515,0 0.613,-0.517 0.613,-1.338 v -7.105 c 0,-1.715 0.069,-2.31 -0.727,-2.31 h -0.409 v -0.467 h 1.419 c 0.698,0 1.396,-0.122 1.965,-0.257 v 1.519 h 0.04 c 0.455,-1.081 1.379,-1.519 2.406,-1.519 2.382,0 3.166,2.272 3.166,4.354 0,1.975 -0.849,4.329 -3.128,4.329 -1.01,0 -1.973,-0.453 -2.345,-1.307 H 96.61 v 2.322 c 0,1.398 0,1.778 0.668,1.778 h 0.525 v 0.471 h -4.709 z m 5.23,-3.613 c 1.252,0 1.252,-2.961 1.252,-3.769 0,-0.771 0,-3.291 -1.238,-3.291 -1.547,0 -1.678,2.262 -1.678,3.354 0.001,1.078 0.016,3.706 1.664,3.706 z"
   id="path26" />
		<path
   d="m 102.966,36.426 h 0.553 c 0.495,0 0.655,-0.196 0.655,-1.108 v -8.974 c 0,-0.895 -0.159,-1.108 -0.655,-1.108 h -0.553 v -0.47 h 3.555 v 10.551 c 0,0.912 0.166,1.108 0.652,1.108 h 0.555 v 0.486 h -4.762 z"
   id="path27" />
		<path
   d="m 108.123,36.426 h 0.556 c 0.484,0 0.653,-0.196 0.653,-1.108 v -4.993 c 0,-0.897 -0.169,-1.112 -0.653,-1.112 h -0.556 v -0.467 h 1.708 c 0.653,0 1.416,-0.076 1.928,-0.257 -0.119,1.288 -0.088,2.532 -0.088,3.791 v 3.038 c 0,0.912 0.167,1.108 0.654,1.108 h 0.562 v 0.486 h -4.763 v -0.486 z m 2.375,-11.659 c 0.747,0 1.368,0.622 1.368,1.365 0,0.761 -0.62,1.365 -1.368,1.365 -0.746,0 -1.365,-0.604 -1.365,-1.365 0,-0.743 0.62,-1.365 1.365,-1.365 z"
   id="path28" />
		<path
   d="m 116.272,32.842 v 0.412 c 0,1.641 0.152,3.338 2.003,3.338 1.411,0 2.246,-1.196 2.276,-2.49 h 0.716 c -0.197,2.006 -1.473,3.069 -3.507,3.069 -2.598,0 -4.023,-1.808 -4.023,-4.359 0,-2.518 1.426,-4.323 4.023,-4.323 2.717,0 3.674,1.836 3.674,4.354 h -5.162 z m 2.628,-0.469 c 0,-1.765 0,-3.329 -1.217,-3.329 -1.35,0 -1.41,1.732 -1.41,3.329 z"
   id="path29" />
		<path
   d="m 128.413,35.71 h -0.05 c -0.363,1.05 -1.289,1.461 -2.444,1.461 -2.276,0 -3.127,-2.354 -3.127,-4.331 0,-2.079 0.788,-4.355 3.173,-4.355 1.033,0 1.807,0.427 2.308,1.335 h 0.03 v -3.494 c 0,-0.805 -0.03,-1.092 -0.655,-1.092 h -0.499 v -0.47 h 3.508 V 35.3 c 0,0.989 0.229,1.124 0.654,1.124 h 0.515 v 0.488 h -3.413 z m -1.829,0.642 c 1.658,0 1.673,-2.628 1.673,-3.706 0,-1.092 -0.138,-3.354 -1.688,-3.354 -1.229,0 -1.229,2.521 -1.229,3.291 0.002,0.808 0.002,3.769 1.244,3.769 z"
   id="path30" />
		<path
   d="m 137.921,33.815 h 0.622 c 0,1.61 1.461,2.776 3.127,2.776 1.369,0 2.264,-0.787 2.264,-2.079 0,-3.037 -6.105,-1.673 -6.105,-5.97 0,-2.29 1.748,-3.505 3.855,-3.505 0.927,0 1.917,0.426 2.445,0.426 0.307,0 0.44,-0.168 0.47,-0.317 h 0.534 v 2.928 h -0.624 c -0.106,-1.474 -1.248,-2.458 -2.73,-2.458 -1.11,0 -2.299,0.546 -2.299,1.822 0,2.824 6.214,1.351 6.214,6.055 0,2.325 -1.883,3.678 -4.025,3.678 -1.125,0 -2.158,-0.429 -2.777,-0.429 -0.304,0 -0.394,0.12 -0.44,0.32 h -0.532 v -3.247 z"
   id="path31" />
		<path
   d="m 154.477,34.162 c -0.227,2.019 -1.354,3.009 -3.371,3.009 -2.643,0 -3.859,-1.991 -3.859,-4.436 0,-3.068 2.201,-4.251 4.16,-4.251 2.252,0 2.918,1.214 2.918,1.789 0,0.775 -0.412,1.326 -1.264,1.326 -0.666,0 -1.09,-0.473 -1.09,-1.124 0,-0.471 0.244,-0.564 0.244,-0.765 0,-0.347 -0.563,-0.667 -0.943,-0.667 -1.396,0 -1.472,1.975 -1.472,3.888 0,1.294 -0.015,3.66 1.794,3.66 1.469,0 2.049,-1.09 2.15,-2.43 h 0.733 z"
   id="path32" />
		<path
   d="m 155.252,36.426 h 0.564 c 0.484,0 0.652,-0.196 0.652,-1.108 v -4.993 c 0,-0.897 -0.168,-1.112 -0.652,-1.112 h -0.564 v -0.467 h 1.719 c 0.65,0 1.41,-0.076 1.93,-0.257 -0.123,1.288 -0.094,2.532 -0.094,3.791 v 3.038 c 0,0.912 0.168,1.108 0.654,1.108 h 0.561 v 0.486 h -4.77 z m 2.387,-11.659 c 0.744,0 1.363,0.622 1.363,1.365 0,0.761 -0.621,1.365 -1.363,1.365 -0.742,0 -1.365,-0.604 -1.365,-1.365 -0.001,-0.743 0.622,-1.365 1.365,-1.365 z"
   id="path33" />
		<path
   d="m 163.41,32.842 v 0.412 c 0,1.641 0.135,3.338 2.004,3.338 1.414,0 2.248,-1.196 2.277,-2.49 h 0.713 c -0.213,2.006 -1.469,3.069 -3.506,3.069 -2.594,0 -4.041,-1.808 -4.041,-4.359 0,-2.518 1.447,-4.323 4.041,-4.323 2.719,0 3.674,1.836 3.674,4.354 h -5.162 z m 2.629,-0.469 c 0,-1.765 0,-3.329 -1.217,-3.329 -1.35,0 -1.412,1.732 -1.412,3.329 z"
   id="path34" />
		<path
   d="m 169.596,36.426 h 0.545 c 0.486,0 0.654,-0.196 0.654,-1.108 v -4.993 c 0,-0.897 -0.168,-1.112 -0.654,-1.112 h -0.545 v -0.467 h 1.699 c 0.607,0 1.201,-0.122 1.746,-0.257 v 1.438 h 0.029 c 0.654,-0.927 1.445,-1.438 2.643,-1.438 1.596,0 2.383,0.954 2.383,2.305 v 4.524 c 0,0.912 0.168,1.108 0.652,1.108 h 0.348 v 0.486 h -4.355 v -0.486 h 0.348 c 0.504,0 0.652,-0.196 0.652,-1.108 v -4.099 c 0,-0.807 0,-1.732 -1.029,-1.732 -1.566,0 -1.566,1.791 -1.566,2.811 v 3.021 c 0,0.912 0.152,1.108 0.652,1.108 h 0.35 v 0.486 h -4.555 z"
   id="path35" />
		<path
   d="m 187.174,34.162 c -0.229,2.019 -1.35,3.009 -3.389,3.009 -2.621,0 -3.842,-1.991 -3.842,-4.436 0,-3.068 2.203,-4.251 4.164,-4.251 2.246,0 2.916,1.214 2.916,1.789 0,0.775 -0.412,1.326 -1.264,1.326 -0.668,0 -1.09,-0.473 -1.09,-1.124 0,-0.471 0.225,-0.564 0.225,-0.765 0,-0.347 -0.545,-0.667 -0.924,-0.667 -1.398,0 -1.473,1.975 -1.473,3.888 0,1.294 -0.016,3.66 1.791,3.66 1.471,0 2.049,-1.09 2.154,-2.43 h 0.732 z"
   id="path36" />
		<path
   d="m 190.822,32.842 v 0.412 c 0,1.641 0.152,3.338 2.004,3.338 1.414,0 2.246,-1.196 2.279,-2.49 h 0.729 c -0.213,2.006 -1.49,3.069 -3.521,3.069 -2.598,0 -4.025,-1.808 -4.025,-4.359 0,-2.518 1.428,-4.323 4.025,-4.323 2.719,0 3.674,1.836 3.674,4.354 h -5.165 z m 2.627,-0.469 c 0,-1.765 0,-3.329 -1.215,-3.329 -1.352,0 -1.412,1.732 -1.412,3.329 z"
   id="path37" />
		<path
   d="m 197.34,34.242 h 0.535 c 0.318,1.38 1.092,2.352 2.613,2.352 0.832,0 1.637,-0.486 1.637,-1.322 0,-1.029 -0.82,-1.258 -2.385,-1.622 -1.199,-0.274 -2.4,-0.684 -2.4,-2.372 0,-1.925 1.43,-2.791 3.221,-2.791 0.729,0 1.244,0.259 1.791,0.259 0.441,0 0.684,-0.14 0.883,-0.259 h 0.088 v 2.629 h -0.514 c -0.17,-1.082 -1.049,-2.069 -2.189,-2.069 -0.789,0 -1.605,0.307 -1.605,1.29 0,0.839 0.428,0.941 2.307,1.384 1.459,0.333 2.566,0.789 2.566,2.669 0,1.961 -1.627,2.782 -3.326,2.782 -0.773,0 -1.594,-0.259 -2.311,-0.259 -0.316,0 -0.633,0.137 -0.799,0.259 h -0.109 z"
   id="path38" />
	</g>
</g>
</svg>
